<svg width="515" height="226" viewBox="0 0 515 226" fill="none" xmlns="http://www.w3.org/2000/svg">
<path d="M12.5156 20.75H24.4219L41.9531 70.8594L59.4844 20.75H71.3906L46.7344 89H37.1719L12.5156 20.75ZM6.09375 20.75H17.9531L20.1094 69.5938V89H6.09375V20.75ZM65.9531 20.75H77.8594V89H63.7969V69.5938L65.9531 20.75ZM135.984 78.0312V89H99.6562V78.0312H135.984ZM104.25 20.75V89H90.1875V20.75H104.25ZM131.25 48.5469V59.2344H99.6562V48.5469H131.25ZM135.938 20.75V31.7656H99.6562V20.75H135.938ZM175.641 20.75V89H161.625V20.75H175.641ZM196.641 20.75V31.7656H140.953V20.75H196.641ZM227.344 32.4219L208.781 89H193.828L219.188 20.75H228.703L227.344 32.4219ZM242.766 89L224.156 32.4219L222.656 20.75H232.266L257.766 89H242.766ZM241.922 63.5938V74.6094H205.875V63.5938H241.922ZM278.203 78.1719L291.797 20.75H299.391L301.125 30.3125L286.641 89H278.484L278.203 78.1719ZM271.219 20.75L282.469 78.1719L281.531 89H272.438L257.297 20.75H271.219ZM313.078 77.9375L324.188 20.75H338.109L323.016 89H313.922L313.078 77.9375ZM303.656 20.75L317.344 78.4062L316.969 89H308.812L294.234 30.2656L296.109 20.75H303.656ZM371.438 32.4219L352.875 89H337.922L363.281 20.75H372.797L371.438 32.4219ZM386.859 89L368.25 32.4219L366.75 20.75H376.359L401.859 89H386.859ZM386.016 63.5938V74.6094H349.969V63.5938H386.016ZM428.953 74.75L445.031 20.75H460.688L436.922 89H426.609L428.953 74.75ZM414.141 20.75L430.172 74.75L432.609 89H422.203L398.578 20.75H414.141ZM512.859 78.0312V89H476.531V78.0312H512.859ZM481.125 20.75V89H467.062V20.75H481.125ZM508.125 48.5469V59.2344H476.531V48.5469H508.125ZM512.812 20.75V31.7656H476.531V20.75H512.812Z" fill="black"/>
<path d="M12.5156 20.75V19.75H11.0911L11.5751 21.0898L12.5156 20.75ZM24.4219 20.75L25.3658 20.4198L25.1314 19.75H24.4219V20.75ZM41.9531 70.8594L41.0092 71.1896L41.9531 73.8875L42.897 71.1896L41.9531 70.8594ZM59.4844 20.75V19.75H58.7748L58.5405 20.4198L59.4844 20.75ZM71.3906 20.75L72.3311 21.0898L72.8151 19.75H71.3906V20.75ZM46.7344 89V90H47.4364L47.6749 89.3398L46.7344 89ZM37.1719 89L36.2314 89.3398L36.4699 90H37.1719V89ZM6.09375 20.75V19.75H5.09375V20.75H6.09375ZM17.9531 20.75L18.9522 20.7059L18.91 19.75H17.9531V20.75ZM20.1094 69.5938H21.1094V69.5717L21.1084 69.5496L20.1094 69.5938ZM20.1094 89V90H21.1094V89H20.1094ZM6.09375 89H5.09375V90H6.09375V89ZM65.9531 20.75V19.75H64.9963L64.9541 20.7059L65.9531 20.75ZM77.8594 20.75H78.8594V19.75H77.8594V20.75ZM77.8594 89V90H78.8594V89H77.8594ZM63.7969 89H62.7969V90H63.7969V89ZM63.7969 69.5938L62.7978 69.5496L62.7969 69.5717V69.5938H63.7969ZM12.5156 21.75H24.4219V19.75H12.5156V21.75ZM23.478 21.0802L41.0092 71.1896L42.897 70.5291L25.3658 20.4198L23.478 21.0802ZM42.897 71.1896L60.4283 21.0802L58.5405 20.4198L41.0092 70.5291L42.897 71.1896ZM59.4844 21.75H71.3906V19.75H59.4844V21.75ZM70.4501 20.4102L45.7939 88.6602L47.6749 89.3398L72.3311 21.0898L70.4501 20.4102ZM46.7344 88H37.1719V90H46.7344V88ZM38.1124 88.6602L13.4561 20.4102L11.5751 21.0898L36.2314 89.3398L38.1124 88.6602ZM6.09375 21.75H17.9531V19.75H6.09375V21.75ZM16.9541 20.7941L19.1103 69.6379L21.1084 69.5496L18.9522 20.7059L16.9541 20.7941ZM19.1094 69.5938V89H21.1094V69.5938H19.1094ZM20.1094 88H6.09375V90H20.1094V88ZM7.09375 89V20.75H5.09375V89H7.09375ZM65.9531 21.75H77.8594V19.75H65.9531V21.75ZM76.8594 20.75V89H78.8594V20.75H76.8594ZM77.8594 88H63.7969V90H77.8594V88ZM64.7969 89V69.5938H62.7969V89H64.7969ZM64.7959 69.6379L66.9522 20.7941L64.9541 20.7059L62.7978 69.5496L64.7959 69.6379ZM135.984 78.0312H136.984V77.0312H135.984V78.0312ZM135.984 89V90H136.984V89H135.984ZM99.6562 89H98.6562V90H99.6562V89ZM99.6562 78.0312V77.0312H98.6562V78.0312H99.6562ZM104.25 20.75H105.25V19.75H104.25V20.75ZM104.25 89V90H105.25V89H104.25ZM90.1875 89H89.1875V90H90.1875V89ZM90.1875 20.75V19.75H89.1875V20.75H90.1875ZM131.25 48.5469H132.25V47.5469H131.25V48.5469ZM131.25 59.2344V60.2344H132.25V59.2344H131.25ZM99.6562 59.2344H98.6562V60.2344H99.6562V59.2344ZM99.6562 48.5469V47.5469H98.6562V48.5469H99.6562ZM135.938 20.75H136.938V19.75H135.938V20.75ZM135.938 31.7656V32.7656H136.938V31.7656H135.938ZM99.6562 31.7656H98.6562V32.7656H99.6562V31.7656ZM99.6562 20.75V19.75H98.6562V20.75H99.6562ZM134.984 78.0312V89H136.984V78.0312H134.984ZM135.984 88H99.6562V90H135.984V88ZM100.656 89V78.0312H98.6562V89H100.656ZM99.6562 79.0312H135.984V77.0312H99.6562V79.0312ZM103.25 20.75V89H105.25V20.75H103.25ZM104.25 88H90.1875V90H104.25V88ZM91.1875 89V20.75H89.1875V89H91.1875ZM90.1875 21.75H104.25V19.75H90.1875V21.75ZM130.25 48.5469V59.2344H132.25V48.5469H130.25ZM131.25 58.2344H99.6562V60.2344H131.25V58.2344ZM100.656 59.2344V48.5469H98.6562V59.2344H100.656ZM99.6562 49.5469H131.25V47.5469H99.6562V49.5469ZM134.938 20.75V31.7656H136.938V20.75H134.938ZM135.938 30.7656H99.6562V32.7656H135.938V30.7656ZM100.656 31.7656V20.75H98.6562V31.7656H100.656ZM99.6562 21.75H135.938V19.75H99.6562V21.75ZM175.641 20.75H176.641V19.75H175.641V20.75ZM175.641 89V90H176.641V89H175.641ZM161.625 89H160.625V90H161.625V89ZM161.625 20.75V19.75H160.625V20.75H161.625ZM196.641 20.75H197.641V19.75H196.641V20.75ZM196.641 31.7656V32.7656H197.641V31.7656H196.641ZM140.953 31.7656H139.953V32.7656H140.953V31.7656ZM140.953 20.75V19.75H139.953V20.75H140.953ZM174.641 20.75V89H176.641V20.75H174.641ZM175.641 88H161.625V90H175.641V88ZM162.625 89V20.75H160.625V89H162.625ZM161.625 21.75H175.641V19.75H161.625V21.75ZM195.641 20.75V31.7656H197.641V20.75H195.641ZM196.641 30.7656H140.953V32.7656H196.641V30.7656ZM141.953 31.7656V20.75H139.953V31.7656H141.953ZM140.953 21.75H196.641V19.75H140.953V21.75ZM227.344 32.4219L228.294 32.7336L228.325 32.6378L228.337 32.5376L227.344 32.4219ZM208.781 89V90H209.506L209.731 89.3117L208.781 89ZM193.828 89L192.891 88.6517L192.39 90H193.828V89ZM219.188 20.75V19.75H218.492L218.25 20.4017L219.188 20.75ZM228.703 20.75L229.696 20.8657L229.826 19.75H228.703V20.75ZM242.766 89L241.816 89.3124L242.042 90H242.766V89ZM224.156 32.4219L223.164 32.5493L223.177 32.6438L223.206 32.7343L224.156 32.4219ZM222.656 20.75V19.75H221.52L221.664 20.8775L222.656 20.75ZM232.266 20.75L233.202 20.4L232.96 19.75H232.266V20.75ZM257.766 89V90H259.207L258.702 88.65L257.766 89ZM241.922 63.5938H242.922V62.5938H241.922V63.5938ZM241.922 74.6094V75.6094H242.922V74.6094H241.922ZM205.875 74.6094H204.875V75.6094H205.875V74.6094ZM205.875 63.5938V62.5938H204.875V63.5938H205.875ZM226.394 32.1101L207.831 88.6883L209.731 89.3117L228.294 32.7336L226.394 32.1101ZM208.781 88H193.828V90H208.781V88ZM194.766 89.3483L220.125 21.0983L218.25 20.4017L192.891 88.6517L194.766 89.3483ZM219.188 21.75H228.703V19.75H219.188V21.75ZM227.71 20.6343L226.35 32.3062L228.337 32.5376L229.696 20.8657L227.71 20.6343ZM243.716 88.6876L225.106 32.1094L223.206 32.7343L241.816 89.3124L243.716 88.6876ZM225.148 32.2944L223.648 20.6225L221.664 20.8775L223.164 32.5493L225.148 32.2944ZM222.656 21.75H232.266V19.75H222.656V21.75ZM231.329 21.1L256.829 89.35L258.702 88.65L233.202 20.4L231.329 21.1ZM257.766 88H242.766V90H257.766V88ZM240.922 63.5938V74.6094H242.922V63.5938H240.922ZM241.922 73.6094H205.875V75.6094H241.922V73.6094ZM206.875 74.6094V63.5938H204.875V74.6094H206.875ZM205.875 64.5938H241.922V62.5938H205.875V64.5938ZM278.203 78.1719L277.23 77.9415L277.2 78.0679L277.203 78.1978L278.203 78.1719ZM291.797 20.75V19.75H291.006L290.824 20.5196L291.797 20.75ZM299.391 20.75L300.375 20.5715L300.226 19.75H299.391V20.75ZM301.125 30.3125L302.096 30.5521L302.147 30.3445L302.109 30.134L301.125 30.3125ZM286.641 89V90H287.424L287.611 89.2396L286.641 89ZM278.484 89L277.485 89.026L277.51 90H278.484V89ZM271.219 20.75L272.2 20.5577L272.042 19.75H271.219V20.75ZM282.469 78.1719L283.465 78.2581L283.477 78.1178L283.45 77.9796L282.469 78.1719ZM281.531 89V90H282.448L282.528 89.0863L281.531 89ZM272.438 89L271.461 89.2166L271.635 90H272.438V89ZM257.297 20.75V19.75H256.051L256.321 20.9666L257.297 20.75ZM313.078 77.9375L312.096 77.7468L312.071 77.8791L312.081 78.0136L313.078 77.9375ZM324.188 20.75V19.75H323.363L323.206 20.5593L324.188 20.75ZM338.109 20.75L339.086 20.9659L339.355 19.75H338.109V20.75ZM323.016 89V90H323.819L323.992 89.2159L323.016 89ZM313.922 89L312.925 89.0761L312.995 90H313.922V89ZM303.656 20.75L304.629 20.519L304.447 19.75H303.656V20.75ZM317.344 78.4062L318.343 78.4416L318.348 78.3067L318.317 78.1753L317.344 78.4062ZM316.969 89V90H317.934L317.968 89.0354L316.969 89ZM308.812 89L307.842 89.2409L308.03 90H308.812V89ZM294.234 30.2656L293.253 30.0723L293.21 30.2906L293.264 30.5065L294.234 30.2656ZM296.109 20.75V19.75H295.287L295.128 20.5567L296.109 20.75ZM279.176 78.4022L292.77 20.9804L290.824 20.5196L277.23 77.9415L279.176 78.4022ZM291.797 21.75H299.391V19.75H291.797V21.75ZM298.407 20.9285L300.141 30.491L302.109 30.134L300.375 20.5715L298.407 20.9285ZM300.154 30.0729L285.67 88.7604L287.611 89.2396L302.096 30.5521L300.154 30.0729ZM286.641 88H278.484V90H286.641V88ZM279.484 88.974L279.203 78.1459L277.203 78.1978L277.485 89.026L279.484 88.974ZM270.237 20.9423L281.487 78.3641L283.45 77.9796L272.2 20.5577L270.237 20.9423ZM281.472 78.0856L280.535 88.9137L282.528 89.0863L283.465 78.2581L281.472 78.0856ZM281.531 88H272.438V90H281.531V88ZM273.414 88.7834L258.273 20.5334L256.321 20.9666L271.461 89.2166L273.414 88.7834ZM257.297 21.75H271.219V19.75H257.297V21.75ZM314.06 78.1282L325.169 20.9407L323.206 20.5593L312.096 77.7468L314.06 78.1282ZM324.188 21.75H338.109V19.75H324.188V21.75ZM337.133 20.5341L322.039 88.7841L323.992 89.2159L339.086 20.9659L337.133 20.5341ZM323.016 88H313.922V90H323.016V88ZM314.919 88.9239L314.075 77.8614L312.081 78.0136L312.925 89.0761L314.919 88.9239ZM302.683 20.981L316.371 78.6372L318.317 78.1753L304.629 20.519L302.683 20.981ZM316.344 78.3709L315.969 88.9646L317.968 89.0354L318.343 78.4416L316.344 78.3709ZM316.969 88H308.812V90H316.969V88ZM309.783 88.7591L295.205 30.0247L293.264 30.5065L307.842 89.2409L309.783 88.7591ZM295.216 30.459L297.091 20.9433L295.128 20.5567L293.253 30.0723L295.216 30.459ZM296.109 21.75H303.656V19.75H296.109V21.75ZM371.438 32.4219L372.388 32.7336L372.419 32.6378L372.431 32.5376L371.438 32.4219ZM352.875 89V90H353.599L353.825 89.3117L352.875 89ZM337.922 89L336.984 88.6517L336.484 90H337.922V89ZM363.281 20.75V19.75H362.586L362.344 20.4017L363.281 20.75ZM372.797 20.75L373.79 20.8657L373.92 19.75H372.797V20.75ZM386.859 89L385.909 89.3124L386.136 90H386.859V89ZM368.25 32.4219L367.258 32.5493L367.27 32.6438L367.3 32.7343L368.25 32.4219ZM366.75 20.75V19.75H365.613L365.758 20.8775L366.75 20.75ZM376.359 20.75L377.296 20.4L377.053 19.75H376.359V20.75ZM401.859 89V90H403.301L402.796 88.65L401.859 89ZM386.016 63.5938H387.016V62.5938H386.016V63.5938ZM386.016 74.6094V75.6094H387.016V74.6094H386.016ZM349.969 74.6094H348.969V75.6094H349.969V74.6094ZM349.969 63.5938V62.5938H348.969V63.5938H349.969ZM370.487 32.1101L351.925 88.6883L353.825 89.3117L372.388 32.7336L370.487 32.1101ZM352.875 88H337.922V90H352.875V88ZM338.859 89.3483L364.219 21.0983L362.344 20.4017L336.984 88.6517L338.859 89.3483ZM363.281 21.75H372.797V19.75H363.281V21.75ZM371.804 20.6343L370.444 32.3062L372.431 32.5376L373.79 20.8657L371.804 20.6343ZM387.809 88.6876L369.2 32.1094L367.3 32.7343L385.909 89.3124L387.809 88.6876ZM369.242 32.2944L367.742 20.6225L365.758 20.8775L367.258 32.5493L369.242 32.2944ZM366.75 21.75H376.359V19.75H366.75V21.75ZM375.423 21.1L400.923 89.35L402.796 88.65L377.296 20.4L375.423 21.1ZM401.859 88H386.859V90H401.859V88ZM385.016 63.5938V74.6094H387.016V63.5938H385.016ZM386.016 73.6094H349.969V75.6094H386.016V73.6094ZM350.969 74.6094V63.5938H348.969V74.6094H350.969ZM349.969 64.5938H386.016V62.5938H349.969V64.5938ZM428.953 74.75L427.995 74.4646L427.977 74.5253L427.966 74.5877L428.953 74.75ZM445.031 20.75V19.75H444.286L444.073 20.4646L445.031 20.75ZM460.688 20.75L461.632 21.0788L462.095 19.75H460.688V20.75ZM436.922 89V90H437.633L437.866 89.3288L436.922 89ZM426.609 89L425.623 88.8377L425.431 90H426.609V89ZM414.141 20.75L415.099 20.4654L414.887 19.75H414.141V20.75ZM430.172 74.75L431.158 74.5814L431.148 74.5226L431.131 74.4654L430.172 74.75ZM432.609 89V90H433.795L433.595 88.8314L432.609 89ZM422.203 89L421.258 89.3271L421.491 90H422.203V89ZM398.578 20.75V19.75H397.174L397.633 21.0771L398.578 20.75ZM429.912 75.0354L445.99 21.0354L444.073 20.4646L427.995 74.4646L429.912 75.0354ZM445.031 21.75H460.688V19.75H445.031V21.75ZM459.743 20.4212L435.977 88.6712L437.866 89.3288L461.632 21.0788L459.743 20.4212ZM436.922 88H426.609V90H436.922V88ZM427.596 89.1623L429.94 74.9123L427.966 74.5877L425.623 88.8377L427.596 89.1623ZM413.182 21.0346L429.213 75.0346L431.131 74.4654L415.099 20.4654L413.182 21.0346ZM429.186 74.9186L431.624 89.1686L433.595 88.8314L431.158 74.5814L429.186 74.9186ZM432.609 88H422.203V90H432.609V88ZM423.148 88.6729L399.523 20.4229L397.633 21.0771L421.258 89.3271L423.148 88.6729ZM398.578 21.75H414.141V19.75H398.578V21.75ZM512.859 78.0312H513.859V77.0312H512.859V78.0312ZM512.859 89V90H513.859V89H512.859ZM476.531 89H475.531V90H476.531V89ZM476.531 78.0312V77.0312H475.531V78.0312H476.531ZM481.125 20.75H482.125V19.75H481.125V20.75ZM481.125 89V90H482.125V89H481.125ZM467.062 89H466.062V90H467.062V89ZM467.062 20.75V19.75H466.062V20.75H467.062ZM508.125 48.5469H509.125V47.5469H508.125V48.5469ZM508.125 59.2344V60.2344H509.125V59.2344H508.125ZM476.531 59.2344H475.531V60.2344H476.531V59.2344ZM476.531 48.5469V47.5469H475.531V48.5469H476.531ZM512.812 20.75H513.812V19.75H512.812V20.75ZM512.812 31.7656V32.7656H513.812V31.7656H512.812ZM476.531 31.7656H475.531V32.7656H476.531V31.7656ZM476.531 20.75V19.75H475.531V20.75H476.531ZM511.859 78.0312V89H513.859V78.0312H511.859ZM512.859 88H476.531V90H512.859V88ZM477.531 89V78.0312H475.531V89H477.531ZM476.531 79.0312H512.859V77.0312H476.531V79.0312ZM480.125 20.75V89H482.125V20.75H480.125ZM481.125 88H467.062V90H481.125V88ZM468.062 89V20.75H466.062V89H468.062ZM467.062 21.75H481.125V19.75H467.062V21.75ZM507.125 48.5469V59.2344H509.125V48.5469H507.125ZM508.125 58.2344H476.531V60.2344H508.125V58.2344ZM477.531 59.2344V48.5469H475.531V59.2344H477.531ZM476.531 49.5469H508.125V47.5469H476.531V49.5469ZM511.812 20.75V31.7656H513.812V20.75H511.812ZM512.812 30.7656H476.531V32.7656H512.812V30.7656ZM477.531 31.7656V20.75H475.531V31.7656H477.531ZM476.531 21.75H512.812V19.75H476.531V21.75Z" fill="black"/>
<path d="M84.625 184.141C84.625 182.922 84.4375 181.828 84.0625 180.859C83.7188 179.859 83.0625 178.953 82.0938 178.141C81.125 177.297 79.7656 176.469 78.0156 175.656C76.2656 174.844 74 174 71.2188 173.125C68.125 172.125 65.1875 171 62.4062 169.75C59.6562 168.5 57.2188 167.047 55.0938 165.391C53 163.703 51.3438 161.75 50.125 159.531C48.9375 157.312 48.3438 154.734 48.3438 151.797C48.3438 148.953 48.9688 146.375 50.2188 144.062C51.4688 141.719 53.2188 139.719 55.4688 138.062C57.7188 136.375 60.375 135.078 63.4375 134.172C66.5312 133.266 69.9219 132.812 73.6094 132.812C78.6406 132.812 83.0312 133.719 86.7812 135.531C90.5312 137.344 93.4375 139.828 95.5 142.984C97.5938 146.141 98.6406 149.75 98.6406 153.812H84.6719C84.6719 151.812 84.25 150.062 83.4062 148.562C82.5938 147.031 81.3438 145.828 79.6562 144.953C78 144.078 75.9062 143.641 73.375 143.641C70.9375 143.641 68.9062 144.016 67.2812 144.766C65.6562 145.484 64.4375 146.469 63.625 147.719C62.8125 148.938 62.4062 150.312 62.4062 151.844C62.4062 153 62.6875 154.047 63.25 154.984C63.8438 155.922 64.7188 156.797 65.875 157.609C67.0312 158.422 68.4531 159.188 70.1406 159.906C71.8281 160.625 73.7812 161.328 76 162.016C79.7188 163.141 82.9844 164.406 85.7969 165.812C88.6406 167.219 91.0156 168.797 92.9219 170.547C94.8281 172.297 96.2656 174.281 97.2344 176.5C98.2031 178.719 98.6875 181.234 98.6875 184.047C98.6875 187.016 98.1094 189.672 96.9531 192.016C95.7969 194.359 94.125 196.344 91.9375 197.969C89.75 199.594 87.1406 200.828 84.1094 201.672C81.0781 202.516 77.6875 202.938 73.9375 202.938C70.5625 202.938 67.2344 202.5 63.9531 201.625C60.6719 200.719 57.6875 199.359 55 197.547C52.3438 195.734 50.2188 193.422 48.625 190.609C47.0312 187.797 46.2344 184.469 46.2344 180.625H60.3438C60.3438 182.75 60.6719 184.547 61.3281 186.016C61.9844 187.484 62.9062 188.672 64.0938 189.578C65.3125 190.484 66.75 191.141 68.4062 191.547C70.0938 191.953 71.9375 192.156 73.9375 192.156C76.375 192.156 78.375 191.812 79.9375 191.125C81.5312 190.438 82.7031 189.484 83.4531 188.266C84.2344 187.047 84.625 185.672 84.625 184.141ZM138.766 133.75V202H124.75V133.75H138.766ZM159.766 133.75V144.766H104.078V133.75H159.766ZM205.469 133.75H219.484V178.844C219.484 184.094 218.359 188.516 216.109 192.109C213.891 195.703 210.812 198.406 206.875 200.219C202.969 202.031 198.469 202.938 193.375 202.938C188.281 202.938 183.75 202.031 179.781 200.219C175.844 198.406 172.75 195.703 170.5 192.109C168.281 188.516 167.172 184.094 167.172 178.844V133.75H181.234V178.844C181.234 181.906 181.719 184.406 182.688 186.344C183.656 188.281 185.047 189.703 186.859 190.609C188.703 191.516 190.875 191.969 193.375 191.969C195.938 191.969 198.109 191.516 199.891 190.609C201.703 189.703 203.078 188.281 204.016 186.344C204.984 184.406 205.469 181.906 205.469 178.844V133.75ZM252.016 202H237.156L237.25 191.031H252.016C255.703 191.031 258.812 190.203 261.344 188.547C263.875 186.859 265.781 184.406 267.062 181.188C268.375 177.969 269.031 174.078 269.031 169.516V166.188C269.031 162.688 268.656 159.609 267.906 156.953C267.188 154.297 266.109 152.062 264.672 150.25C263.234 148.438 261.469 147.078 259.375 146.172C257.281 145.234 254.875 144.766 252.156 144.766H236.875V133.75H252.156C256.719 133.75 260.891 134.531 264.672 136.094C268.484 137.625 271.781 139.828 274.562 142.703C277.344 145.578 279.484 149.016 280.984 153.016C282.516 156.984 283.281 161.406 283.281 166.281V169.516C283.281 174.359 282.516 178.781 280.984 182.781C279.484 186.781 277.344 190.219 274.562 193.094C271.812 195.938 268.516 198.141 264.672 199.703C260.859 201.234 256.641 202 252.016 202ZM245.125 133.75V202H231.062V133.75H245.125ZM308.453 133.75V202H294.438V133.75H308.453ZM377.688 166.281V169.516C377.688 174.703 376.984 179.359 375.578 183.484C374.172 187.609 372.188 191.125 369.625 194.031C367.062 196.906 364 199.109 360.438 200.641C356.906 202.172 352.984 202.938 348.672 202.938C344.391 202.938 340.469 202.172 336.906 200.641C333.375 199.109 330.312 196.906 327.719 194.031C325.125 191.125 323.109 187.609 321.672 183.484C320.266 179.359 319.562 174.703 319.562 169.516V166.281C319.562 161.062 320.266 156.406 321.672 152.312C323.078 148.188 325.062 144.672 327.625 141.766C330.219 138.859 333.281 136.641 336.812 135.109C340.375 133.578 344.297 132.812 348.578 132.812C352.891 132.812 356.812 133.578 360.344 135.109C363.906 136.641 366.969 138.859 369.531 141.766C372.125 144.672 374.125 148.188 375.531 152.312C376.969 156.406 377.688 161.062 377.688 166.281ZM363.484 169.516V166.188C363.484 162.562 363.156 159.375 362.5 156.625C361.844 153.875 360.875 151.562 359.594 149.688C358.312 147.812 356.75 146.406 354.906 145.469C353.062 144.5 350.953 144.016 348.578 144.016C346.203 144.016 344.094 144.5 342.25 145.469C340.438 146.406 338.891 147.812 337.609 149.688C336.359 151.562 335.406 153.875 334.75 156.625C334.094 159.375 333.766 162.562 333.766 166.188V169.516C333.766 173.109 334.094 176.297 334.75 179.078C335.406 181.828 336.375 184.156 337.656 186.062C338.938 187.938 340.5 189.359 342.344 190.328C344.188 191.297 346.297 191.781 348.672 191.781C351.047 191.781 353.156 191.297 355 190.328C356.844 189.359 358.391 187.938 359.641 186.062C360.891 184.156 361.844 181.828 362.5 179.078C363.156 176.297 363.484 173.109 363.484 169.516ZM423.344 184.141C423.344 182.922 423.156 181.828 422.781 180.859C422.438 179.859 421.781 178.953 420.812 178.141C419.844 177.297 418.484 176.469 416.734 175.656C414.984 174.844 412.719 174 409.938 173.125C406.844 172.125 403.906 171 401.125 169.75C398.375 168.5 395.938 167.047 393.812 165.391C391.719 163.703 390.062 161.75 388.844 159.531C387.656 157.312 387.062 154.734 387.062 151.797C387.062 148.953 387.688 146.375 388.938 144.062C390.188 141.719 391.938 139.719 394.188 138.062C396.438 136.375 399.094 135.078 402.156 134.172C405.25 133.266 408.641 132.812 412.328 132.812C417.359 132.812 421.75 133.719 425.5 135.531C429.25 137.344 432.156 139.828 434.219 142.984C436.312 146.141 437.359 149.75 437.359 153.812H423.391C423.391 151.812 422.969 150.062 422.125 148.562C421.312 147.031 420.062 145.828 418.375 144.953C416.719 144.078 414.625 143.641 412.094 143.641C409.656 143.641 407.625 144.016 406 144.766C404.375 145.484 403.156 146.469 402.344 147.719C401.531 148.938 401.125 150.312 401.125 151.844C401.125 153 401.406 154.047 401.969 154.984C402.562 155.922 403.438 156.797 404.594 157.609C405.75 158.422 407.172 159.188 408.859 159.906C410.547 160.625 412.5 161.328 414.719 162.016C418.438 163.141 421.703 164.406 424.516 165.812C427.359 167.219 429.734 168.797 431.641 170.547C433.547 172.297 434.984 174.281 435.953 176.5C436.922 178.719 437.406 181.234 437.406 184.047C437.406 187.016 436.828 189.672 435.672 192.016C434.516 194.359 432.844 196.344 430.656 197.969C428.469 199.594 425.859 200.828 422.828 201.672C419.797 202.516 416.406 202.938 412.656 202.938C409.281 202.938 405.953 202.5 402.672 201.625C399.391 200.719 396.406 199.359 393.719 197.547C391.062 195.734 388.938 193.422 387.344 190.609C385.75 187.797 384.953 184.469 384.953 180.625H399.062C399.062 182.75 399.391 184.547 400.047 186.016C400.703 187.484 401.625 188.672 402.812 189.578C404.031 190.484 405.469 191.141 407.125 191.547C408.812 191.953 410.656 192.156 412.656 192.156C415.094 192.156 417.094 191.812 418.656 191.125C420.25 190.438 421.422 189.484 422.172 188.266C422.953 187.047 423.344 185.672 423.344 184.141Z" fill="black"/>
<path d="M84.0625 180.859L83.1168 181.184L83.123 181.203L83.1299 181.22L84.0625 180.859ZM82.0938 178.141L81.437 178.895L81.444 178.901L81.4511 178.907L82.0938 178.141ZM71.2188 173.125L70.9112 174.077L70.9186 174.079L71.2188 173.125ZM62.4062 169.75L61.9924 170.66L61.9963 170.662L62.4062 169.75ZM55.0938 165.391L54.4662 166.169L54.4726 166.174L54.479 166.179L55.0938 165.391ZM50.125 159.531L49.2433 160.003L49.2485 160.013L50.125 159.531ZM50.2188 144.062L51.0985 144.538L51.1011 144.533L50.2188 144.062ZM55.4688 138.062L56.0616 138.868L56.0688 138.863L55.4688 138.062ZM63.4375 134.172L63.1564 133.212L63.1537 133.213L63.4375 134.172ZM95.5 142.984L94.6629 143.531L94.6667 143.537L95.5 142.984ZM98.6406 153.812V154.812H99.6406V153.812H98.6406ZM84.6719 153.812H83.6719V154.812H84.6719V153.812ZM83.4062 148.562L82.5229 149.031L82.5287 149.042L82.5347 149.053L83.4062 148.562ZM79.6562 144.953L79.1891 145.837L79.1959 145.841L79.6562 144.953ZM67.2812 144.766L67.6858 145.68L67.6931 145.677L67.7003 145.674L67.2812 144.766ZM63.625 147.719L64.4571 148.273L64.4634 148.264L63.625 147.719ZM63.25 154.984L62.3925 155.499L62.3987 155.509L62.4052 155.519L63.25 154.984ZM76 162.016L75.704 162.971L75.7104 162.973L76 162.016ZM85.7969 165.812L85.3497 166.707L85.3536 166.709L85.7969 165.812ZM63.9531 201.625L63.6869 202.589L63.6955 202.591L63.9531 201.625ZM55 197.547L54.4364 198.373L54.4409 198.376L55 197.547ZM46.2344 180.625V179.625H45.2344V180.625H46.2344ZM60.3438 180.625H61.3438V179.625H60.3438V180.625ZM64.0938 189.578L63.487 190.373L63.497 190.381L64.0938 189.578ZM68.4062 191.547L68.168 192.518L68.1722 192.519L68.4062 191.547ZM79.9375 191.125L79.5414 190.207L79.5348 190.21L79.9375 191.125ZM83.4531 188.266L82.6112 187.726L82.6063 187.734L82.6015 187.742L83.4531 188.266ZM85.625 184.141C85.625 182.819 85.4216 181.6 84.9951 180.498L83.1299 181.22C83.4534 182.056 83.625 183.024 83.625 184.141H85.625ZM85.0082 180.534C84.5947 179.332 83.8169 178.281 82.7364 177.374L81.4511 178.907C82.3081 179.626 82.8428 180.387 83.1168 181.184L85.0082 180.534ZM82.7505 177.387C81.6848 176.458 80.2339 175.584 78.4367 174.749L77.5945 176.563C79.2974 177.354 80.5652 178.135 81.437 178.895L82.7505 177.387ZM78.4367 174.749C76.6331 173.912 74.3228 173.053 71.5189 172.171L70.9186 174.079C73.6772 174.947 75.8982 175.776 77.5945 176.563L78.4367 174.749ZM71.5263 172.173C68.4651 171.184 65.5619 170.072 62.8162 168.838L61.9963 170.662C64.8131 171.928 67.7849 173.066 70.9112 174.077L71.5263 172.173ZM62.8201 168.84C60.1331 167.618 57.7646 166.204 55.7085 164.602L54.479 166.179C56.6729 167.889 59.1794 169.382 61.9924 170.66L62.8201 168.84ZM55.7213 164.612C53.7227 163.001 52.1536 161.147 51.0015 159.05L49.2485 160.013C50.5339 162.353 52.2773 164.405 54.4662 166.169L55.7213 164.612ZM51.0067 159.059C49.9089 157.008 49.3438 154.597 49.3438 151.797H47.3438C47.3438 154.871 47.9661 157.617 49.2433 160.003L51.0067 159.059ZM49.3438 151.797C49.3438 149.105 49.9338 146.693 51.0985 144.538L49.339 143.587C48.0037 146.057 47.3438 148.801 47.3438 151.797H49.3438ZM51.1011 144.533C52.2772 142.328 53.9255 140.44 56.0616 138.868L54.8759 137.257C52.512 138.997 50.6603 141.11 49.3364 143.592L51.1011 144.533ZM56.0688 138.863C58.2116 137.255 60.7575 136.008 63.7213 135.131L63.1537 133.213C59.9925 134.148 57.2259 135.495 54.8687 137.262L56.0688 138.863ZM63.7186 135.132C66.709 134.256 70.0036 133.812 73.6094 133.812V131.812C69.8401 131.812 66.3535 132.276 63.1564 133.212L63.7186 135.132ZM73.6094 133.812C78.5208 133.812 82.7571 134.697 86.3461 136.432L87.2164 134.631C83.3054 132.741 78.7605 131.812 73.6094 131.812V133.812ZM86.3461 136.432C89.9501 138.174 92.71 140.543 94.6629 143.531L96.3371 142.437C94.165 139.113 91.1124 136.514 87.2164 134.631L86.3461 136.432ZM94.6667 143.537C96.6437 146.518 97.6406 149.932 97.6406 153.812H99.6406C99.6406 149.568 98.5438 145.764 96.3333 142.432L94.6667 143.537ZM98.6406 152.812H84.6719V154.812H98.6406V152.812ZM85.6719 153.812C85.6719 151.669 85.2185 149.745 84.2778 148.072L82.5347 149.053C83.2815 150.38 83.6719 151.956 83.6719 153.812H85.6719ZM84.2896 148.094C83.3727 146.366 81.9661 145.024 80.1166 144.065L79.1959 145.841C80.7214 146.632 81.8148 147.697 82.5229 149.031L84.2896 148.094ZM80.1234 144.069C78.2816 143.096 76.0144 142.641 73.375 142.641V144.641C75.7981 144.641 77.7184 145.06 79.1891 145.837L80.1234 144.069ZM73.375 142.641C70.8422 142.641 68.6571 143.029 66.8622 143.858L67.7003 145.674C69.1554 145.002 71.0328 144.641 73.375 144.641V142.641ZM66.8767 143.851C65.1089 144.633 63.7236 145.732 62.7866 147.174L64.4634 148.264C65.1514 147.205 66.2036 146.336 67.6858 145.68L66.8767 143.851ZM62.7929 147.164C61.8658 148.555 61.4062 150.125 61.4062 151.844H63.4062C63.4062 150.5 63.7592 149.32 64.4571 148.273L62.7929 147.164ZM61.4062 151.844C61.4062 153.17 61.7313 154.397 62.3925 155.499L64.1075 154.47C63.6437 153.697 63.4062 152.83 63.4062 151.844H61.4062ZM62.4052 155.519C63.0858 156.594 64.0644 157.559 65.3001 158.428L66.4499 156.791C65.3731 156.035 64.6017 155.25 64.0948 154.449L62.4052 155.519ZM65.3001 158.428C66.5276 159.29 68.0148 160.088 69.7488 160.826L70.5325 158.986C68.8915 158.287 67.5349 157.554 66.4499 156.791L65.3001 158.428ZM69.7488 160.826C71.4746 161.561 73.4608 162.276 75.704 162.971L76.296 161.06C74.1017 160.38 72.1817 159.689 70.5325 158.986L69.7488 160.826ZM75.7104 162.973C79.3871 164.085 82.598 165.331 85.3497 166.707L86.2441 164.918C83.3707 163.481 80.0504 162.196 76.2896 161.058L75.7104 162.973ZM85.3536 166.709C88.1309 168.082 90.4227 169.61 92.2456 171.284L93.5981 169.81C91.6085 167.984 89.1504 166.355 86.2401 164.916L85.3536 166.709ZM92.2456 171.284C94.0564 172.946 95.4087 174.818 96.3179 176.9L98.1508 176.1C97.1226 173.745 95.5998 171.648 93.5981 169.81L92.2456 171.284ZM96.3179 176.9C97.2234 178.974 97.6875 181.35 97.6875 184.047H99.6875C99.6875 181.119 99.1829 178.464 98.1508 176.1L96.3179 176.9ZM97.6875 184.047C97.6875 186.883 97.136 189.385 96.0563 191.573L97.8499 192.458C99.0828 189.959 99.6875 187.148 99.6875 184.047H97.6875ZM96.0563 191.573C94.9733 193.769 93.407 195.631 91.3412 197.166L92.5338 198.771C94.843 197.056 96.6205 194.95 97.8499 192.458L96.0563 191.573ZM91.3412 197.166C89.2663 198.707 86.7722 199.893 83.8412 200.708L84.3775 202.635C87.5091 201.764 90.2337 200.48 92.5338 198.771L91.3412 197.166ZM83.8412 200.708C80.9121 201.524 77.6137 201.938 73.9375 201.938V203.938C77.7613 203.938 81.2442 203.507 84.3775 202.635L83.8412 200.708ZM73.9375 201.938C70.65 201.938 67.4085 201.511 64.2108 200.659L63.6955 202.591C67.0602 203.489 70.475 203.938 73.9375 203.938V201.938ZM64.2193 200.661C61.0371 199.782 58.1525 198.467 55.5591 196.718L54.4409 198.376C57.2225 200.252 60.3066 201.655 63.6869 202.589L64.2193 200.661ZM55.5636 196.721C53.0343 194.995 51.0138 192.797 49.495 190.116L47.755 191.102C49.4237 194.047 51.6532 196.474 54.4364 198.373L55.5636 196.721ZM49.495 190.116C48.0013 187.48 47.2344 184.329 47.2344 180.625H45.2344C45.2344 184.609 46.0612 188.113 47.755 191.102L49.495 190.116ZM46.2344 181.625H60.3438V179.625H46.2344V181.625ZM59.3438 180.625C59.3438 182.848 59.6863 184.792 60.4151 186.424L62.2411 185.608C61.6575 184.301 61.3438 182.652 61.3438 180.625H59.3438ZM60.4151 186.424C61.1341 188.033 62.1566 189.358 63.4871 190.373L64.7004 188.783C63.6559 187.986 62.8346 186.936 62.2411 185.608L60.4151 186.424ZM63.497 190.381C64.8352 191.376 66.3981 192.084 68.168 192.518L68.6445 190.576C67.1019 190.197 65.7898 189.593 64.6905 188.776L63.497 190.381ZM68.1722 192.519C69.9469 192.946 71.8703 193.156 73.9375 193.156V191.156C72.0047 191.156 70.2406 190.96 68.6403 190.575L68.1722 192.519ZM73.9375 193.156C76.4588 193.156 78.6087 192.802 80.3402 192.04L79.5348 190.21C78.1413 190.823 76.2912 191.156 73.9375 191.156V193.156ZM80.3336 192.043C82.0752 191.292 83.4259 190.218 84.3048 188.79L82.6015 187.742C81.9804 188.751 80.9873 189.583 79.5414 190.207L80.3336 192.043ZM84.295 188.805C85.1856 187.416 85.625 185.852 85.625 184.141H83.625C83.625 185.492 83.2832 186.678 82.6112 187.726L84.295 188.805ZM138.766 133.75H139.766V132.75H138.766V133.75ZM138.766 202V203H139.766V202H138.766ZM124.75 202H123.75V203H124.75V202ZM124.75 133.75V132.75H123.75V133.75H124.75ZM159.766 133.75H160.766V132.75H159.766V133.75ZM159.766 144.766V145.766H160.766V144.766H159.766ZM104.078 144.766H103.078V145.766H104.078V144.766ZM104.078 133.75V132.75H103.078V133.75H104.078ZM137.766 133.75V202H139.766V133.75H137.766ZM138.766 201H124.75V203H138.766V201ZM125.75 202V133.75H123.75V202H125.75ZM124.75 134.75H138.766V132.75H124.75V134.75ZM158.766 133.75V144.766H160.766V133.75H158.766ZM159.766 143.766H104.078V145.766H159.766V143.766ZM105.078 144.766V133.75H103.078V144.766H105.078ZM104.078 134.75H159.766V132.75H104.078V134.75ZM205.469 133.75V132.75H204.469V133.75H205.469ZM219.484 133.75H220.484V132.75H219.484V133.75ZM216.109 192.109L215.262 191.579L215.258 191.584L216.109 192.109ZM206.875 200.219L206.457 199.31L206.454 199.312L206.875 200.219ZM179.781 200.219L179.363 201.127L179.366 201.128L179.781 200.219ZM170.5 192.109L169.649 192.635L169.652 192.64L170.5 192.109ZM167.172 133.75V132.75H166.172V133.75H167.172ZM181.234 133.75H182.234V132.75H181.234V133.75ZM186.859 190.609L186.412 191.504L186.418 191.507L186.859 190.609ZM199.891 190.609L199.443 189.715L199.437 189.718L199.891 190.609ZM204.016 186.344L203.121 185.896L203.115 185.908L204.016 186.344ZM205.469 134.75H219.484V132.75H205.469V134.75ZM218.484 133.75V178.844H220.484V133.75H218.484ZM218.484 178.844C218.484 183.951 217.391 188.178 215.262 191.579L216.957 192.64C219.328 188.853 220.484 184.237 220.484 178.844H218.484ZM215.258 191.584C213.146 195.006 210.221 197.578 206.457 199.31L207.293 201.127C211.404 199.235 214.635 196.401 216.96 192.635L215.258 191.584ZM206.454 199.312C202.702 201.053 198.35 201.938 193.375 201.938V203.938C198.588 203.938 203.236 203.01 207.296 201.126L206.454 199.312ZM193.375 201.938C188.401 201.938 184.015 201.053 180.197 199.309L179.366 201.128C183.485 203.01 188.162 203.938 193.375 203.938V201.938ZM180.199 199.31C176.435 197.577 173.492 195.004 171.348 191.579L169.652 192.64C172.008 196.403 175.253 199.235 179.363 201.127L180.199 199.31ZM171.351 191.584C169.251 188.182 168.172 183.953 168.172 178.844H166.172C166.172 184.234 167.312 188.849 169.649 192.635L171.351 191.584ZM168.172 178.844V133.75H166.172V178.844H168.172ZM167.172 134.75H181.234V132.75H167.172V134.75ZM180.234 133.75V178.844H182.234V133.75H180.234ZM180.234 178.844C180.234 182.001 180.732 184.669 181.793 186.791L183.582 185.897C182.705 184.143 182.234 181.811 182.234 178.844H180.234ZM181.793 186.791C182.851 188.908 184.392 190.494 186.412 191.504L187.307 189.715C185.701 188.912 184.461 187.655 183.582 185.897L181.793 186.791ZM186.418 191.507C188.426 192.494 190.755 192.969 193.375 192.969V190.969C190.995 190.969 188.98 190.538 187.3 189.712L186.418 191.507ZM193.375 192.969C196.052 192.969 198.388 192.496 200.344 191.501L199.437 189.718C197.83 190.536 195.823 190.969 193.375 190.969V192.969ZM200.338 191.504C202.361 190.492 203.888 188.902 204.916 186.779L203.115 185.908C202.268 187.66 201.046 188.914 199.443 189.715L200.338 191.504ZM204.91 186.791C205.971 184.669 206.469 182.001 206.469 178.844H204.469C204.469 181.811 203.998 184.143 203.121 185.897L204.91 186.791ZM206.469 178.844V133.75H204.469V178.844H206.469ZM237.156 202L236.156 201.991L236.148 203H237.156V202ZM237.25 191.031V190.031H236.259L236.25 191.023L237.25 191.031ZM261.344 188.547L261.891 189.384L261.898 189.379L261.344 188.547ZM267.062 181.188L266.136 180.81L266.133 180.818L267.062 181.188ZM267.906 156.953L266.941 157.214L266.944 157.225L267.906 156.953ZM259.375 146.172L258.966 147.085L258.978 147.09L259.375 146.172ZM236.875 144.766H235.875V145.766H236.875V144.766ZM236.875 133.75V132.75H235.875V133.75H236.875ZM264.672 136.094L264.29 137.018L264.299 137.022L264.672 136.094ZM280.984 153.016L280.048 153.367L280.051 153.376L280.984 153.016ZM280.984 182.781L280.05 182.424L280.048 182.43L280.984 182.781ZM274.562 193.094L273.844 192.398L273.844 192.399L274.562 193.094ZM264.672 199.703L265.045 200.631L265.048 200.63L264.672 199.703ZM245.125 133.75H246.125V132.75H245.125V133.75ZM245.125 202V203H246.125V202H245.125ZM231.062 202H230.062V203H231.062V202ZM231.062 133.75V132.75H230.062V133.75H231.062ZM252.016 201H237.156V203H252.016V201ZM238.156 202.009L238.25 191.04L236.25 191.023L236.156 201.991L238.156 202.009ZM237.25 192.031H252.016V190.031H237.25V192.031ZM252.016 192.031C255.855 192.031 259.165 191.168 261.891 189.384L260.796 187.71C258.46 189.239 255.552 190.031 252.016 190.031V192.031ZM261.898 189.379C264.621 187.564 266.646 184.937 267.992 181.557L266.133 180.818C264.916 183.875 263.129 186.155 260.789 187.715L261.898 189.379ZM267.988 181.565C269.363 178.195 270.031 174.169 270.031 169.516H268.031C268.031 173.987 267.387 177.742 266.137 180.81L267.988 181.565ZM270.031 169.516V166.188H268.031V169.516H270.031ZM270.031 166.188C270.031 162.619 269.649 159.446 268.869 156.681L266.944 157.225C267.663 159.773 268.031 162.756 268.031 166.188H270.031ZM268.872 156.692C268.124 153.929 266.992 151.566 265.455 149.629L263.888 150.871C265.227 152.559 266.251 154.665 266.941 157.214L268.872 156.692ZM265.455 149.629C263.917 147.689 262.019 146.227 259.772 145.254L258.978 147.09C260.918 147.929 262.552 149.186 263.888 150.871L265.455 149.629ZM259.784 145.259C257.54 144.254 254.99 143.766 252.156 143.766V145.766C254.76 145.766 257.023 146.214 258.966 147.085L259.784 145.259ZM252.156 143.766H236.875V145.766H252.156V143.766ZM237.875 144.766V133.75H235.875V144.766H237.875ZM236.875 134.75H252.156V132.75H236.875V134.75ZM252.156 134.75C256.603 134.75 260.643 135.511 264.29 137.018L265.054 135.17C261.138 133.552 256.835 132.75 252.156 132.75V134.75ZM264.299 137.022C267.985 138.502 271.163 140.627 273.844 143.398L275.281 142.008C272.4 139.029 268.984 136.748 265.045 135.166L264.299 137.022ZM273.844 143.398C276.523 146.168 278.593 149.486 280.048 153.367L281.921 152.665C280.376 148.545 278.164 144.988 275.281 142.008L273.844 143.398ZM280.051 153.376C281.532 157.214 282.281 161.512 282.281 166.281H284.281C284.281 161.301 283.499 156.755 281.917 152.656L280.051 153.376ZM282.281 166.281V169.516H284.281V166.281H282.281ZM282.281 169.516C282.281 174.253 281.533 178.552 280.05 182.424L281.918 183.139C283.499 179.011 284.281 174.466 284.281 169.516H282.281ZM280.048 182.43C278.593 186.311 276.523 189.629 273.844 192.398L275.281 193.789C278.164 190.809 280.376 187.252 281.921 183.132L280.048 182.43ZM273.844 192.399C271.195 195.137 268.017 197.264 264.295 198.777L265.048 200.63C269.015 199.017 272.43 196.738 275.281 193.789L273.844 192.399ZM264.299 198.775C260.619 200.253 256.529 201 252.016 201V203C256.752 203 261.1 202.216 265.045 200.631L264.299 198.775ZM244.125 133.75V202H246.125V133.75H244.125ZM245.125 201H231.062V203H245.125V201ZM232.062 202V133.75H230.062V202H232.062ZM231.062 134.75H245.125V132.75H231.062V134.75ZM308.453 133.75H309.453V132.75H308.453V133.75ZM308.453 202V203H309.453V202H308.453ZM294.438 202H293.438V203H294.438V202ZM294.438 133.75V132.75H293.438V133.75H294.438ZM307.453 133.75V202H309.453V133.75H307.453ZM308.453 201H294.438V203H308.453V201ZM295.438 202V133.75H293.438V202H295.438ZM294.438 134.75H308.453V132.75H294.438V134.75ZM369.625 194.031L370.372 194.697L370.375 194.693L369.625 194.031ZM360.438 200.641L360.043 199.722L360.04 199.723L360.438 200.641ZM336.906 200.641L336.508 201.558L336.511 201.559L336.906 200.641ZM327.719 194.031L326.973 194.697L326.976 194.701L327.719 194.031ZM321.672 183.484L320.725 183.807L320.728 183.813L321.672 183.484ZM321.672 152.312L322.618 152.637L322.618 152.635L321.672 152.312ZM327.625 141.766L326.879 141.1L326.875 141.104L327.625 141.766ZM336.812 135.109L336.418 134.191L336.415 134.192L336.812 135.109ZM360.344 135.109L359.946 136.027L359.949 136.028L360.344 135.109ZM369.531 141.766L368.781 142.427L368.785 142.431L369.531 141.766ZM375.531 152.312L374.585 152.635L374.588 152.644L375.531 152.312ZM354.906 145.469L354.441 146.354L354.453 146.36L354.906 145.469ZM342.25 145.469L342.709 146.357L342.715 146.354L342.25 145.469ZM337.609 149.688L336.784 149.123L336.777 149.133L337.609 149.688ZM334.75 179.078L333.777 179.308L333.777 179.31L334.75 179.078ZM337.656 186.062L336.826 186.62L336.831 186.627L337.656 186.062ZM359.641 186.062L360.473 186.617L360.477 186.611L359.641 186.062ZM362.5 179.078L363.473 179.31L363.473 179.308L362.5 179.078ZM376.688 166.281V169.516H378.688V166.281H376.688ZM376.688 169.516C376.688 174.614 375.996 179.158 374.632 183.162L376.525 183.807C377.972 179.561 378.688 174.793 378.688 169.516H376.688ZM374.632 183.162C373.263 187.177 371.34 190.574 368.875 193.37L370.375 194.693C373.035 191.676 375.081 188.041 376.525 183.807L374.632 183.162ZM368.878 193.366C366.414 196.131 363.472 198.248 360.043 199.722L360.832 201.559C364.528 199.971 367.711 197.682 370.372 194.697L368.878 193.366ZM360.04 199.723C356.648 201.194 352.864 201.938 348.672 201.938V203.938C353.105 203.938 357.164 203.15 360.835 201.558L360.04 199.723ZM348.672 201.938C344.512 201.938 340.726 201.194 337.301 199.722L336.511 201.559C340.211 203.15 344.269 203.938 348.672 203.938V201.938ZM337.304 199.723C333.905 198.249 330.96 196.131 328.461 193.361L326.976 194.701C329.665 197.682 332.845 199.97 336.508 201.558L337.304 199.723ZM328.465 193.365C325.969 190.569 324.016 187.171 322.616 183.155L320.728 183.813C322.203 188.048 324.281 191.681 326.973 194.697L328.465 193.365ZM322.618 183.162C321.254 179.158 320.562 174.614 320.562 169.516H318.562C318.562 174.793 319.278 179.561 320.725 183.807L322.618 183.162ZM320.562 169.516V166.281H318.562V169.516H320.562ZM320.562 166.281C320.562 161.151 321.254 156.608 322.618 152.637L320.726 151.988C319.277 156.205 318.562 160.974 318.562 166.281H320.562ZM322.618 152.635C323.987 148.619 325.91 145.223 328.375 142.427L326.875 141.104C324.215 144.121 322.169 147.756 320.725 151.99L322.618 152.635ZM328.371 142.431C330.87 139.632 333.814 137.5 337.21 136.027L336.415 134.192C332.749 135.782 329.568 138.087 326.879 141.1L328.371 142.431ZM337.207 136.028C340.633 134.556 344.418 133.812 348.578 133.812V131.812C344.175 131.812 340.117 132.6 336.418 134.191L337.207 136.028ZM348.578 133.812C352.77 133.812 356.555 134.556 359.946 136.027L360.742 134.192C357.07 132.6 353.011 131.812 348.578 131.812V133.812ZM359.949 136.028C363.375 137.501 366.317 139.632 368.781 142.427L370.281 141.104C367.621 138.087 364.437 135.78 360.739 134.191L359.949 136.028ZM368.785 142.431C371.28 145.227 373.217 148.622 374.585 152.635L376.478 151.99C375.033 147.753 372.97 144.117 370.277 141.1L368.785 142.431ZM374.588 152.644C375.981 156.612 376.688 161.153 376.688 166.281H378.688C378.688 160.972 377.956 156.201 376.475 151.981L374.588 152.644ZM364.484 169.516V166.188H362.484V169.516H364.484ZM364.484 166.188C364.484 162.505 364.151 159.237 363.473 156.393L361.527 156.857C362.161 159.513 362.484 162.62 362.484 166.188H364.484ZM363.473 156.393C362.795 153.552 361.784 151.12 360.419 149.123L358.768 150.252C359.966 152.005 360.893 154.198 361.527 156.857L363.473 156.393ZM360.419 149.123C359.053 147.124 357.367 145.598 355.359 144.577L354.453 146.36C356.133 147.214 357.572 148.501 358.768 150.252L360.419 149.123ZM355.371 144.584C353.365 143.529 351.092 143.016 348.578 143.016V145.016C350.814 145.016 352.76 145.471 354.441 146.354L355.371 144.584ZM348.578 143.016C346.064 143.016 343.791 143.529 341.785 144.584L342.715 146.354C344.396 145.471 346.342 145.016 348.578 145.016V143.016ZM341.791 144.581C339.815 145.602 338.148 147.127 336.784 149.123L338.435 150.252C339.634 148.498 341.06 147.21 342.709 146.357L341.791 144.581ZM336.777 149.133C335.447 151.128 334.454 153.556 333.777 156.393L335.723 156.857C336.358 154.194 337.271 151.997 338.441 150.242L336.777 149.133ZM333.777 156.393C333.099 159.237 332.766 162.505 332.766 166.188H334.766C334.766 162.62 335.089 159.513 335.723 156.857L333.777 156.393ZM332.766 166.188V169.516H334.766V166.188H332.766ZM332.766 169.516C332.766 173.168 333.099 176.435 333.777 179.308L335.723 178.848C335.089 176.159 334.766 173.051 334.766 169.516H332.766ZM333.777 179.31C334.455 182.151 335.465 184.595 336.826 186.62L338.486 185.505C337.285 183.718 336.357 181.506 335.723 178.846L333.777 179.31ZM336.831 186.627C338.195 188.624 339.877 190.162 341.879 191.213L342.809 189.443C341.123 188.557 339.68 187.251 338.482 185.498L336.831 186.627ZM341.879 191.213C343.885 192.267 346.158 192.781 348.672 192.781V190.781C346.436 190.781 344.49 190.326 342.809 189.443L341.879 191.213ZM348.672 192.781C351.186 192.781 353.459 192.267 355.465 191.213L354.535 189.443C352.854 190.326 350.908 190.781 348.672 190.781V192.781ZM355.465 191.213C357.469 190.161 359.138 188.62 360.473 186.617L358.809 185.508C357.644 187.255 356.219 188.558 354.535 189.443L355.465 191.213ZM360.477 186.611C361.803 184.588 362.796 182.147 363.473 179.31L361.527 178.846C360.892 181.509 359.978 183.725 358.804 185.514L360.477 186.611ZM363.473 179.308C364.151 176.435 364.484 173.168 364.484 169.516H362.484C362.484 173.051 362.161 176.159 361.527 178.848L363.473 179.308ZM422.781 180.859L421.836 181.184L421.842 181.203L421.849 181.22L422.781 180.859ZM420.812 178.141L420.156 178.895L420.163 178.901L420.17 178.907L420.812 178.141ZM409.938 173.125L409.63 174.077L409.637 174.079L409.938 173.125ZM401.125 169.75L400.711 170.66L400.715 170.662L401.125 169.75ZM393.812 165.391L393.185 166.169L393.191 166.174L393.198 166.179L393.812 165.391ZM388.844 159.531L387.962 160.003L387.967 160.013L388.844 159.531ZM388.938 144.062L389.817 144.538L389.82 144.533L388.938 144.062ZM394.188 138.062L394.78 138.868L394.788 138.863L394.188 138.062ZM402.156 134.172L401.875 133.212L401.872 133.213L402.156 134.172ZM434.219 142.984L433.382 143.531L433.385 143.537L434.219 142.984ZM437.359 153.812V154.812H438.359V153.812H437.359ZM423.391 153.812H422.391V154.812H423.391V153.812ZM422.125 148.562L421.242 149.031L421.247 149.042L421.253 149.053L422.125 148.562ZM418.375 144.953L417.908 145.837L417.915 145.841L418.375 144.953ZM406 144.766L406.405 145.68L406.412 145.677L406.419 145.674L406 144.766ZM402.344 147.719L403.176 148.273L403.182 148.264L402.344 147.719ZM401.969 154.984L401.111 155.499L401.117 155.509L401.124 155.519L401.969 154.984ZM414.719 162.016L414.423 162.971L414.429 162.973L414.719 162.016ZM424.516 165.812L424.068 166.707L424.072 166.709L424.516 165.812ZM402.672 201.625L402.406 202.589L402.414 202.591L402.672 201.625ZM393.719 197.547L393.155 198.373L393.16 198.376L393.719 197.547ZM384.953 180.625V179.625H383.953V180.625H384.953ZM399.062 180.625H400.062V179.625H399.062V180.625ZM402.812 189.578L402.206 190.373L402.216 190.381L402.812 189.578ZM407.125 191.547L406.887 192.518L406.891 192.519L407.125 191.547ZM418.656 191.125L418.26 190.207L418.254 190.21L418.656 191.125ZM422.172 188.266L421.33 187.726L421.325 187.734L421.32 187.742L422.172 188.266ZM424.344 184.141C424.344 182.819 424.14 181.6 423.714 180.498L421.849 181.22C422.172 182.056 422.344 183.024 422.344 184.141H424.344ZM423.727 180.534C423.313 179.332 422.536 178.281 421.455 177.374L420.17 178.907C421.027 179.626 421.562 180.387 421.836 181.184L423.727 180.534ZM421.469 177.387C420.404 176.458 418.953 175.584 417.155 174.749L416.313 176.563C418.016 177.354 419.284 178.135 420.156 178.895L421.469 177.387ZM417.155 174.749C415.352 173.912 413.042 173.053 410.238 172.171L409.637 174.079C412.396 174.947 414.617 175.776 416.313 176.563L417.155 174.749ZM410.245 172.173C407.184 171.184 404.281 170.072 401.535 168.838L400.715 170.662C403.532 171.928 406.504 173.066 409.63 174.077L410.245 172.173ZM401.539 168.84C398.852 167.618 396.483 166.204 394.427 164.602L393.198 166.179C395.392 167.889 397.898 169.382 400.711 170.66L401.539 168.84ZM394.44 164.612C392.441 163.001 390.872 161.147 389.72 159.05L387.967 160.013C389.253 162.353 390.996 164.405 393.185 166.169L394.44 164.612ZM389.725 159.059C388.628 157.008 388.062 154.597 388.062 151.797H386.062C386.062 154.871 386.685 157.617 387.962 160.003L389.725 159.059ZM388.062 151.797C388.062 149.105 388.653 146.693 389.817 144.538L388.058 143.587C386.722 146.057 386.062 148.801 386.062 151.797H388.062ZM389.82 144.533C390.996 142.328 392.644 140.44 394.78 138.868L393.595 137.257C391.231 138.997 389.379 141.11 388.055 143.592L389.82 144.533ZM394.788 138.863C396.93 137.255 399.476 136.008 402.44 135.131L401.872 133.213C398.711 134.148 395.945 135.495 393.587 137.262L394.788 138.863ZM402.437 135.132C405.428 134.256 408.722 133.812 412.328 133.812V131.812C408.559 131.812 405.072 132.276 401.875 133.212L402.437 135.132ZM412.328 133.812C417.24 133.812 421.476 134.697 425.065 136.432L425.935 134.631C422.024 132.741 417.479 131.812 412.328 131.812V133.812ZM425.065 136.432C428.669 138.174 431.429 140.543 433.382 143.531L435.056 142.437C432.884 139.113 429.831 136.514 425.935 134.631L425.065 136.432ZM433.385 143.537C435.362 146.518 436.359 149.932 436.359 153.812H438.359C438.359 149.568 437.263 145.764 435.052 142.432L433.385 143.537ZM437.359 152.812H423.391V154.812H437.359V152.812ZM424.391 153.812C424.391 151.669 423.937 149.745 422.997 148.072L421.253 149.053C422 150.38 422.391 151.956 422.391 153.812H424.391ZM423.008 148.094C422.091 146.366 420.685 145.024 418.835 144.065L417.915 145.841C419.44 146.632 420.534 147.697 421.242 149.031L423.008 148.094ZM418.842 144.069C417 143.096 414.733 142.641 412.094 142.641V144.641C414.517 144.641 416.437 145.06 417.908 145.837L418.842 144.069ZM412.094 142.641C409.561 142.641 407.376 143.029 405.581 143.858L406.419 145.674C407.874 145.002 409.752 144.641 412.094 144.641V142.641ZM405.595 143.851C403.828 144.633 402.442 145.732 401.505 147.174L403.182 148.264C403.87 147.205 404.922 146.336 406.405 145.68L405.595 143.851ZM401.512 147.164C400.585 148.555 400.125 150.125 400.125 151.844H402.125C402.125 150.5 402.478 149.32 403.176 148.273L401.512 147.164ZM400.125 151.844C400.125 153.17 400.45 154.397 401.111 155.499L402.826 154.47C402.362 153.697 402.125 152.83 402.125 151.844H400.125ZM401.124 155.519C401.805 156.594 402.783 157.559 404.019 158.428L405.169 156.791C404.092 156.035 403.32 155.25 402.814 154.449L401.124 155.519ZM404.019 158.428C405.246 159.29 406.734 160.088 408.468 160.826L409.251 158.986C407.61 158.287 406.254 157.554 405.169 156.791L404.019 158.428ZM408.468 160.826C410.193 161.561 412.18 162.276 414.423 162.971L415.015 161.06C412.82 160.38 410.9 159.689 409.251 158.986L408.468 160.826ZM414.429 162.973C418.106 164.085 421.317 165.331 424.068 166.707L424.963 164.918C422.089 163.481 418.769 162.196 415.008 161.058L414.429 162.973ZM424.072 166.709C426.85 168.082 429.141 169.61 430.964 171.284L432.317 169.81C430.327 167.984 427.869 166.355 424.959 164.916L424.072 166.709ZM430.964 171.284C432.775 172.946 434.127 174.818 435.037 176.9L436.87 176.1C435.841 173.745 434.319 171.648 432.317 169.81L430.964 171.284ZM435.037 176.9C435.942 178.974 436.406 181.35 436.406 184.047H438.406C438.406 181.119 437.902 178.464 436.87 176.1L435.037 176.9ZM436.406 184.047C436.406 186.883 435.855 189.385 434.775 191.573L436.569 192.458C437.802 189.959 438.406 187.148 438.406 184.047H436.406ZM434.775 191.573C433.692 193.769 432.126 195.631 430.06 197.166L431.253 198.771C433.562 197.056 435.339 194.95 436.569 192.458L434.775 191.573ZM430.06 197.166C427.985 198.707 425.491 199.893 422.56 200.708L423.096 202.635C426.228 201.764 428.952 200.48 431.253 198.771L430.06 197.166ZM422.56 200.708C419.631 201.524 416.332 201.938 412.656 201.938V203.938C416.48 203.938 419.963 203.507 423.096 202.635L422.56 200.708ZM412.656 201.938C409.369 201.938 406.127 201.511 402.93 200.659L402.414 202.591C405.779 203.489 409.194 203.938 412.656 203.938V201.938ZM402.938 200.661C399.756 199.782 396.871 198.467 394.278 196.718L393.16 198.376C395.941 200.252 399.025 201.655 402.406 202.589L402.938 200.661ZM394.282 196.721C391.753 194.995 389.733 192.797 388.214 190.116L386.474 191.102C388.142 194.047 390.372 196.474 393.155 198.373L394.282 196.721ZM388.214 190.116C386.72 187.48 385.953 184.329 385.953 180.625H383.953C383.953 184.609 384.78 188.113 386.474 191.102L388.214 190.116ZM384.953 181.625H399.062V179.625H384.953V181.625ZM398.062 180.625C398.062 182.848 398.405 184.792 399.134 186.424L400.96 185.608C400.376 184.301 400.062 182.652 400.062 180.625H398.062ZM399.134 186.424C399.853 188.033 400.875 189.358 402.206 190.373L403.419 188.783C402.375 187.986 401.553 186.936 400.96 185.608L399.134 186.424ZM402.216 190.381C403.554 191.376 405.117 192.084 406.887 192.518L407.363 190.576C405.821 190.197 404.509 189.593 403.409 188.776L402.216 190.381ZM406.891 192.519C408.666 192.946 410.589 193.156 412.656 193.156V191.156C410.723 191.156 408.959 190.96 407.359 190.575L406.891 192.519ZM412.656 193.156C415.178 193.156 417.327 192.802 419.059 192.04L418.254 190.21C416.86 190.823 415.01 191.156 412.656 191.156V193.156ZM419.052 192.043C420.794 191.292 422.145 190.218 423.024 188.79L421.32 187.742C420.699 188.751 419.706 189.583 418.26 190.207L419.052 192.043ZM423.014 188.805C423.904 187.416 424.344 185.852 424.344 184.141H422.344C422.344 185.492 422.002 186.678 421.33 187.726L423.014 188.805Z" fill="black"/>
<path d="M468 202L468 185.923L470.502 164L489.497 164L492 185.923L492 202L468 202Z" fill="black"/>
<path d="M479.999 123C470.013 123 462 131.014 462 141C462 150.986 470.136 159 479.999 159C489.985 159 497.999 150.986 497.999 141C498.123 131.014 489.985 123 479.999 123Z" fill="#0C08E1"/>
</svg>
