<svg width="601" height="213" viewBox="0 0 601 213" fill="none" xmlns="http://www.w3.org/2000/svg">
<path d="M10.7812 20.75H19.5469L41.9062 76.3906L64.2188 20.75H73.0312L45.2812 89H38.4375L10.7812 20.75ZM7.92188 20.75H15.6562L16.9219 62.375V89H7.92188V20.75ZM68.1094 20.75H75.8438V89H66.8438V62.375L68.1094 20.75ZM148.054 81.6406V89H111.913V81.6406H148.054ZM113.741 20.75V89H104.694V20.75H113.741ZM143.272 50.0938V57.4531H111.913V50.0938H143.272ZM147.585 20.75V28.1562H111.913V20.75H147.585ZM198.373 20.75V89H189.467V20.75H198.373ZM220.311 20.75V28.1562H167.576V20.75H220.311ZM264.911 26.7969L242.318 89H233.083L259.099 20.75H265.052L264.911 26.7969ZM283.849 89L261.208 26.7969L261.068 20.75H267.021L293.13 89H283.849ZM282.677 63.7344V71.1406H244.333V63.7344H282.677ZM329.902 68.375L343.449 20.75H350.012L346.215 39.2656L331.637 89H325.121L329.902 68.375ZM315.887 20.75L326.668 67.4375L329.902 89H323.434L306.887 20.75H315.887ZM367.543 67.3906L378.09 20.75H387.137L370.637 89H364.168L367.543 67.3906ZM350.996 20.75L364.168 68.375L368.949 89H362.434L348.371 39.2656L344.527 20.75H350.996ZM433.331 26.7969L410.737 89H401.503L427.519 20.75H433.472L433.331 26.7969ZM452.269 89L429.628 26.7969L429.487 20.75H435.441L461.55 89H452.269ZM451.097 63.7344V71.1406H412.753V63.7344H451.097ZM501.557 78.6406L521.666 20.75H531.463L506.198 89H499.213L501.557 78.6406ZM482.76 20.75L502.682 78.6406L505.166 89H498.182L472.963 20.75H482.76ZM596.97 81.6406V89H560.829V81.6406H596.97ZM562.657 20.75V89H553.611V20.75H562.657ZM592.189 50.0938V57.4531H560.829V50.0938H592.189ZM596.501 20.75V28.1562H560.829V20.75H596.501Z" fill="black"/>
<path d="M10.7812 20.75V19.75H9.29705L9.85445 21.1256L10.7812 20.75ZM19.5469 20.75L20.4748 20.3771L20.2227 19.75H19.5469V20.75ZM41.9062 76.3906L40.9784 76.7635L41.9072 79.0749L42.8344 76.7628L41.9062 76.3906ZM64.2188 20.75V19.75H63.5424L63.2906 20.3778L64.2188 20.75ZM73.0312 20.75L73.9576 21.1267L74.5173 19.75H73.0312V20.75ZM45.2812 89V90H45.9542L46.2076 89.3767L45.2812 89ZM38.4375 89L37.5107 89.3756L37.7637 90H38.4375V89ZM7.92188 20.75V19.75H6.92188V20.75H7.92188ZM15.6562 20.75L16.6558 20.7196L16.6263 19.75H15.6562V20.75ZM16.9219 62.375H17.9219V62.3598L17.9214 62.3446L16.9219 62.375ZM16.9219 89V90H17.9219V89H16.9219ZM7.92188 89H6.92188V90H7.92188V89ZM68.1094 20.75V19.75H67.1393L67.1098 20.7196L68.1094 20.75ZM75.8438 20.75H76.8438V19.75H75.8438V20.75ZM75.8438 89V90H76.8438V89H75.8438ZM66.8438 89H65.8438V90H66.8438V89ZM66.8438 62.375L65.8442 62.3446L65.8438 62.3598V62.375H66.8438ZM10.7812 21.75H19.5469V19.75H10.7812V21.75ZM18.619 21.1229L40.9784 76.7635L42.8341 76.0178L20.4748 20.3771L18.619 21.1229ZM42.8344 76.7628L65.1469 21.1222L63.2906 20.3778L40.9781 76.0184L42.8344 76.7628ZM64.2188 21.75H73.0312V19.75H64.2188V21.75ZM72.1049 20.3733L44.3549 88.6233L46.2076 89.3767L73.9576 21.1267L72.1049 20.3733ZM45.2812 88H38.4375V90H45.2812V88ZM39.3643 88.6244L11.708 20.3744L9.85445 21.1256L37.5107 89.3756L39.3643 88.6244ZM7.92188 21.75H15.6562V19.75H7.92188V21.75ZM14.6567 20.7804L15.9223 62.4054L17.9214 62.3446L16.6558 20.7196L14.6567 20.7804ZM15.9219 62.375V89H17.9219V62.375H15.9219ZM16.9219 88H7.92188V90H16.9219V88ZM8.92188 89V20.75H6.92188V89H8.92188ZM68.1094 21.75H75.8438V19.75H68.1094V21.75ZM74.8438 20.75V89H76.8438V20.75H74.8438ZM75.8438 88H66.8438V90H75.8438V88ZM67.8438 89V62.375H65.8438V89H67.8438ZM67.8433 62.4054L69.1089 20.7804L67.1098 20.7196L65.8442 62.3446L67.8433 62.4054ZM148.054 81.6406H149.054V80.6406H148.054V81.6406ZM148.054 89V90H149.054V89H148.054ZM111.913 89H110.913V90H111.913V89ZM111.913 81.6406V80.6406H110.913V81.6406H111.913ZM113.741 20.75H114.741V19.75H113.741V20.75ZM113.741 89V90H114.741V89H113.741ZM104.694 89H103.694V90H104.694V89ZM104.694 20.75V19.75H103.694V20.75H104.694ZM143.272 50.0938H144.272V49.0938H143.272V50.0938ZM143.272 57.4531V58.4531H144.272V57.4531H143.272ZM111.913 57.4531H110.913V58.4531H111.913V57.4531ZM111.913 50.0938V49.0938H110.913V50.0938H111.913ZM147.585 20.75H148.585V19.75H147.585V20.75ZM147.585 28.1562V29.1562H148.585V28.1562H147.585ZM111.913 28.1562H110.913V29.1562H111.913V28.1562ZM111.913 20.75V19.75H110.913V20.75H111.913ZM147.054 81.6406V89H149.054V81.6406H147.054ZM148.054 88H111.913V90H148.054V88ZM112.913 89V81.6406H110.913V89H112.913ZM111.913 82.6406H148.054V80.6406H111.913V82.6406ZM112.741 20.75V89H114.741V20.75H112.741ZM113.741 88H104.694V90H113.741V88ZM105.694 89V20.75H103.694V89H105.694ZM104.694 21.75H113.741V19.75H104.694V21.75ZM142.272 50.0938V57.4531H144.272V50.0938H142.272ZM143.272 56.4531H111.913V58.4531H143.272V56.4531ZM112.913 57.4531V50.0938H110.913V57.4531H112.913ZM111.913 51.0938H143.272V49.0938H111.913V51.0938ZM146.585 20.75V28.1562H148.585V20.75H146.585ZM147.585 27.1562H111.913V29.1562H147.585V27.1562ZM112.913 28.1562V20.75H110.913V28.1562H112.913ZM111.913 21.75H147.585V19.75H111.913V21.75ZM198.373 20.75H199.373V19.75H198.373V20.75ZM198.373 89V90H199.373V89H198.373ZM189.467 89H188.467V90H189.467V89ZM189.467 20.75V19.75H188.467V20.75H189.467ZM220.311 20.75H221.311V19.75H220.311V20.75ZM220.311 28.1562V29.1562H221.311V28.1562H220.311ZM167.576 28.1562H166.576V29.1562H167.576V28.1562ZM167.576 20.75V19.75H166.576V20.75H167.576ZM197.373 20.75V89H199.373V20.75H197.373ZM198.373 88H189.467V90H198.373V88ZM190.467 89V20.75H188.467V89H190.467ZM189.467 21.75H198.373V19.75H189.467V21.75ZM219.311 20.75V28.1562H221.311V20.75H219.311ZM220.311 27.1562H167.576V29.1562H220.311V27.1562ZM168.576 28.1562V20.75H166.576V28.1562H168.576ZM167.576 21.75H220.311V19.75H167.576V21.75ZM264.911 26.7969L265.851 27.1383L265.907 26.9841L265.911 26.8201L264.911 26.7969ZM242.318 89V90H243.018L243.257 89.3414L242.318 89ZM233.083 89L232.149 88.6438L231.632 90H233.083V89ZM259.099 20.75V19.75H258.41L258.164 20.3938L259.099 20.75ZM265.052 20.75L266.052 20.7732L266.075 19.75H265.052V20.75ZM283.849 89L282.909 89.342L283.149 90H283.849V89ZM261.208 26.7969L260.208 26.8201L260.212 26.9844L260.268 27.1389L261.208 26.7969ZM261.068 20.75V19.75H260.044L260.068 20.7732L261.068 20.75ZM267.021 20.75L267.955 20.3927L267.709 19.75H267.021V20.75ZM293.13 89V90H294.583L294.064 88.6427L293.13 89ZM282.677 63.7344H283.677V62.7344H282.677V63.7344ZM282.677 71.1406V72.1406H283.677V71.1406H282.677ZM244.333 71.1406H243.333V72.1406H244.333V71.1406ZM244.333 63.7344V62.7344H243.333V63.7344H244.333ZM263.971 26.4555L241.378 88.6586L243.257 89.3414L265.851 27.1383L263.971 26.4555ZM242.318 88H233.083V90H242.318V88ZM234.018 89.3562L260.033 21.1062L258.164 20.3938L232.149 88.6438L234.018 89.3562ZM259.099 21.75H265.052V19.75H259.099V21.75ZM264.052 20.7268L263.912 26.7736L265.911 26.8201L266.052 20.7732L264.052 20.7268ZM284.788 88.658L262.148 26.4548L260.268 27.1389L282.909 89.342L284.788 88.658ZM262.208 26.7736L262.067 20.7268L260.068 20.7732L260.208 26.8201L262.208 26.7736ZM261.068 21.75H267.021V19.75H261.068V21.75ZM266.087 21.1073L292.196 89.3573L294.064 88.6427L267.955 20.3927L266.087 21.1073ZM293.13 88H283.849V90H293.13V88ZM281.677 63.7344V71.1406H283.677V63.7344H281.677ZM282.677 70.1406H244.333V72.1406H282.677V70.1406ZM245.333 71.1406V63.7344H243.333V71.1406H245.333ZM244.333 64.7344H282.677V62.7344H244.333V64.7344ZM329.902 68.375L328.941 68.1014L328.934 68.1251L328.928 68.1492L329.902 68.375ZM343.449 20.75V19.75H342.694L342.488 20.4764L343.449 20.75ZM350.012 20.75L350.991 20.9509L351.238 19.75H350.012V20.75ZM346.215 39.2656L347.175 39.5469L347.186 39.5071L347.195 39.4665L346.215 39.2656ZM331.637 89V90H332.386L332.596 89.2813L331.637 89ZM325.121 89L324.147 88.7742L323.863 90H325.121V89ZM315.887 20.75L316.861 20.525L316.682 19.75H315.887V20.75ZM326.668 67.4375L327.657 67.2892L327.651 67.2505L327.642 67.2125L326.668 67.4375ZM329.902 89V90H331.064L330.891 88.8517L329.902 89ZM323.434 89L322.462 89.2356L322.647 90H323.434V89ZM306.887 20.75V19.75H305.615L305.915 20.9856L306.887 20.75ZM367.543 67.3906L366.568 67.1701L366.56 67.203L366.555 67.2363L367.543 67.3906ZM378.09 20.75V19.75H377.291L377.115 20.5294L378.09 20.75ZM387.137 20.75L388.109 20.985L388.407 19.75H387.137V20.75ZM370.637 89V90H371.424L371.609 89.235L370.637 89ZM364.168 89L363.18 88.8457L363 90H364.168V89ZM350.996 20.75L351.96 20.4834L351.757 19.75H350.996V20.75ZM364.168 68.375L365.142 68.1492L365.138 68.1287L365.132 68.1084L364.168 68.375ZM368.949 89V90H370.208L369.924 88.7742L368.949 89ZM362.434 89L361.471 89.2721L361.677 90H362.434V89ZM348.371 39.2656L347.392 39.4689L347.399 39.5036L347.409 39.5377L348.371 39.2656ZM344.527 20.75V19.75H343.299L343.548 20.9533L344.527 20.75ZM330.864 68.6486L344.411 21.0236L342.488 20.4764L328.941 68.1014L330.864 68.6486ZM343.449 21.75H350.012V19.75H343.449V21.75ZM349.032 20.5491L345.235 39.0647L347.195 39.4665L350.991 20.9509L349.032 20.5491ZM345.255 38.9843L330.677 88.7187L332.596 89.2813L347.175 39.5469L345.255 38.9843ZM331.637 88H325.121V90H331.637V88ZM326.095 89.2258L330.877 68.6008L328.928 68.1492L324.147 88.7742L326.095 89.2258ZM314.913 20.975L325.694 67.6625L327.642 67.2125L316.861 20.525L314.913 20.975ZM325.679 67.5858L328.914 89.1483L330.891 88.8517L327.657 67.2892L325.679 67.5858ZM329.902 88H323.434V90H329.902V88ZM324.406 88.7644L307.859 20.5144L305.915 20.9856L322.462 89.2356L324.406 88.7644ZM306.887 21.75H315.887V19.75H306.887V21.75ZM368.518 67.6112L379.065 20.9706L377.115 20.5294L366.568 67.1701L368.518 67.6112ZM378.09 21.75H387.137V19.75H378.09V21.75ZM386.165 20.515L369.665 88.765L371.609 89.235L388.109 20.985L386.165 20.515ZM370.637 88H364.168V90H370.637V88ZM365.156 89.1543L368.531 67.5449L366.555 67.2363L363.18 88.8457L365.156 89.1543ZM350.032 21.0166L363.204 68.6416L365.132 68.1084L351.96 20.4834L350.032 21.0166ZM363.194 68.6008L367.975 89.2258L369.924 88.7742L365.142 68.1492L363.194 68.6008ZM368.949 88H362.434V90H368.949V88ZM363.396 88.7279L349.334 38.9935L347.409 39.5377L361.471 89.2721L363.396 88.7279ZM349.35 39.0624L345.507 20.5467L343.548 20.9533L347.392 39.4689L349.35 39.0624ZM344.527 21.75H350.996V19.75H344.527V21.75ZM433.331 26.7969L434.271 27.1383L434.327 26.9841L434.331 26.8201L433.331 26.7969ZM410.737 89V90H411.438L411.677 89.3414L410.737 89ZM401.503 89L400.569 88.6438L400.052 90H401.503V89ZM427.519 20.75V19.75H426.83L426.584 20.3938L427.519 20.75ZM433.472 20.75L434.472 20.7732L434.495 19.75H433.472V20.75ZM452.269 89L451.329 89.342L451.569 90H452.269V89ZM429.628 26.7969L428.628 26.8201L428.632 26.9844L428.688 27.1389L429.628 26.7969ZM429.487 20.75V19.75H428.464L428.488 20.7732L429.487 20.75ZM435.441 20.75L436.375 20.3927L436.129 19.75H435.441V20.75ZM461.55 89V90H463.003L462.484 88.6427L461.55 89ZM451.097 63.7344H452.097V62.7344H451.097V63.7344ZM451.097 71.1406V72.1406H452.097V71.1406H451.097ZM412.753 71.1406H411.753V72.1406H412.753V71.1406ZM412.753 63.7344V62.7344H411.753V63.7344H412.753ZM432.391 26.4555L409.798 88.6586L411.677 89.3414L434.271 27.1383L432.391 26.4555ZM410.737 88H401.503V90H410.737V88ZM402.438 89.3562L428.453 21.1062L426.584 20.3938L400.569 88.6438L402.438 89.3562ZM427.519 21.75H433.472V19.75H427.519V21.75ZM432.472 20.7268L432.332 26.7736L434.331 26.8201L434.472 20.7732L432.472 20.7268ZM453.208 88.658L430.568 26.4548L428.688 27.1389L451.329 89.342L453.208 88.658ZM430.628 26.7736L430.487 20.7268L428.488 20.7732L428.628 26.8201L430.628 26.7736ZM429.487 21.75H435.441V19.75H429.487V21.75ZM434.507 21.1073L460.616 89.3573L462.484 88.6427L436.375 20.3927L434.507 21.1073ZM461.55 88H452.269V90H461.55V88ZM450.097 63.7344V71.1406H452.097V63.7344H450.097ZM451.097 70.1406H412.753V72.1406H451.097V70.1406ZM413.753 71.1406V63.7344H411.753V71.1406H413.753ZM412.753 64.7344H451.097V62.7344H412.753V64.7344ZM501.557 78.6406L500.612 78.3125L500.594 78.3654L500.582 78.42L501.557 78.6406ZM521.666 20.75V19.75H520.955L520.722 20.4219L521.666 20.75ZM531.463 20.75L532.401 21.0972L532.9 19.75H531.463V20.75ZM506.198 89V90H506.894L507.135 89.3472L506.198 89ZM499.213 89L498.238 88.7793L497.962 90H499.213V89ZM482.76 20.75L483.706 20.4246L483.473 19.75H482.76V20.75ZM502.682 78.6406L503.654 78.4074L503.643 78.3607L503.627 78.3152L502.682 78.6406ZM505.166 89V90H506.434L506.139 88.7668L505.166 89ZM498.182 89L497.244 89.3466L497.485 90H498.182V89ZM472.963 20.75V19.75H471.528L472.025 21.0966L472.963 20.75ZM502.502 78.9688L522.611 21.0781L520.722 20.4219L500.612 78.3125L502.502 78.9688ZM521.666 21.75H531.463V19.75H521.666V21.75ZM530.525 20.4028L505.26 88.6528L507.135 89.3472L532.401 21.0972L530.525 20.4028ZM506.198 88H499.213V90H506.198V88ZM500.188 89.2207L502.532 78.8613L500.582 78.42L498.238 88.7793L500.188 89.2207ZM481.814 21.0754L501.736 78.966L503.627 78.3152L483.706 20.4246L481.814 21.0754ZM501.709 78.8738L504.194 89.2332L506.139 88.7668L503.654 78.4074L501.709 78.8738ZM505.166 88H498.182V90H505.166V88ZM499.12 88.6534L473.901 20.4034L472.025 21.0966L497.244 89.3466L499.12 88.6534ZM472.963 21.75H482.76V19.75H472.963V21.75ZM596.97 81.6406H597.97V80.6406H596.97V81.6406ZM596.97 89V90H597.97V89H596.97ZM560.829 89H559.829V90H560.829V89ZM560.829 81.6406V80.6406H559.829V81.6406H560.829ZM562.657 20.75H563.657V19.75H562.657V20.75ZM562.657 89V90H563.657V89H562.657ZM553.611 89H552.611V90H553.611V89ZM553.611 20.75V19.75H552.611V20.75H553.611ZM592.189 50.0938H593.189V49.0938H592.189V50.0938ZM592.189 57.4531V58.4531H593.189V57.4531H592.189ZM560.829 57.4531H559.829V58.4531H560.829V57.4531ZM560.829 50.0938V49.0938H559.829V50.0938H560.829ZM596.501 20.75H597.501V19.75H596.501V20.75ZM596.501 28.1562V29.1562H597.501V28.1562H596.501ZM560.829 28.1562H559.829V29.1562H560.829V28.1562ZM560.829 20.75V19.75H559.829V20.75H560.829ZM595.97 81.6406V89H597.97V81.6406H595.97ZM596.97 88H560.829V90H596.97V88ZM561.829 89V81.6406H559.829V89H561.829ZM560.829 82.6406H596.97V80.6406H560.829V82.6406ZM561.657 20.75V89H563.657V20.75H561.657ZM562.657 88H553.611V90H562.657V88ZM554.611 89V20.75H552.611V89H554.611ZM553.611 21.75H562.657V19.75H553.611V21.75ZM591.189 50.0938V57.4531H593.189V50.0938H591.189ZM592.189 56.4531H560.829V58.4531H592.189V56.4531ZM561.829 57.4531V50.0938H559.829V57.4531H561.829ZM560.829 51.0938H592.189V49.0938H560.829V51.0938ZM595.501 20.75V28.1562H597.501V20.75H595.501ZM596.501 27.1562H560.829V29.1562H596.501V27.1562ZM561.829 28.1562V20.75H559.829V28.1562H561.829ZM560.829 21.75H596.501V19.75H560.829V21.75Z" fill="black"/>
<path d="M129.297 171.75C129.297 170.156 129.047 168.75 128.547 167.531C128.078 166.281 127.234 165.156 126.016 164.156C124.828 163.156 123.172 162.203 121.047 161.297C118.953 160.391 116.297 159.469 113.078 158.531C109.703 157.531 106.656 156.422 103.938 155.203C101.219 153.953 98.8906 152.531 96.9531 150.938C95.0156 149.344 93.5312 147.516 92.5 145.453C91.4688 143.391 90.9531 141.031 90.9531 138.375C90.9531 135.719 91.5 133.266 92.5938 131.016C93.6875 128.766 95.25 126.812 97.2812 125.156C99.3438 123.469 101.797 122.156 104.641 121.219C107.484 120.281 110.656 119.812 114.156 119.812C119.281 119.812 123.625 120.797 127.188 122.766C130.781 124.703 133.516 127.25 135.391 130.406C137.266 133.531 138.203 136.875 138.203 140.438H129.203C129.203 137.875 128.656 135.609 127.562 133.641C126.469 131.641 124.812 130.078 122.594 128.953C120.375 127.797 117.562 127.219 114.156 127.219C110.938 127.219 108.281 127.703 106.188 128.672C104.094 129.641 102.531 130.953 101.5 132.609C100.5 134.266 100 136.156 100 138.281C100 139.719 100.297 141.031 100.891 142.219C101.516 143.375 102.469 144.453 103.75 145.453C105.062 146.453 106.719 147.375 108.719 148.219C110.75 149.062 113.172 149.875 115.984 150.656C119.859 151.75 123.203 152.969 126.016 154.312C128.828 155.656 131.141 157.172 132.953 158.859C134.797 160.516 136.156 162.406 137.031 164.531C137.938 166.625 138.391 169 138.391 171.656C138.391 174.438 137.828 176.953 136.703 179.203C135.578 181.453 133.969 183.375 131.875 184.969C129.781 186.562 127.266 187.797 124.328 188.672C121.422 189.516 118.172 189.938 114.578 189.938C111.422 189.938 108.312 189.5 105.25 188.625C102.219 187.75 99.4531 186.438 96.9531 184.688C94.4844 182.938 92.5 180.781 91 178.219C89.5312 175.625 88.7969 172.625 88.7969 169.219H97.7969C97.7969 171.562 98.25 173.578 99.1562 175.266C100.062 176.922 101.297 178.297 102.859 179.391C104.453 180.484 106.25 181.297 108.25 181.828C110.281 182.328 112.391 182.578 114.578 182.578C117.734 182.578 120.406 182.141 122.594 181.266C124.781 180.391 126.438 179.141 127.562 177.516C128.719 175.891 129.297 173.969 129.297 171.75ZM175.141 120.75V189H166.234V120.75H175.141ZM197.078 120.75V128.156H144.344V120.75H197.078ZM246.25 120.75H255.25V166.922C255.25 172.047 254.109 176.312 251.828 179.719C249.547 183.125 246.516 185.688 242.734 187.406C238.984 189.094 234.906 189.938 230.5 189.938C225.875 189.938 221.688 189.094 217.938 187.406C214.219 185.688 211.266 183.125 209.078 179.719C206.922 176.312 205.844 172.047 205.844 166.922V120.75H214.797V166.922C214.797 170.484 215.453 173.422 216.766 175.734C218.078 178.047 219.906 179.766 222.25 180.891C224.625 182.016 227.375 182.578 230.5 182.578C233.656 182.578 236.406 182.016 238.75 180.891C241.125 179.766 242.969 178.047 244.281 175.734C245.594 173.422 246.25 170.484 246.25 166.922V120.75ZM287.922 189H273.672L273.766 181.641H287.922C292.797 181.641 296.859 180.625 300.109 178.594C303.359 176.531 305.797 173.656 307.422 169.969C309.078 166.25 309.906 161.906 309.906 156.938V152.766C309.906 148.859 309.438 145.391 308.5 142.359C307.562 139.297 306.188 136.719 304.375 134.625C302.562 132.5 300.344 130.891 297.719 129.797C295.125 128.703 292.141 128.156 288.766 128.156H273.391V120.75H288.766C293.234 120.75 297.312 121.5 301 123C304.688 124.469 307.859 126.609 310.516 129.422C313.203 132.203 315.266 135.578 316.703 139.547C318.141 143.484 318.859 147.922 318.859 152.859V156.938C318.859 161.875 318.141 166.328 316.703 170.297C315.266 174.234 313.188 177.594 310.469 180.375C307.781 183.156 304.531 185.297 300.719 186.797C296.938 188.266 292.672 189 287.922 189ZM278.5 120.75V189H269.453V120.75H278.5ZM342.156 120.75V189H333.109V120.75H342.156ZM411.156 152.719V157.031C411.156 162.156 410.516 166.75 409.234 170.812C407.953 174.875 406.109 178.328 403.703 181.172C401.297 184.016 398.406 186.188 395.031 187.688C391.688 189.188 387.938 189.938 383.781 189.938C379.75 189.938 376.047 189.188 372.672 187.688C369.328 186.188 366.422 184.016 363.953 181.172C361.516 178.328 359.625 174.875 358.281 170.812C356.938 166.75 356.266 162.156 356.266 157.031V152.719C356.266 147.594 356.922 143.016 358.234 138.984C359.578 134.922 361.469 131.469 363.906 128.625C366.344 125.75 369.234 123.562 372.578 122.062C375.953 120.562 379.656 119.812 383.688 119.812C387.844 119.812 391.594 120.562 394.938 122.062C398.312 123.562 401.203 125.75 403.609 128.625C406.047 131.469 407.906 134.922 409.188 138.984C410.5 143.016 411.156 147.594 411.156 152.719ZM402.203 157.031V152.625C402.203 148.562 401.781 144.969 400.938 141.844C400.125 138.719 398.922 136.094 397.328 133.969C395.734 131.844 393.781 130.234 391.469 129.141C389.188 128.047 386.594 127.5 383.688 127.5C380.875 127.5 378.328 128.047 376.047 129.141C373.797 130.234 371.859 131.844 370.234 133.969C368.641 136.094 367.406 138.719 366.531 141.844C365.656 144.969 365.219 148.562 365.219 152.625V157.031C365.219 161.125 365.656 164.75 366.531 167.906C367.406 171.031 368.656 173.672 370.281 175.828C371.938 177.953 373.891 179.562 376.141 180.656C378.422 181.75 380.969 182.297 383.781 182.297C386.719 182.297 389.328 181.75 391.609 180.656C393.891 179.562 395.812 177.953 397.375 175.828C398.969 173.672 400.172 171.031 400.984 167.906C401.797 164.75 402.203 161.125 402.203 157.031ZM461.078 171.75C461.078 170.156 460.828 168.75 460.328 167.531C459.859 166.281 459.016 165.156 457.797 164.156C456.609 163.156 454.953 162.203 452.828 161.297C450.734 160.391 448.078 159.469 444.859 158.531C441.484 157.531 438.438 156.422 435.719 155.203C433 153.953 430.672 152.531 428.734 150.938C426.797 149.344 425.312 147.516 424.281 145.453C423.25 143.391 422.734 141.031 422.734 138.375C422.734 135.719 423.281 133.266 424.375 131.016C425.469 128.766 427.031 126.812 429.062 125.156C431.125 123.469 433.578 122.156 436.422 121.219C439.266 120.281 442.438 119.812 445.938 119.812C451.062 119.812 455.406 120.797 458.969 122.766C462.562 124.703 465.297 127.25 467.172 130.406C469.047 133.531 469.984 136.875 469.984 140.438H460.984C460.984 137.875 460.438 135.609 459.344 133.641C458.25 131.641 456.594 130.078 454.375 128.953C452.156 127.797 449.344 127.219 445.938 127.219C442.719 127.219 440.062 127.703 437.969 128.672C435.875 129.641 434.312 130.953 433.281 132.609C432.281 134.266 431.781 136.156 431.781 138.281C431.781 139.719 432.078 141.031 432.672 142.219C433.297 143.375 434.25 144.453 435.531 145.453C436.844 146.453 438.5 147.375 440.5 148.219C442.531 149.062 444.953 149.875 447.766 150.656C451.641 151.75 454.984 152.969 457.797 154.312C460.609 155.656 462.922 157.172 464.734 158.859C466.578 160.516 467.938 162.406 468.812 164.531C469.719 166.625 470.172 169 470.172 171.656C470.172 174.438 469.609 176.953 468.484 179.203C467.359 181.453 465.75 183.375 463.656 184.969C461.562 186.562 459.047 187.797 456.109 188.672C453.203 189.516 449.953 189.938 446.359 189.938C443.203 189.938 440.094 189.5 437.031 188.625C434 187.75 431.234 186.438 428.734 184.688C426.266 182.938 424.281 180.781 422.781 178.219C421.312 175.625 420.578 172.625 420.578 169.219H429.578C429.578 171.562 430.031 173.578 430.938 175.266C431.844 176.922 433.078 178.297 434.641 179.391C436.234 180.484 438.031 181.297 440.031 181.828C442.062 182.328 444.172 182.578 446.359 182.578C449.516 182.578 452.188 182.141 454.375 181.266C456.562 180.391 458.219 179.141 459.344 177.516C460.5 175.891 461.078 173.969 461.078 171.75Z" fill="black"/>
<path d="M128.547 167.531L127.611 167.882L127.616 167.897L127.622 167.911L128.547 167.531ZM126.016 164.156L125.371 164.921L125.381 164.929L126.016 164.156ZM121.047 161.297L120.65 162.215L120.655 162.217L121.047 161.297ZM113.078 158.531L112.794 159.49L112.798 159.491L113.078 158.531ZM103.938 155.203L103.52 156.112L103.528 156.116L103.938 155.203ZM97.2812 125.156L97.9132 125.931L97.9145 125.93L97.2812 125.156ZM127.188 122.766L126.704 123.641L126.713 123.646L127.188 122.766ZM135.391 130.406L134.531 130.917L134.533 130.921L135.391 130.406ZM138.203 140.438V141.438H139.203V140.438H138.203ZM129.203 140.438H128.203V141.438H129.203V140.438ZM127.562 133.641L126.685 134.12L126.688 134.126L127.562 133.641ZM122.594 128.953L122.132 129.84L122.142 129.845L122.594 128.953ZM101.5 132.609L100.651 132.081L100.644 132.093L101.5 132.609ZM100.891 142.219L99.9962 142.666L100.003 142.68L100.011 142.694L100.891 142.219ZM103.75 145.453L103.135 146.241L103.144 146.249L103.75 145.453ZM108.719 148.219L108.33 149.14L108.335 149.142L108.719 148.219ZM115.984 150.656L116.256 149.694L116.252 149.693L115.984 150.656ZM132.953 158.859L132.272 159.591L132.278 159.597L132.285 159.603L132.953 158.859ZM137.031 164.531L136.107 164.912L136.11 164.92L136.114 164.928L137.031 164.531ZM124.328 188.672L124.607 189.632L124.614 189.63L124.328 188.672ZM105.25 188.625L104.973 189.586L104.975 189.587L105.25 188.625ZM96.9531 184.688L96.3748 185.503L96.3797 185.507L96.9531 184.688ZM91 178.219L90.1298 178.711L90.1334 178.718L90.137 178.724L91 178.219ZM88.7969 169.219V168.219H87.7969V169.219H88.7969ZM97.7969 169.219H98.7969V168.219H97.7969V169.219ZM99.1562 175.266L98.2752 175.739L98.279 175.746L99.1562 175.266ZM102.859 179.391L102.286 180.21L102.294 180.215L102.859 179.391ZM108.25 181.828L107.993 182.795L108.002 182.797L108.011 182.799L108.25 181.828ZM127.562 177.516L126.748 176.936L126.74 176.946L127.562 177.516ZM130.297 171.75C130.297 170.053 130.031 168.513 129.472 167.152L127.622 167.911C128.063 168.987 128.297 170.26 128.297 171.75H130.297ZM129.483 167.18C128.942 165.738 127.98 164.474 126.65 163.383L125.381 164.929C126.489 165.838 127.214 166.825 127.611 167.882L129.483 167.18ZM126.66 163.391C125.369 162.305 123.615 161.305 121.439 160.377L120.655 162.217C122.728 163.101 124.287 164.008 125.371 164.921L126.66 163.391ZM121.444 160.379C119.299 159.451 116.6 158.515 113.358 157.571L112.798 159.491C115.994 160.422 118.607 161.331 120.65 162.215L121.444 160.379ZM113.362 157.572C110.022 156.583 107.018 155.488 104.347 154.291L103.528 156.116C106.294 157.355 109.384 158.48 112.794 159.49L113.362 157.572ZM104.355 154.295C101.7 153.074 99.4482 151.695 97.5884 150.165L96.3179 151.71C98.333 153.367 100.737 154.832 103.52 156.112L104.355 154.295ZM97.5884 150.165C95.7495 148.653 94.3577 146.932 93.3944 145.006L91.6056 145.9C92.7048 148.099 94.2818 150.035 96.3179 151.71L97.5884 150.165ZM93.3944 145.006C92.4425 143.102 91.9531 140.9 91.9531 138.375H89.9531C89.9531 141.163 90.495 143.679 91.6056 145.9L93.3944 145.006ZM91.9531 138.375C91.9531 135.861 92.4697 133.558 93.4931 131.453L91.6944 130.578C90.5303 132.973 89.9531 135.577 89.9531 138.375H91.9531ZM93.4931 131.453C94.5203 129.34 95.9891 127.5 97.9132 125.931L96.6493 124.381C94.5109 126.125 92.8547 128.192 91.6944 130.578L93.4931 131.453ZM97.9145 125.93C99.871 124.329 102.212 123.072 104.954 122.168L104.328 120.269C101.382 121.24 98.8165 122.608 96.648 124.382L97.9145 125.93ZM104.954 122.168C107.681 121.269 110.745 120.812 114.156 120.812V118.812C110.567 118.812 107.288 119.293 104.328 120.269L104.954 122.168ZM114.156 120.812C119.155 120.812 123.323 121.773 126.704 123.641L127.671 121.89C123.927 119.821 119.407 118.812 114.156 118.812V120.812ZM126.713 123.646C130.166 125.507 132.759 127.934 134.531 130.917L136.25 129.896C134.273 126.566 131.397 123.899 127.662 121.885L126.713 123.646ZM134.533 130.921C136.317 133.894 137.203 137.061 137.203 140.438H139.203C139.203 136.689 138.214 133.168 136.248 129.892L134.533 130.921ZM138.203 139.438H129.203V141.438H138.203V139.438ZM130.203 140.438C130.203 137.729 129.624 135.292 128.437 133.155L126.688 134.126C127.689 135.927 128.203 138.021 128.203 140.438H130.203ZM128.44 133.161C127.24 130.967 125.428 129.269 123.046 128.061L122.142 129.845C124.197 130.887 125.697 132.314 126.685 134.12L128.44 133.161ZM123.056 128.066C120.652 126.814 117.668 126.219 114.156 126.219V128.219C117.457 128.219 120.098 128.78 122.132 129.84L123.056 128.066ZM114.156 126.219C110.846 126.219 108.034 126.716 105.768 127.764L106.607 129.579C108.528 128.691 111.029 128.219 114.156 128.219V126.219ZM105.768 127.764C103.53 128.8 101.803 130.231 100.651 132.081L102.349 133.138C103.26 131.675 104.658 130.482 106.607 129.579L105.768 127.764ZM100.644 132.093C99.5407 133.92 99 135.993 99 138.281H101C101 136.32 101.459 134.611 102.356 133.126L100.644 132.093ZM99 138.281C99 139.861 99.3274 141.328 99.9962 142.666L101.785 141.772C101.266 140.734 101 139.577 101 138.281H99ZM100.011 142.694C100.715 143.997 101.77 145.176 103.135 146.241L104.365 144.665C103.168 143.73 102.316 142.753 101.77 141.743L100.011 142.694ZM103.144 146.249C104.541 147.313 106.275 148.273 108.33 149.14L109.107 147.297C107.162 146.477 105.584 145.594 104.356 144.658L103.144 146.249ZM108.335 149.142C110.414 150.006 112.877 150.831 115.717 151.62L116.252 149.693C113.467 148.919 111.086 148.119 109.102 147.295L108.335 149.142ZM115.713 151.619C119.548 152.701 122.836 153.901 125.585 155.215L126.447 153.41C123.571 152.036 120.171 150.799 116.256 149.694L115.713 151.619ZM125.585 155.215C128.328 156.526 130.55 157.988 132.272 159.591L133.635 158.127C131.731 156.356 129.328 154.787 126.447 153.41L125.585 155.215ZM132.285 159.603C134.026 161.167 135.293 162.936 136.107 164.912L137.956 164.151C137.019 161.876 135.568 159.864 133.621 158.115L132.285 159.603ZM136.114 164.928C136.957 166.878 137.391 169.114 137.391 171.656H139.391C139.391 168.886 138.918 166.372 137.949 164.134L136.114 164.928ZM137.391 171.656C137.391 174.299 136.857 176.659 135.809 178.756L137.598 179.65C138.799 177.247 139.391 174.576 139.391 171.656H137.391ZM135.809 178.756C134.755 180.863 133.247 182.667 131.269 184.173L132.481 185.764C134.69 184.083 136.401 182.043 137.598 179.65L135.809 178.756ZM131.269 184.173C129.286 185.683 126.883 186.867 124.043 187.713L124.614 189.63C127.648 188.726 130.276 187.442 132.481 185.764L131.269 184.173ZM124.049 187.712C121.249 188.525 118.095 188.938 114.578 188.938V190.938C118.249 190.938 121.595 190.507 124.607 189.632L124.049 187.712ZM114.578 188.938C111.516 188.938 108.499 188.513 105.525 187.663L104.975 189.587C108.126 190.487 111.328 190.938 114.578 190.938V188.938ZM105.527 187.664C102.598 186.819 99.9333 185.553 97.5266 183.868L96.3797 185.507C98.9729 187.322 101.839 188.681 104.973 189.586L105.527 187.664ZM97.5314 183.872C95.1763 182.202 93.2899 180.151 91.863 177.714L90.137 178.724C91.7101 181.411 93.7925 183.673 96.3748 185.503L97.5314 183.872ZM91.8702 177.726C90.498 175.303 89.7969 172.477 89.7969 169.219H87.7969C87.7969 172.773 88.5645 175.947 90.1298 178.711L91.8702 177.726ZM88.7969 170.219H97.7969V168.219H88.7969V170.219ZM96.7969 169.219C96.7969 171.691 97.2753 173.877 98.2753 175.739L100.037 174.792C99.2247 173.28 98.7969 171.434 98.7969 169.219H96.7969ZM98.279 175.746C99.2598 177.538 100.599 179.029 102.286 180.21L103.433 178.571C101.995 177.565 100.865 176.306 100.034 174.786L98.279 175.746ZM102.294 180.215C103.988 181.378 105.891 182.236 107.993 182.795L108.507 180.862C106.609 180.358 104.918 179.591 103.425 178.566L102.294 180.215ZM108.011 182.799C110.124 183.319 112.314 183.578 114.578 183.578V181.578C112.467 181.578 110.439 181.337 108.489 180.857L108.011 182.799ZM114.578 183.578C117.821 183.578 120.627 183.129 122.965 182.194L122.222 180.337C120.186 181.152 117.648 181.578 114.578 181.578V183.578ZM122.965 182.194C125.299 181.26 127.128 179.9 128.385 178.085L126.74 176.946C125.747 178.381 124.263 179.521 122.222 180.337L122.965 182.194ZM128.377 178.095C129.667 176.282 130.297 174.152 130.297 171.75H128.297C128.297 173.785 127.77 175.499 126.748 176.936L128.377 178.095ZM175.141 120.75H176.141V119.75H175.141V120.75ZM175.141 189V190H176.141V189H175.141ZM166.234 189H165.234V190H166.234V189ZM166.234 120.75V119.75H165.234V120.75H166.234ZM197.078 120.75H198.078V119.75H197.078V120.75ZM197.078 128.156V129.156H198.078V128.156H197.078ZM144.344 128.156H143.344V129.156H144.344V128.156ZM144.344 120.75V119.75H143.344V120.75H144.344ZM174.141 120.75V189H176.141V120.75H174.141ZM175.141 188H166.234V190H175.141V188ZM167.234 189V120.75H165.234V189H167.234ZM166.234 121.75H175.141V119.75H166.234V121.75ZM196.078 120.75V128.156H198.078V120.75H196.078ZM197.078 127.156H144.344V129.156H197.078V127.156ZM145.344 128.156V120.75H143.344V128.156H145.344ZM144.344 121.75H197.078V119.75H144.344V121.75ZM246.25 120.75V119.75H245.25V120.75H246.25ZM255.25 120.75H256.25V119.75H255.25V120.75ZM242.734 187.406L243.145 188.318L243.148 188.317L242.734 187.406ZM217.938 187.406L217.518 188.314L217.527 188.318L217.938 187.406ZM209.078 179.719L208.233 180.254L208.237 180.259L209.078 179.719ZM205.844 120.75V119.75H204.844V120.75H205.844ZM214.797 120.75H215.797V119.75H214.797V120.75ZM222.25 180.891L221.817 181.792L221.822 181.794L222.25 180.891ZM238.75 180.891L238.322 179.987L238.317 179.989L238.75 180.891ZM246.25 121.75H255.25V119.75H246.25V121.75ZM254.25 120.75V166.922H256.25V120.75H254.25ZM254.25 166.922C254.25 171.898 253.144 175.958 250.997 179.162L252.659 180.275C255.075 176.667 256.25 172.195 256.25 166.922H254.25ZM250.997 179.162C248.821 182.412 245.935 184.853 242.321 186.496L243.148 188.317C247.096 186.522 250.273 183.838 252.659 180.275L250.997 179.162ZM242.324 186.494C238.712 188.12 234.775 188.938 230.5 188.938V190.938C235.037 190.938 239.257 190.068 243.145 188.318L242.324 186.494ZM230.5 188.938C225.999 188.938 221.954 188.117 218.348 186.494L217.527 188.318C221.421 190.071 225.751 190.938 230.5 190.938V188.938ZM218.357 186.499C214.809 184.859 212.003 182.423 209.92 179.178L208.237 180.259C210.528 183.827 213.629 186.516 217.518 188.314L218.357 186.499ZM209.923 179.184C207.892 175.976 206.844 171.908 206.844 166.922H204.844C204.844 172.185 205.951 176.649 208.233 180.254L209.923 179.184ZM206.844 166.922V120.75H204.844V166.922H206.844ZM205.844 121.75H214.797V119.75H205.844V121.75ZM213.797 120.75V166.922H215.797V120.75H213.797ZM213.797 166.922C213.797 170.601 214.474 173.722 215.896 176.228L217.635 175.241C216.432 173.121 215.797 170.368 215.797 166.922H213.797ZM215.896 176.228C217.307 178.714 219.285 180.577 221.817 181.792L222.683 179.989C220.527 178.954 218.85 177.38 217.635 175.241L215.896 176.228ZM221.822 181.794C224.354 182.994 227.255 183.578 230.5 183.578V181.578C227.495 181.578 224.896 181.038 222.678 179.987L221.822 181.794ZM230.5 183.578C233.775 183.578 236.678 182.994 239.183 181.792L238.317 179.989C236.134 181.037 233.538 181.578 230.5 181.578V183.578ZM239.178 181.794C241.741 180.58 243.738 178.717 245.151 176.228L243.412 175.241C242.199 177.377 240.509 178.951 238.322 179.987L239.178 181.794ZM245.151 176.228C246.573 173.722 247.25 170.601 247.25 166.922H245.25C245.25 170.368 244.614 173.121 243.412 175.241L245.151 176.228ZM247.25 166.922V120.75H245.25V166.922H247.25ZM273.672 189L272.672 188.987L272.659 190H273.672V189ZM273.766 181.641V180.641H272.778L272.766 181.628L273.766 181.641ZM300.109 178.594L300.639 179.442L300.645 179.438L300.109 178.594ZM307.422 169.969L306.508 169.562L306.507 169.565L307.422 169.969ZM308.5 142.359L307.544 142.652L307.545 142.655L308.5 142.359ZM304.375 134.625L303.614 135.274L303.619 135.28L304.375 134.625ZM297.719 129.797L297.33 130.718L297.334 130.72L297.719 129.797ZM273.391 128.156H272.391V129.156H273.391V128.156ZM273.391 120.75V119.75H272.391V120.75H273.391ZM301 123L300.623 123.926L300.63 123.929L301 123ZM310.516 129.422L309.789 130.109L309.797 130.117L310.516 129.422ZM316.703 139.547L315.763 139.887L315.764 139.89L316.703 139.547ZM316.703 170.297L317.642 170.64L317.643 170.637L316.703 170.297ZM310.469 180.375L309.754 179.676L309.75 179.68L310.469 180.375ZM300.719 186.797L301.081 187.729L301.085 187.727L300.719 186.797ZM278.5 120.75H279.5V119.75H278.5V120.75ZM278.5 189V190H279.5V189H278.5ZM269.453 189H268.453V190H269.453V189ZM269.453 120.75V119.75H268.453V120.75H269.453ZM287.922 188H273.672V190H287.922V188ZM274.672 189.013L274.766 181.653L272.766 181.628L272.672 188.987L274.672 189.013ZM273.766 182.641H287.922V180.641H273.766V182.641ZM287.922 182.641C292.934 182.641 297.192 181.596 300.639 179.442L299.579 177.746C296.526 179.654 292.66 180.641 287.922 180.641V182.641ZM300.645 179.438C304.071 177.264 306.636 174.232 308.337 170.372L306.507 169.565C304.958 173.081 302.648 175.798 299.574 177.749L300.645 179.438ZM308.335 170.376C310.06 166.504 310.906 162.016 310.906 156.938H308.906C308.906 161.796 308.096 165.996 306.508 169.562L308.335 170.376ZM310.906 156.938V152.766H308.906V156.938H310.906ZM310.906 152.766C310.906 148.781 310.428 145.21 309.455 142.064L307.545 142.655C308.447 145.571 308.906 148.937 308.906 152.766H310.906ZM309.456 142.067C308.484 138.892 307.048 136.185 305.131 133.97L303.619 135.28C305.327 137.253 306.641 139.702 307.544 142.652L309.456 142.067ZM305.136 133.976C303.219 131.729 300.871 130.027 298.103 128.874L297.334 130.72C299.817 131.754 301.906 133.271 303.614 135.274L305.136 133.976ZM298.107 128.875C295.369 127.721 292.248 127.156 288.766 127.156V129.156C292.033 129.156 294.881 129.686 297.33 130.718L298.107 128.875ZM288.766 127.156H273.391V129.156H288.766V127.156ZM274.391 128.156V120.75H272.391V128.156H274.391ZM273.391 121.75H288.766V119.75H273.391V121.75ZM288.766 121.75C293.121 121.75 297.069 122.481 300.623 123.926L301.377 122.074C297.556 120.519 293.348 119.75 288.766 119.75V121.75ZM300.63 123.929C304.186 125.345 307.235 127.405 309.789 130.108L311.243 128.735C308.484 125.814 305.189 123.592 301.37 122.071L300.63 123.929ZM309.797 130.117C312.378 132.788 314.369 136.039 315.763 139.887L317.643 139.206C316.162 135.117 314.029 131.618 311.235 128.727L309.797 130.117ZM315.764 139.89C317.155 143.7 317.859 148.018 317.859 152.859H319.859C319.859 147.825 319.127 143.269 317.642 139.204L315.764 139.89ZM317.859 152.859V156.938H319.859V152.859H317.859ZM317.859 156.938C317.859 161.778 317.155 166.114 315.763 169.956L317.643 170.637C319.126 166.543 319.859 161.972 319.859 156.938H317.859ZM315.764 169.954C314.371 173.769 312.366 177.004 309.754 179.676L311.184 181.074C314.009 178.184 316.16 174.7 317.642 170.64L315.764 169.954ZM309.75 179.68C307.167 182.352 304.04 184.416 300.353 185.866L301.085 187.727C305.022 186.178 308.395 183.96 311.188 181.07L309.75 179.68ZM300.357 185.865C296.709 187.282 292.569 188 287.922 188V190C292.775 190 297.166 189.25 301.081 187.729L300.357 185.865ZM277.5 120.75V189H279.5V120.75H277.5ZM278.5 188H269.453V190H278.5V188ZM270.453 189V120.75H268.453V189H270.453ZM269.453 121.75H278.5V119.75H269.453V121.75ZM342.156 120.75H343.156V119.75H342.156V120.75ZM342.156 189V190H343.156V189H342.156ZM333.109 189H332.109V190H333.109V189ZM333.109 120.75V119.75H332.109V120.75H333.109ZM341.156 120.75V189H343.156V120.75H341.156ZM342.156 188H333.109V190H342.156V188ZM334.109 189V120.75H332.109V189H334.109ZM333.109 121.75H342.156V119.75H333.109V121.75ZM395.031 187.688L394.625 186.774L394.622 186.775L395.031 187.688ZM372.672 187.688L372.263 188.6L372.266 188.601L372.672 187.688ZM363.953 181.172L363.194 181.823L363.198 181.827L363.953 181.172ZM358.234 138.984L357.285 138.67L357.284 138.675L358.234 138.984ZM363.906 128.625L364.666 129.276L364.669 129.272L363.906 128.625ZM372.578 122.062L372.172 121.149L372.169 121.15L372.578 122.062ZM394.938 122.062L394.528 122.975L394.531 122.976L394.938 122.062ZM403.609 128.625L402.842 129.267L402.85 129.276L403.609 128.625ZM409.188 138.984L408.234 139.285L408.237 139.294L409.188 138.984ZM400.938 141.844L399.97 142.095L399.972 142.104L400.938 141.844ZM391.469 129.141L391.036 130.042L391.041 130.045L391.469 129.141ZM376.047 129.141L375.615 128.239L375.61 128.241L376.047 129.141ZM370.234 133.969L369.44 133.361L369.434 133.369L370.234 133.969ZM366.531 167.906L365.568 168.173L365.568 168.176L366.531 167.906ZM370.281 175.828L369.483 176.43L369.488 176.436L369.493 176.443L370.281 175.828ZM376.141 180.656L375.703 181.556L375.708 181.558L376.141 180.656ZM397.375 175.828L396.571 175.234L396.569 175.236L397.375 175.828ZM400.984 167.906L401.952 168.158L401.953 168.156L400.984 167.906ZM410.156 152.719V157.031H412.156V152.719H410.156ZM410.156 157.031C410.156 162.074 409.526 166.564 408.281 170.512L410.188 171.113C411.506 166.936 412.156 162.238 412.156 157.031H410.156ZM408.281 170.512C407.034 174.466 405.249 177.797 402.94 180.526L404.467 181.818C406.97 178.859 408.873 175.284 410.188 171.113L408.281 170.512ZM402.94 180.526C400.63 183.256 397.861 185.335 394.625 186.774L395.437 188.601C398.951 187.04 401.964 184.776 404.467 181.818L402.94 180.526ZM394.622 186.775C391.423 188.21 387.815 188.938 383.781 188.938V190.938C388.06 190.938 391.952 190.165 395.441 188.6L394.622 186.775ZM383.781 188.938C379.877 188.938 376.314 188.212 373.078 186.774L372.266 188.601C375.78 190.163 379.623 190.938 383.781 190.938V188.938ZM373.081 186.775C369.874 185.336 367.084 183.253 364.708 180.516L363.198 181.827C365.759 184.778 368.783 187.039 372.263 188.6L373.081 186.775ZM364.712 180.521C362.371 177.789 360.539 174.455 359.231 170.498L357.332 171.127C358.711 175.295 360.66 178.867 363.194 181.823L364.712 180.521ZM359.231 170.498C357.926 166.555 357.266 162.07 357.266 157.031H355.266C355.266 162.243 355.949 166.945 357.332 171.127L359.231 170.498ZM357.266 157.031V152.719H355.266V157.031H357.266ZM357.266 152.719C357.266 147.678 357.911 143.207 359.185 139.294L357.284 138.675C355.932 142.824 355.266 147.51 355.266 152.719H357.266ZM359.184 139.298C360.492 135.342 362.324 132.008 364.666 129.276L363.147 127.974C360.614 130.93 358.664 134.502 357.285 138.67L359.184 139.298ZM364.669 129.272C367.013 126.507 369.784 124.412 372.987 122.975L372.169 121.15C368.685 122.713 365.675 124.993 363.143 127.978L364.669 129.272ZM372.984 122.976C376.22 121.538 379.783 120.812 383.688 120.812V118.812C379.529 118.812 375.686 119.587 372.172 121.149L372.984 122.976ZM383.688 120.812C387.722 120.812 391.329 121.54 394.528 122.975L395.347 121.15C391.858 119.585 387.966 118.812 383.688 118.812V120.812ZM394.531 122.976C397.765 124.413 400.533 126.507 402.843 129.267L404.376 127.983C401.874 124.993 398.86 122.712 395.344 121.149L394.531 122.976ZM402.85 129.276C405.189 132.004 406.988 135.334 408.234 139.285L410.141 138.684C408.825 134.51 406.905 130.933 404.369 127.974L402.85 129.276ZM408.237 139.294C409.511 143.207 410.156 147.678 410.156 152.719H412.156C412.156 147.51 411.489 142.824 410.138 138.675L408.237 139.294ZM403.203 157.031V152.625H401.203V157.031H403.203ZM403.203 152.625C403.203 148.496 402.775 144.811 401.903 141.583L399.972 142.104C400.788 145.126 401.203 148.629 401.203 152.625H403.203ZM401.905 141.592C401.067 138.368 399.815 135.618 398.128 133.369L396.528 134.569C398.029 136.57 399.183 139.07 399.97 142.095L401.905 141.592ZM398.128 133.369C396.441 131.119 394.362 129.403 391.896 128.237L391.041 130.045C393.201 131.066 395.028 132.569 396.528 134.569L398.128 133.369ZM391.901 128.239C389.466 127.071 386.721 126.5 383.688 126.5V128.5C386.466 128.5 388.909 129.022 391.036 130.042L391.901 128.239ZM383.688 126.5C380.742 126.5 378.045 127.074 375.615 128.239L376.479 130.042C378.611 129.02 381.008 128.5 383.688 128.5V126.5ZM375.61 128.241C373.21 129.408 371.153 131.121 369.44 133.361L371.029 134.576C372.566 132.566 374.384 131.061 376.484 130.04L375.61 128.241ZM369.434 133.369C367.752 135.612 366.469 138.355 365.568 141.574L367.494 142.113C368.343 139.082 369.529 136.575 371.034 134.569L369.434 133.369ZM365.568 141.574C364.663 144.806 364.219 148.493 364.219 152.625H366.219C366.219 148.632 366.649 145.132 367.494 142.113L365.568 141.574ZM364.219 152.625V157.031H366.219V152.625H364.219ZM364.219 157.031C364.219 161.194 364.663 164.912 365.568 168.173L367.495 167.639C366.649 164.588 366.219 161.056 366.219 157.031H364.219ZM365.568 168.176C366.47 171.397 367.769 174.156 369.483 176.43L371.08 175.226C369.543 173.187 368.342 170.665 367.494 167.637L365.568 168.176ZM369.493 176.443C371.235 178.679 373.306 180.39 375.703 181.556L376.578 179.757C374.476 178.735 372.64 177.227 371.07 175.213L369.493 176.443ZM375.708 181.558C378.139 182.723 380.836 183.297 383.781 183.297V181.297C381.102 181.297 378.705 180.777 376.573 179.755L375.708 181.558ZM383.781 183.297C386.844 183.297 389.605 182.726 392.042 181.558L391.177 179.755C389.051 180.774 386.593 181.297 383.781 181.297V183.297ZM392.042 181.558C394.477 180.39 396.525 178.672 398.181 176.421L396.569 175.236C395.1 177.234 393.304 178.735 391.177 179.755L392.042 181.558ZM398.179 176.423C399.863 174.145 401.114 171.382 401.952 168.158L400.017 167.655C399.23 170.681 398.075 173.199 396.571 175.234L398.179 176.423ZM401.953 168.156C402.791 164.9 403.203 161.189 403.203 157.031H401.203C401.203 161.061 400.803 164.6 400.016 167.657L401.953 168.156ZM460.328 167.531L459.392 167.882L459.397 167.897L459.403 167.911L460.328 167.531ZM457.797 164.156L457.153 164.921L457.163 164.929L457.797 164.156ZM452.828 161.297L452.431 162.215L452.436 162.217L452.828 161.297ZM444.859 158.531L444.575 159.49L444.58 159.491L444.859 158.531ZM435.719 155.203L435.301 156.112L435.31 156.116L435.719 155.203ZM429.062 125.156L429.694 125.931L429.696 125.93L429.062 125.156ZM458.969 122.766L458.485 123.641L458.494 123.646L458.969 122.766ZM467.172 130.406L466.312 130.917L466.314 130.921L467.172 130.406ZM469.984 140.438V141.438H470.984V140.438H469.984ZM460.984 140.438H459.984V141.438H460.984V140.438ZM459.344 133.641L458.466 134.12L458.47 134.126L459.344 133.641ZM454.375 128.953L453.913 129.84L453.923 129.845L454.375 128.953ZM433.281 132.609L432.432 132.081L432.425 132.093L433.281 132.609ZM432.672 142.219L431.777 142.666L431.785 142.68L431.792 142.694L432.672 142.219ZM435.531 145.453L434.916 146.241L434.925 146.249L435.531 145.453ZM440.5 148.219L440.111 149.14L440.116 149.142L440.5 148.219ZM447.766 150.656L448.037 149.694L448.033 149.693L447.766 150.656ZM464.734 158.859L464.053 159.591L464.059 159.597L464.066 159.603L464.734 158.859ZM468.812 164.531L467.888 164.912L467.891 164.92L467.895 164.928L468.812 164.531ZM456.109 188.672L456.388 189.632L456.395 189.63L456.109 188.672ZM437.031 188.625L436.754 189.586L436.757 189.587L437.031 188.625ZM428.734 184.688L428.156 185.503L428.161 185.507L428.734 184.688ZM422.781 178.219L421.911 178.711L421.915 178.718L421.918 178.724L422.781 178.219ZM420.578 169.219V168.219H419.578V169.219H420.578ZM429.578 169.219H430.578V168.219H429.578V169.219ZM430.938 175.266L430.056 175.739L430.06 175.746L430.938 175.266ZM434.641 179.391L434.067 180.21L434.075 180.215L434.641 179.391ZM440.031 181.828L439.775 182.795L439.783 182.797L439.792 182.799L440.031 181.828ZM459.344 177.516L458.529 176.936L458.522 176.946L459.344 177.516ZM462.078 171.75C462.078 170.053 461.812 168.513 461.253 167.152L459.403 167.911C459.844 168.987 460.078 170.26 460.078 171.75H462.078ZM461.264 167.18C460.724 165.738 459.761 164.474 458.431 163.383L457.163 164.929C458.27 165.838 458.995 166.825 459.392 167.882L461.264 167.18ZM458.441 163.391C457.15 162.305 455.397 161.305 453.22 160.377L452.436 162.217C454.51 163.101 456.068 164.008 457.153 164.921L458.441 163.391ZM453.225 160.379C451.08 159.451 448.381 158.515 445.139 157.571L444.58 159.491C447.775 160.422 450.389 161.331 452.431 162.215L453.225 160.379ZM445.143 157.572C441.804 156.583 438.799 155.488 436.128 154.291L435.31 156.116C438.076 157.355 441.165 158.48 444.575 159.49L445.143 157.572ZM436.136 154.295C433.481 153.074 431.229 151.695 429.37 150.165L428.099 151.71C430.114 153.367 432.519 154.832 435.301 156.112L436.136 154.295ZM429.37 150.165C427.531 148.653 426.139 146.932 425.176 145.006L423.387 145.9C424.486 148.099 426.063 150.035 428.099 151.71L429.37 150.165ZM425.176 145.006C424.224 143.102 423.734 140.9 423.734 138.375H421.734C421.734 141.163 422.276 143.679 423.387 145.9L425.176 145.006ZM423.734 138.375C423.734 135.861 424.251 133.558 425.274 131.453L423.476 130.578C422.312 132.973 421.734 135.577 421.734 138.375H423.734ZM425.274 131.453C426.302 129.34 427.77 127.5 429.694 125.931L428.431 124.381C426.292 126.125 424.636 128.192 423.476 130.578L425.274 131.453ZM429.696 125.93C431.652 124.329 433.993 123.072 436.735 122.168L436.109 120.269C433.163 121.24 430.598 122.608 428.429 124.382L429.696 125.93ZM436.735 122.168C439.462 121.269 442.526 120.812 445.938 120.812V118.812C442.349 118.812 439.069 119.293 436.109 120.269L436.735 122.168ZM445.938 120.812C450.936 120.812 455.104 121.773 458.485 123.641L459.452 121.89C455.708 119.821 451.189 118.812 445.938 118.812V120.812ZM458.494 123.646C461.947 125.507 464.54 127.934 466.312 130.917L468.032 129.896C466.054 126.566 463.178 123.899 459.443 121.885L458.494 123.646ZM466.314 130.921C468.098 133.894 468.984 137.061 468.984 140.438H470.984C470.984 136.689 469.995 133.168 468.029 129.892L466.314 130.921ZM469.984 139.438H460.984V141.438H469.984V139.438ZM461.984 140.438C461.984 137.729 461.405 135.292 460.218 133.155L458.47 134.126C459.47 135.927 459.984 138.021 459.984 140.438H461.984ZM460.221 133.161C459.022 130.967 457.209 129.269 454.827 128.061L453.923 129.845C455.979 130.887 457.478 132.314 458.466 134.12L460.221 133.161ZM454.837 128.066C452.434 126.814 449.449 126.219 445.938 126.219V128.219C449.238 128.219 451.879 128.78 453.913 129.84L454.837 128.066ZM445.938 126.219C442.627 126.219 439.815 126.716 437.549 127.764L438.389 129.579C440.31 128.691 442.81 128.219 445.938 128.219V126.219ZM437.549 127.764C435.311 128.8 433.584 130.231 432.432 132.081L434.13 133.138C435.041 131.675 436.439 130.482 438.389 129.579L437.549 127.764ZM432.425 132.093C431.322 133.92 430.781 135.993 430.781 138.281H432.781C432.781 136.32 433.241 134.611 434.137 133.126L432.425 132.093ZM430.781 138.281C430.781 139.861 431.109 141.328 431.777 142.666L433.566 141.772C433.048 140.734 432.781 139.577 432.781 138.281H430.781ZM431.792 142.694C432.496 143.997 433.551 145.176 434.916 146.241L436.147 144.665C434.949 143.73 434.097 142.753 433.552 141.743L431.792 142.694ZM434.925 146.249C436.322 147.313 438.057 148.273 440.111 149.14L440.889 147.297C438.943 146.477 437.366 145.594 436.137 144.658L434.925 146.249ZM440.116 149.142C442.195 150.006 444.658 150.831 447.498 151.62L448.033 149.693C445.248 148.919 442.867 148.119 440.884 147.295L440.116 149.142ZM447.494 151.619C451.329 152.701 454.617 153.901 457.366 155.215L458.228 153.41C455.352 152.036 451.952 150.799 448.037 149.694L447.494 151.619ZM457.366 155.215C460.109 156.526 462.331 157.988 464.053 159.591L465.416 158.127C463.513 156.356 461.11 154.787 458.228 153.41L457.366 155.215ZM464.066 159.603C465.807 161.167 467.074 162.936 467.888 164.912L469.737 164.151C468.801 161.876 467.349 159.864 465.403 158.115L464.066 159.603ZM467.895 164.928C468.739 166.878 469.172 169.114 469.172 171.656H471.172C471.172 168.886 470.699 166.372 469.73 164.134L467.895 164.928ZM469.172 171.656C469.172 174.299 468.638 176.659 467.59 178.756L469.379 179.65C470.58 177.247 471.172 174.576 471.172 171.656H469.172ZM467.59 178.756C466.536 180.863 465.028 182.667 463.051 184.173L464.262 185.764C466.472 184.083 468.182 182.043 469.379 179.65L467.59 178.756ZM463.051 184.173C461.067 185.683 458.664 186.867 455.824 187.713L456.395 189.63C459.429 188.726 462.058 187.442 464.262 185.764L463.051 184.173ZM455.831 187.712C453.03 188.525 449.876 188.938 446.359 188.938V190.938C450.03 190.938 453.376 190.507 456.388 189.632L455.831 187.712ZM446.359 188.938C443.297 188.938 440.28 188.513 437.306 187.663L436.757 189.587C439.908 190.487 443.109 190.938 446.359 190.938V188.938ZM437.309 187.664C434.38 186.819 431.715 185.553 429.308 183.868L428.161 185.507C430.754 187.322 433.62 188.681 436.754 189.586L437.309 187.664ZM429.313 183.872C426.958 182.202 425.071 180.151 423.644 177.714L421.918 178.724C423.491 181.411 425.574 183.673 428.156 185.503L429.313 183.872ZM423.651 177.726C422.279 175.303 421.578 172.477 421.578 169.219H419.578C419.578 172.773 420.346 175.947 421.911 178.711L423.651 177.726ZM420.578 170.219H429.578V168.219H420.578V170.219ZM428.578 169.219C428.578 171.691 429.057 173.877 430.057 175.739L431.818 174.792C431.006 173.28 430.578 171.434 430.578 169.219H428.578ZM430.06 175.746C431.041 177.538 432.38 179.029 434.067 180.21L435.214 178.571C433.776 177.565 432.646 176.306 431.815 174.786L430.06 175.746ZM434.075 180.215C435.769 181.378 437.672 182.236 439.775 182.795L440.288 180.862C438.391 180.358 436.7 179.591 435.206 178.566L434.075 180.215ZM439.792 182.799C441.905 183.319 444.095 183.578 446.359 183.578V181.578C444.249 181.578 442.22 181.337 440.27 180.857L439.792 182.799ZM446.359 183.578C449.602 183.578 452.408 183.129 454.746 182.194L454.004 180.337C451.967 181.152 449.429 181.578 446.359 181.578V183.578ZM454.746 182.194C457.081 181.26 458.909 179.9 460.166 178.085L458.522 176.946C457.528 178.381 456.044 179.521 454.004 180.337L454.746 182.194ZM460.159 178.095C461.449 176.282 462.078 174.152 462.078 171.75H460.078C460.078 173.785 459.551 175.499 458.529 176.936L460.159 178.095Z" fill="black"/>
<path d="M510 189L510 172.923L512.502 151L531.497 151L534 172.923L534 189L510 189Z" fill="black"/>
<path d="M521.999 110C512.013 110 504 118.014 504 128C504 137.986 512.136 146 521.999 146C531.985 146 539.999 137.986 539.999 128C540.123 118.014 531.985 110 521.999 110Z" fill="#0C08E1"/>
</svg>
