<svg width="549" height="213" viewBox="0 0 549 213" fill="none" xmlns="http://www.w3.org/2000/svg">
<path d="M12.5156 20.75H24.4219L41.9531 70.8594L59.4844 20.75H71.3906L46.7344 89H37.1719L12.5156 20.75ZM6.09375 20.75H17.9531L20.1094 69.5938V89H6.09375V20.75ZM65.9531 20.75H77.8594V89H63.7969V69.5938L65.9531 20.75ZM140.784 78.0312V89H104.456V78.0312H140.784ZM109.05 20.75V89H94.9875V20.75H109.05ZM136.05 48.5469V59.2344H104.456V48.5469H136.05ZM140.738 20.75V31.7656H104.456V20.75H140.738ZM185.241 20.75V89H171.225V20.75H185.241ZM206.241 20.75V31.7656H150.553V20.75H206.241ZM241.744 32.4219L223.181 89H208.228L233.587 20.75H243.103L241.744 32.4219ZM257.166 89L238.556 32.4219L237.056 20.75H246.666L272.166 89H257.166ZM256.322 63.5938V74.6094H220.275V63.5938H256.322ZM297.403 78.1719L310.997 20.75H318.591L320.325 30.3125L305.841 89H297.684L297.403 78.1719ZM290.419 20.75L301.669 78.1719L300.731 89H291.638L276.497 20.75H290.419ZM332.278 77.9375L343.388 20.75H357.309L342.216 89H333.122L332.278 77.9375ZM322.856 20.75L336.544 78.4062L336.169 89H328.013L313.434 30.2656L315.309 20.75H322.856ZM395.438 32.4219L376.875 89H361.922L387.281 20.75H396.797L395.438 32.4219ZM410.859 89L392.25 32.4219L390.75 20.75H400.359L425.859 89H410.859ZM410.016 63.5938V74.6094H373.969V63.5938H410.016ZM457.753 74.75L473.831 20.75H489.487L465.722 89H455.409L457.753 74.75ZM442.941 20.75L458.972 74.75L461.409 89H451.003L427.378 20.75H442.941ZM546.459 78.0312V89H510.131V78.0312H546.459ZM514.725 20.75V89H500.663V20.75H514.725ZM541.725 48.5469V59.2344H510.131V48.5469H541.725ZM546.413 20.75V31.7656H510.131V20.75H546.413Z" fill="black"/>
<path d="M12.5156 20.75V19.75H11.0911L11.5751 21.0898L12.5156 20.75ZM24.4219 20.75L25.3658 20.4198L25.1315 19.75H24.4219V20.75ZM41.9531 70.8594L41.0092 71.1896L41.9531 73.8875L42.897 71.1896L41.9531 70.8594ZM59.4844 20.75V19.75H58.7748L58.5405 20.4198L59.4844 20.75ZM71.3906 20.75L72.3311 21.0898L72.8151 19.75H71.3906V20.75ZM46.7344 89V90H47.4364L47.6749 89.3398L46.7344 89ZM37.1719 89L36.2314 89.3398L36.4699 90H37.1719V89ZM6.09375 20.75V19.75H5.09375V20.75H6.09375ZM17.9531 20.75L18.9522 20.7059L18.91 19.75H17.9531V20.75ZM20.1094 69.5938H21.1094V69.5717L21.1084 69.5496L20.1094 69.5938ZM20.1094 89V90H21.1094V89H20.1094ZM6.09375 89H5.09375V90H6.09375V89ZM65.9531 20.75V19.75H64.9963L64.9541 20.7059L65.9531 20.75ZM77.8594 20.75H78.8594V19.75H77.8594V20.75ZM77.8594 89V90H78.8594V89H77.8594ZM63.7969 89H62.7969V90H63.7969V89ZM63.7969 69.5938L62.7978 69.5496L62.7969 69.5717V69.5938H63.7969ZM12.5156 21.75H24.4219V19.75H12.5156V21.75ZM23.478 21.0802L41.0092 71.1896L42.897 70.5291L25.3658 20.4198L23.478 21.0802ZM42.897 71.1896L60.4283 21.0802L58.5405 20.4198L41.0092 70.5291L42.897 71.1896ZM59.4844 21.75H71.3906V19.75H59.4844V21.75ZM70.4501 20.4102L45.7939 88.6602L47.6749 89.3398L72.3311 21.0898L70.4501 20.4102ZM46.7344 88H37.1719V90H46.7344V88ZM38.1124 88.6602L13.4561 20.4102L11.5751 21.0898L36.2314 89.3398L38.1124 88.6602ZM6.09375 21.75H17.9531V19.75H6.09375V21.75ZM16.9541 20.7941L19.1103 69.6379L21.1084 69.5496L18.9522 20.7059L16.9541 20.7941ZM19.1094 69.5938V89H21.1094V69.5938H19.1094ZM20.1094 88H6.09375V90H20.1094V88ZM7.09375 89V20.75H5.09375V89H7.09375ZM65.9531 21.75H77.8594V19.75H65.9531V21.75ZM76.8594 20.75V89H78.8594V20.75H76.8594ZM77.8594 88H63.7969V90H77.8594V88ZM64.7969 89V69.5938H62.7969V89H64.7969ZM64.7959 69.6379L66.9521 20.7941L64.9541 20.7059L62.7978 69.5496L64.7959 69.6379ZM140.784 78.0312H141.784V77.0312H140.784V78.0312ZM140.784 89V90H141.784V89H140.784ZM104.456 89H103.456V90H104.456V89ZM104.456 78.0312V77.0312H103.456V78.0312H104.456ZM109.05 20.75H110.05V19.75H109.05V20.75ZM109.05 89V90H110.05V89H109.05ZM94.9875 89H93.9875V90H94.9875V89ZM94.9875 20.75V19.75H93.9875V20.75H94.9875ZM136.05 48.5469H137.05V47.5469H136.05V48.5469ZM136.05 59.2344V60.2344H137.05V59.2344H136.05ZM104.456 59.2344H103.456V60.2344H104.456V59.2344ZM104.456 48.5469V47.5469H103.456V48.5469H104.456ZM140.738 20.75H141.738V19.75H140.738V20.75ZM140.738 31.7656V32.7656H141.738V31.7656H140.738ZM104.456 31.7656H103.456V32.7656H104.456V31.7656ZM104.456 20.75V19.75H103.456V20.75H104.456ZM139.784 78.0312V89H141.784V78.0312H139.784ZM140.784 88H104.456V90H140.784V88ZM105.456 89V78.0312H103.456V89H105.456ZM104.456 79.0312H140.784V77.0312H104.456V79.0312ZM108.05 20.75V89H110.05V20.75H108.05ZM109.05 88H94.9875V90H109.05V88ZM95.9875 89V20.75H93.9875V89H95.9875ZM94.9875 21.75H109.05V19.75H94.9875V21.75ZM135.05 48.5469V59.2344H137.05V48.5469H135.05ZM136.05 58.2344H104.456V60.2344H136.05V58.2344ZM105.456 59.2344V48.5469H103.456V59.2344H105.456ZM104.456 49.5469H136.05V47.5469H104.456V49.5469ZM139.738 20.75V31.7656H141.738V20.75H139.738ZM140.738 30.7656H104.456V32.7656H140.738V30.7656ZM105.456 31.7656V20.75H103.456V31.7656H105.456ZM104.456 21.75H140.738V19.75H104.456V21.75ZM185.241 20.75H186.241V19.75H185.241V20.75ZM185.241 89V90H186.241V89H185.241ZM171.225 89H170.225V90H171.225V89ZM171.225 20.75V19.75H170.225V20.75H171.225ZM206.241 20.75H207.241V19.75H206.241V20.75ZM206.241 31.7656V32.7656H207.241V31.7656H206.241ZM150.553 31.7656H149.553V32.7656H150.553V31.7656ZM150.553 20.75V19.75H149.553V20.75H150.553ZM184.241 20.75V89H186.241V20.75H184.241ZM185.241 88H171.225V90H185.241V88ZM172.225 89V20.75H170.225V89H172.225ZM171.225 21.75H185.241V19.75H171.225V21.75ZM205.241 20.75V31.7656H207.241V20.75H205.241ZM206.241 30.7656H150.553V32.7656H206.241V30.7656ZM151.553 31.7656V20.75H149.553V31.7656H151.553ZM150.553 21.75H206.241V19.75H150.553V21.75ZM241.744 32.4219L242.694 32.7336L242.725 32.6378L242.737 32.5376L241.744 32.4219ZM223.181 89V90H223.906L224.131 89.3117L223.181 89ZM208.228 89L207.291 88.6517L206.79 90H208.228V89ZM233.587 20.75V19.75H232.892L232.65 20.4017L233.587 20.75ZM243.103 20.75L244.096 20.8657L244.226 19.75H243.103V20.75ZM257.166 89L256.216 89.3124L256.442 90H257.166V89ZM238.556 32.4219L237.564 32.5493L237.577 32.6438L237.606 32.7343L238.556 32.4219ZM237.056 20.75V19.75H235.92L236.064 20.8775L237.056 20.75ZM246.666 20.75L247.602 20.4L247.36 19.75H246.666V20.75ZM272.166 89V90H273.607L273.102 88.65L272.166 89ZM256.322 63.5938H257.322V62.5938H256.322V63.5938ZM256.322 74.6094V75.6094H257.322V74.6094H256.322ZM220.275 74.6094H219.275V75.6094H220.275V74.6094ZM220.275 63.5938V62.5938H219.275V63.5938H220.275ZM240.794 32.1101L222.231 88.6883L224.131 89.3117L242.694 32.7336L240.794 32.1101ZM223.181 88H208.228V90H223.181V88ZM209.165 89.3483L234.525 21.0983L232.65 20.4017L207.291 88.6517L209.165 89.3483ZM233.587 21.75H243.103V19.75H233.587V21.75ZM242.11 20.6343L240.75 32.3062L242.737 32.5376L244.096 20.8657L242.11 20.6343ZM258.116 88.6876L239.506 32.1094L237.606 32.7343L256.216 89.3124L258.116 88.6876ZM239.548 32.2944L238.048 20.6225L236.064 20.8775L237.564 32.5493L239.548 32.2944ZM237.056 21.75H246.666V19.75H237.056V21.75ZM245.729 21.1L271.229 89.35L273.102 88.65L247.602 20.4L245.729 21.1ZM272.166 88H257.166V90H272.166V88ZM255.322 63.5938V74.6094H257.322V63.5938H255.322ZM256.322 73.6094H220.275V75.6094H256.322V73.6094ZM221.275 74.6094V63.5938H219.275V74.6094H221.275ZM220.275 64.5938H256.322V62.5938H220.275V64.5938ZM297.403 78.1719L296.43 77.9415L296.4 78.0679L296.403 78.1978L297.403 78.1719ZM310.997 20.75V19.75H310.206L310.024 20.5196L310.997 20.75ZM318.591 20.75L319.575 20.5715L319.426 19.75H318.591V20.75ZM320.325 30.3125L321.296 30.5521L321.347 30.3445L321.309 30.134L320.325 30.3125ZM305.841 89V90H306.624L306.811 89.2396L305.841 89ZM297.684 89L296.685 89.026L296.71 90H297.684V89ZM290.419 20.75L291.4 20.5577L291.242 19.75H290.419V20.75ZM301.669 78.1719L302.665 78.2581L302.677 78.1178L302.65 77.9796L301.669 78.1719ZM300.731 89V90H301.648L301.728 89.0863L300.731 89ZM291.638 89L290.661 89.2166L290.835 90H291.638V89ZM276.497 20.75V19.75H275.251L275.521 20.9666L276.497 20.75ZM332.278 77.9375L331.296 77.7468L331.271 77.8791L331.281 78.0135L332.278 77.9375ZM343.388 20.75V19.75H342.563L342.406 20.5593L343.388 20.75ZM357.309 20.75L358.286 20.9659L358.555 19.75H357.309V20.75ZM342.216 89V90H343.019L343.192 89.2159L342.216 89ZM333.122 89L332.125 89.076L332.195 90H333.122V89ZM322.856 20.75L323.829 20.519L323.647 19.75H322.856V20.75ZM336.544 78.4062L337.543 78.4416L337.548 78.3067L337.517 78.1753L336.544 78.4062ZM336.169 89V90H337.134L337.168 89.0354L336.169 89ZM328.013 89L327.042 89.2409L327.23 90H328.013V89ZM313.434 30.2656L312.453 30.0723L312.41 30.2906L312.464 30.5065L313.434 30.2656ZM315.309 20.75V19.75H314.487L314.328 20.5567L315.309 20.75ZM298.376 78.4022L311.97 20.9804L310.024 20.5196L296.43 77.9415L298.376 78.4022ZM310.997 21.75H318.591V19.75H310.997V21.75ZM317.607 20.9285L319.341 30.491L321.309 30.134L319.575 20.5715L317.607 20.9285ZM319.354 30.0729L304.87 88.7604L306.811 89.2396L321.296 30.5521L319.354 30.0729ZM305.841 88H297.684V90H305.841V88ZM298.684 88.974L298.403 78.1459L296.403 78.1978L296.685 89.026L298.684 88.974ZM289.437 20.9423L300.687 78.3641L302.65 77.9796L291.4 20.5577L289.437 20.9423ZM300.672 78.0856L299.735 88.9137L301.728 89.0863L302.665 78.2581L300.672 78.0856ZM300.731 88H291.638V90H300.731V88ZM292.614 88.7834L277.473 20.5334L275.521 20.9666L290.661 89.2166L292.614 88.7834ZM276.497 21.75H290.419V19.75H276.497V21.75ZM333.26 78.1282L344.369 20.9407L342.406 20.5593L331.296 77.7468L333.26 78.1282ZM343.388 21.75H357.309V19.75H343.388V21.75ZM356.333 20.5341L341.239 88.7841L343.192 89.2159L358.286 20.9659L356.333 20.5341ZM342.216 88H333.122V90H342.216V88ZM334.119 88.924L333.275 77.8615L331.281 78.0135L332.125 89.076L334.119 88.924ZM321.883 20.981L335.571 78.6372L337.517 78.1753L323.829 20.519L321.883 20.981ZM335.544 78.3709L335.169 88.9646L337.168 89.0354L337.543 78.4416L335.544 78.3709ZM336.169 88H328.013V90H336.169V88ZM328.983 88.7591L314.405 30.0247L312.464 30.5065L327.042 89.2409L328.983 88.7591ZM314.416 30.459L316.291 20.9433L314.328 20.5567L312.453 30.0723L314.416 30.459ZM315.309 21.75H322.856V19.75H315.309V21.75ZM395.438 32.4219L396.388 32.7336L396.419 32.6378L396.431 32.5376L395.438 32.4219ZM376.875 89V90H377.599L377.825 89.3117L376.875 89ZM361.922 89L360.984 88.6517L360.484 90H361.922V89ZM387.281 20.75V19.75H386.586L386.344 20.4017L387.281 20.75ZM396.797 20.75L397.79 20.8657L397.92 19.75H396.797V20.75ZM410.859 89L409.909 89.3124L410.136 90H410.859V89ZM392.25 32.4219L391.258 32.5493L391.27 32.6438L391.3 32.7343L392.25 32.4219ZM390.75 20.75V19.75H389.613L389.758 20.8775L390.75 20.75ZM400.359 20.75L401.296 20.4L401.053 19.75H400.359V20.75ZM425.859 89V90H427.301L426.796 88.65L425.859 89ZM410.016 63.5938H411.016V62.5938H410.016V63.5938ZM410.016 74.6094V75.6094H411.016V74.6094H410.016ZM373.969 74.6094H372.969V75.6094H373.969V74.6094ZM373.969 63.5938V62.5938H372.969V63.5938H373.969ZM394.487 32.1101L375.925 88.6883L377.825 89.3117L396.388 32.7336L394.487 32.1101ZM376.875 88H361.922V90H376.875V88ZM362.859 89.3483L388.219 21.0983L386.344 20.4017L360.984 88.6517L362.859 89.3483ZM387.281 21.75H396.797V19.75H387.281V21.75ZM395.804 20.6343L394.444 32.3062L396.431 32.5376L397.79 20.8657L395.804 20.6343ZM411.809 88.6876L393.2 32.1094L391.3 32.7343L409.909 89.3124L411.809 88.6876ZM393.242 32.2944L391.742 20.6225L389.758 20.8775L391.258 32.5493L393.242 32.2944ZM390.75 21.75H400.359V19.75H390.75V21.75ZM399.423 21.1L424.923 89.35L426.796 88.65L401.296 20.4L399.423 21.1ZM425.859 88H410.859V90H425.859V88ZM409.016 63.5938V74.6094H411.016V63.5938H409.016ZM410.016 73.6094H373.969V75.6094H410.016V73.6094ZM374.969 74.6094V63.5938H372.969V74.6094H374.969ZM373.969 64.5938H410.016V62.5938H373.969V64.5938ZM457.753 74.75L456.795 74.4646L456.777 74.5253L456.766 74.5877L457.753 74.75ZM473.831 20.75V19.75H473.086L472.873 20.4646L473.831 20.75ZM489.487 20.75L490.432 21.0788L490.895 19.75H489.487V20.75ZM465.722 89V90H466.433L466.666 89.3288L465.722 89ZM455.409 89L454.423 88.8377L454.231 90H455.409V89ZM442.941 20.75L443.899 20.4654L443.687 19.75H442.941V20.75ZM458.972 74.75L459.958 74.5814L459.947 74.5226L459.931 74.4654L458.972 74.75ZM461.409 89V90H462.595L462.395 88.8314L461.409 89ZM451.003 89L450.058 89.3271L450.291 90H451.003V89ZM427.378 20.75V19.75H425.974L426.433 21.0771L427.378 20.75ZM458.712 75.0354L474.79 21.0354L472.873 20.4646L456.795 74.4646L458.712 75.0354ZM473.831 21.75H489.487V19.75H473.831V21.75ZM488.543 20.4212L464.777 88.6712L466.666 89.3288L490.432 21.0788L488.543 20.4212ZM465.722 88H455.409V90H465.722V88ZM456.396 89.1623L458.74 74.9123L456.766 74.5877L454.423 88.8377L456.396 89.1623ZM441.982 21.0346L458.013 75.0346L459.931 74.4654L443.899 20.4654L441.982 21.0346ZM457.986 74.9186L460.424 89.1686L462.395 88.8314L459.958 74.5814L457.986 74.9186ZM461.409 88H451.003V90H461.409V88ZM451.948 88.6729L428.323 20.4229L426.433 21.0771L450.058 89.3271L451.948 88.6729ZM427.378 21.75H442.941V19.75H427.378V21.75ZM546.459 78.0312H547.459V77.0312H546.459V78.0312ZM546.459 89V90H547.459V89H546.459ZM510.131 89H509.131V90H510.131V89ZM510.131 78.0312V77.0312H509.131V78.0312H510.131ZM514.725 20.75H515.725V19.75H514.725V20.75ZM514.725 89V90H515.725V89H514.725ZM500.663 89H499.663V90H500.663V89ZM500.663 20.75V19.75H499.663V20.75H500.663ZM541.725 48.5469H542.725V47.5469H541.725V48.5469ZM541.725 59.2344V60.2344H542.725V59.2344H541.725ZM510.131 59.2344H509.131V60.2344H510.131V59.2344ZM510.131 48.5469V47.5469H509.131V48.5469H510.131ZM546.412 20.75H547.412V19.75H546.412V20.75ZM546.412 31.7656V32.7656H547.412V31.7656H546.412ZM510.131 31.7656H509.131V32.7656H510.131V31.7656ZM510.131 20.75V19.75H509.131V20.75H510.131ZM545.459 78.0312V89H547.459V78.0312H545.459ZM546.459 88H510.131V90H546.459V88ZM511.131 89V78.0312H509.131V89H511.131ZM510.131 79.0312H546.459V77.0312H510.131V79.0312ZM513.725 20.75V89H515.725V20.75H513.725ZM514.725 88H500.663V90H514.725V88ZM501.663 89V20.75H499.663V89H501.663ZM500.663 21.75H514.725V19.75H500.663V21.75ZM540.725 48.5469V59.2344H542.725V48.5469H540.725ZM541.725 58.2344H510.131V60.2344H541.725V58.2344ZM511.131 59.2344V48.5469H509.131V59.2344H511.131ZM510.131 49.5469H541.725V47.5469H510.131V49.5469ZM545.412 20.75V31.7656H547.412V20.75H545.412ZM546.412 30.7656H510.131V32.7656H546.412V30.7656ZM511.131 31.7656V20.75H509.131V31.7656H511.131ZM510.131 21.75H546.412V19.75H510.131V21.75Z" fill="black"/>
<path d="M102.625 171.141C102.625 169.922 102.438 168.828 102.062 167.859C101.719 166.859 101.062 165.953 100.094 165.141C99.125 164.297 97.7656 163.469 96.0156 162.656C94.2656 161.844 92 161 89.2188 160.125C86.125 159.125 83.1875 158 80.4062 156.75C77.6562 155.5 75.2188 154.047 73.0938 152.391C71 150.703 69.3438 148.75 68.125 146.531C66.9375 144.312 66.3438 141.734 66.3438 138.797C66.3438 135.953 66.9688 133.375 68.2188 131.062C69.4688 128.719 71.2188 126.719 73.4688 125.062C75.7188 123.375 78.375 122.078 81.4375 121.172C84.5312 120.266 87.9219 119.812 91.6094 119.812C96.6406 119.812 101.031 120.719 104.781 122.531C108.531 124.344 111.438 126.828 113.5 129.984C115.594 133.141 116.641 136.75 116.641 140.812H102.672C102.672 138.812 102.25 137.062 101.406 135.562C100.594 134.031 99.3438 132.828 97.6562 131.953C96 131.078 93.9062 130.641 91.375 130.641C88.9375 130.641 86.9062 131.016 85.2812 131.766C83.6562 132.484 82.4375 133.469 81.625 134.719C80.8125 135.938 80.4062 137.312 80.4062 138.844C80.4062 140 80.6875 141.047 81.25 141.984C81.8438 142.922 82.7188 143.797 83.875 144.609C85.0312 145.422 86.4531 146.188 88.1406 146.906C89.8281 147.625 91.7812 148.328 94 149.016C97.7188 150.141 100.984 151.406 103.797 152.812C106.641 154.219 109.016 155.797 110.922 157.547C112.828 159.297 114.266 161.281 115.234 163.5C116.203 165.719 116.688 168.234 116.688 171.047C116.688 174.016 116.109 176.672 114.953 179.016C113.797 181.359 112.125 183.344 109.938 184.969C107.75 186.594 105.141 187.828 102.109 188.672C99.0781 189.516 95.6875 189.938 91.9375 189.938C88.5625 189.938 85.2344 189.5 81.9531 188.625C78.6719 187.719 75.6875 186.359 73 184.547C70.3438 182.734 68.2188 180.422 66.625 177.609C65.0312 174.797 64.2344 171.469 64.2344 167.625H78.3438C78.3438 169.75 78.6719 171.547 79.3281 173.016C79.9844 174.484 80.9062 175.672 82.0938 176.578C83.3125 177.484 84.75 178.141 86.4062 178.547C88.0938 178.953 89.9375 179.156 91.9375 179.156C94.375 179.156 96.375 178.812 97.9375 178.125C99.5312 177.438 100.703 176.484 101.453 175.266C102.234 174.047 102.625 172.672 102.625 171.141ZM159.646 120.75V189H145.63V120.75H159.646ZM180.646 120.75V131.766H124.958V120.75H180.646ZM229.229 120.75H243.244V165.844C243.244 171.094 242.119 175.516 239.869 179.109C237.651 182.703 234.573 185.406 230.635 187.219C226.729 189.031 222.229 189.938 217.135 189.938C212.041 189.938 207.51 189.031 203.541 187.219C199.604 185.406 196.51 182.703 194.26 179.109C192.041 175.516 190.932 171.094 190.932 165.844V120.75H204.994V165.844C204.994 168.906 205.479 171.406 206.448 173.344C207.416 175.281 208.807 176.703 210.619 177.609C212.463 178.516 214.635 178.969 217.135 178.969C219.698 178.969 221.869 178.516 223.651 177.609C225.463 176.703 226.838 175.281 227.776 173.344C228.744 171.406 229.229 168.906 229.229 165.844V120.75ZM278.656 189H263.796L263.89 178.031H278.656C282.343 178.031 285.452 177.203 287.984 175.547C290.515 173.859 292.421 171.406 293.702 168.188C295.015 164.969 295.671 161.078 295.671 156.516V153.188C295.671 149.688 295.296 146.609 294.546 143.953C293.827 141.297 292.749 139.062 291.312 137.25C289.874 135.438 288.109 134.078 286.015 133.172C283.921 132.234 281.515 131.766 278.796 131.766H263.515V120.75H278.796C283.359 120.75 287.531 121.531 291.312 123.094C295.124 124.625 298.421 126.828 301.202 129.703C303.984 132.578 306.124 136.016 307.624 140.016C309.156 143.984 309.921 148.406 309.921 153.281V156.516C309.921 161.359 309.156 165.781 307.624 169.781C306.124 173.781 303.984 177.219 301.202 180.094C298.452 182.938 295.156 185.141 291.312 186.703C287.499 188.234 283.281 189 278.656 189ZM271.765 120.75V189H257.702V120.75H271.765ZM405.869 153.281V156.516C405.869 161.703 405.166 166.359 403.759 170.484C402.353 174.609 400.369 178.125 397.806 181.031C395.244 183.906 392.181 186.109 388.619 187.641C385.087 189.172 381.166 189.938 376.853 189.938C372.572 189.938 368.65 189.172 365.087 187.641C361.556 186.109 358.494 183.906 355.9 181.031C353.306 178.125 351.291 174.609 349.853 170.484C348.447 166.359 347.744 161.703 347.744 156.516V153.281C347.744 148.062 348.447 143.406 349.853 139.312C351.259 135.188 353.244 131.672 355.806 128.766C358.4 125.859 361.462 123.641 364.994 122.109C368.556 120.578 372.478 119.812 376.759 119.812C381.072 119.812 384.994 120.578 388.525 122.109C392.087 123.641 395.15 125.859 397.712 128.766C400.306 131.672 402.306 135.188 403.712 139.312C405.15 143.406 405.869 148.062 405.869 153.281ZM391.666 156.516V153.188C391.666 149.562 391.337 146.375 390.681 143.625C390.025 140.875 389.056 138.562 387.775 136.688C386.494 134.812 384.931 133.406 383.087 132.469C381.244 131.5 379.134 131.016 376.759 131.016C374.384 131.016 372.275 131.5 370.431 132.469C368.619 133.406 367.072 134.812 365.791 136.688C364.541 138.562 363.587 140.875 362.931 143.625C362.275 146.375 361.947 149.562 361.947 153.188V156.516C361.947 160.109 362.275 163.297 362.931 166.078C363.587 168.828 364.556 171.156 365.837 173.062C367.119 174.938 368.681 176.359 370.525 177.328C372.369 178.297 374.478 178.781 376.853 178.781C379.228 178.781 381.337 178.297 383.181 177.328C385.025 176.359 386.572 174.938 387.822 173.062C389.072 171.156 390.025 168.828 390.681 166.078C391.337 163.297 391.666 160.109 391.666 156.516ZM454.405 171.141C454.405 169.922 454.217 168.828 453.842 167.859C453.499 166.859 452.842 165.953 451.874 165.141C450.905 164.297 449.546 163.469 447.796 162.656C446.046 161.844 443.78 161 440.999 160.125C437.905 159.125 434.967 158 432.186 156.75C429.436 155.5 426.999 154.047 424.874 152.391C422.78 150.703 421.124 148.75 419.905 146.531C418.717 144.312 418.124 141.734 418.124 138.797C418.124 135.953 418.749 133.375 419.999 131.062C421.249 128.719 422.999 126.719 425.249 125.062C427.499 123.375 430.155 122.078 433.217 121.172C436.311 120.266 439.702 119.812 443.389 119.812C448.421 119.812 452.811 120.719 456.561 122.531C460.311 124.344 463.217 126.828 465.28 129.984C467.374 133.141 468.421 136.75 468.421 140.812H454.452C454.452 138.812 454.03 137.062 453.186 135.562C452.374 134.031 451.124 132.828 449.436 131.953C447.78 131.078 445.686 130.641 443.155 130.641C440.717 130.641 438.686 131.016 437.061 131.766C435.436 132.484 434.217 133.469 433.405 134.719C432.592 135.938 432.186 137.312 432.186 138.844C432.186 140 432.467 141.047 433.03 141.984C433.624 142.922 434.499 143.797 435.655 144.609C436.811 145.422 438.233 146.188 439.921 146.906C441.608 147.625 443.561 148.328 445.78 149.016C449.499 150.141 452.764 151.406 455.577 152.812C458.421 154.219 460.796 155.797 462.702 157.547C464.608 159.297 466.046 161.281 467.014 163.5C467.983 165.719 468.467 168.234 468.467 171.047C468.467 174.016 467.889 176.672 466.733 179.016C465.577 181.359 463.905 183.344 461.717 184.969C459.53 186.594 456.921 187.828 453.889 188.672C450.858 189.516 447.467 189.938 443.717 189.938C440.342 189.938 437.014 189.5 433.733 188.625C430.452 187.719 427.467 186.359 424.78 184.547C422.124 182.734 419.999 180.422 418.405 177.609C416.811 174.797 416.014 171.469 416.014 167.625H430.124C430.124 169.75 430.452 171.547 431.108 173.016C431.764 174.484 432.686 175.672 433.874 176.578C435.092 177.484 436.53 178.141 438.186 178.547C439.874 178.953 441.717 179.156 443.717 179.156C446.155 179.156 448.155 178.812 449.717 178.125C451.311 177.438 452.483 176.484 453.233 175.266C454.014 174.047 454.405 172.672 454.405 171.141Z" fill="black"/>
<path d="M102.062 167.859L101.117 168.184L101.123 168.203L101.13 168.22L102.062 167.859ZM100.094 165.141L99.437 165.895L99.444 165.901L99.4511 165.907L100.094 165.141ZM89.2188 160.125L88.9112 161.077L88.9186 161.079L89.2188 160.125ZM80.4062 156.75L79.9924 157.66L79.9963 157.662L80.4062 156.75ZM73.0938 152.391L72.4662 153.169L72.4726 153.174L72.479 153.179L73.0938 152.391ZM68.125 146.531L67.2433 147.003L67.2485 147.013L68.125 146.531ZM68.2188 131.062L69.0985 131.538L69.1011 131.533L68.2188 131.062ZM73.4688 125.062L74.0616 125.868L74.0687 125.862L73.4688 125.062ZM81.4375 121.172L81.1564 120.212L81.1537 120.213L81.4375 121.172ZM113.5 129.984L112.663 130.531L112.667 130.537L113.5 129.984ZM116.641 140.812V141.812H117.641V140.812H116.641ZM102.672 140.812H101.672V141.812H102.672V140.812ZM101.406 135.562L100.523 136.031L100.529 136.042L100.535 136.053L101.406 135.562ZM97.6562 131.953L97.1891 132.837L97.1959 132.841L97.6562 131.953ZM85.2812 131.766L85.6858 132.68L85.6931 132.677L85.7003 132.674L85.2812 131.766ZM81.625 134.719L82.4571 135.273L82.4634 135.264L81.625 134.719ZM81.25 141.984L80.3925 142.499L80.3987 142.509L80.4052 142.519L81.25 141.984ZM94 149.016L93.704 149.971L93.7104 149.973L94 149.016ZM103.797 152.812L103.35 153.707L103.354 153.709L103.797 152.812ZM81.9531 188.625L81.6869 189.589L81.6955 189.591L81.9531 188.625ZM73 184.547L72.4364 185.373L72.4409 185.376L73 184.547ZM64.2344 167.625V166.625H63.2344V167.625H64.2344ZM78.3438 167.625H79.3438V166.625H78.3438V167.625ZM82.0938 176.578L81.487 177.373L81.497 177.381L82.0938 176.578ZM86.4062 178.547L86.168 179.518L86.1722 179.519L86.4062 178.547ZM97.9375 178.125L97.5414 177.207L97.5348 177.21L97.9375 178.125ZM101.453 175.266L100.611 174.726L100.606 174.734L100.601 174.742L101.453 175.266ZM103.625 171.141C103.625 169.819 103.422 168.6 102.995 167.498L101.13 168.22C101.453 169.056 101.625 170.024 101.625 171.141H103.625ZM103.008 167.534C102.595 166.332 101.817 165.281 100.736 164.374L99.4511 165.907C100.308 166.626 100.843 167.387 101.117 168.184L103.008 167.534ZM100.751 164.387C99.6848 163.458 98.2339 162.584 96.4367 161.749L95.5945 163.563C97.2974 164.354 98.5652 165.135 99.437 165.895L100.751 164.387ZM96.4367 161.749C94.6331 160.912 92.3228 160.053 89.5189 159.171L88.9186 161.079C91.6772 161.947 93.8982 162.776 95.5945 163.563L96.4367 161.749ZM89.5263 159.173C86.4651 158.184 83.5619 157.072 80.8162 155.838L79.9963 157.662C82.8131 158.928 85.7849 160.066 88.9112 161.077L89.5263 159.173ZM80.8201 155.84C78.1331 154.618 75.7646 153.204 73.7085 151.602L72.479 153.179C74.6729 154.889 77.1794 156.382 79.9924 157.66L80.8201 155.84ZM73.7213 151.612C71.7227 150.001 70.1536 148.147 69.0015 146.05L67.2485 147.013C68.5339 149.353 70.2773 151.405 72.4662 153.169L73.7213 151.612ZM69.0067 146.059C67.9089 144.008 67.3438 141.597 67.3438 138.797H65.3438C65.3438 141.871 65.9661 144.617 67.2433 147.003L69.0067 146.059ZM67.3438 138.797C67.3438 136.105 67.9338 133.693 69.0985 131.538L67.339 130.587C66.0037 133.057 65.3438 135.801 65.3438 138.797H67.3438ZM69.1011 131.533C70.2772 129.328 71.9255 127.44 74.0616 125.868L72.8759 124.257C70.512 125.997 68.6603 128.11 67.3364 130.592L69.1011 131.533ZM74.0687 125.862C76.2116 124.255 78.7575 123.008 81.7213 122.131L81.1537 120.213C77.9925 121.148 75.2259 122.495 72.8688 124.263L74.0687 125.862ZM81.7186 122.132C84.709 121.256 88.0036 120.812 91.6094 120.812V118.812C87.8401 118.812 84.3535 119.276 81.1564 120.212L81.7186 122.132ZM91.6094 120.812C96.5208 120.812 100.757 121.697 104.346 123.432L105.216 121.631C101.305 119.741 96.7605 118.812 91.6094 118.812V120.812ZM104.346 123.432C107.95 125.174 110.71 127.543 112.663 130.531L114.337 129.437C112.165 126.113 109.112 123.514 105.216 121.631L104.346 123.432ZM112.667 130.537C114.644 133.518 115.641 136.932 115.641 140.812H117.641C117.641 136.568 116.544 132.764 114.333 129.432L112.667 130.537ZM116.641 139.812H102.672V141.812H116.641V139.812ZM103.672 140.812C103.672 138.669 103.219 136.745 102.278 135.072L100.535 136.053C101.281 137.38 101.672 138.956 101.672 140.812H103.672ZM102.29 135.094C101.373 133.366 99.9661 132.024 98.1166 131.065L97.1959 132.841C98.7214 133.632 99.8148 134.697 100.523 136.031L102.29 135.094ZM98.1234 131.069C96.2816 130.096 94.0144 129.641 91.375 129.641V131.641C93.7981 131.641 95.7184 132.06 97.1891 132.837L98.1234 131.069ZM91.375 129.641C88.8422 129.641 86.6571 130.029 84.8622 130.858L85.7003 132.674C87.1554 132.002 89.0328 131.641 91.375 131.641V129.641ZM84.8767 130.851C83.1089 131.633 81.7236 132.732 80.7866 134.174L82.4634 135.264C83.1514 134.205 84.2036 133.336 85.6858 132.68L84.8767 130.851ZM80.7929 134.164C79.8658 135.555 79.4062 137.125 79.4062 138.844H81.4062C81.4062 137.5 81.7592 136.32 82.4571 135.273L80.7929 134.164ZM79.4062 138.844C79.4062 140.17 79.7313 141.397 80.3925 142.499L82.1075 141.47C81.6437 140.697 81.4062 139.83 81.4062 138.844H79.4062ZM80.4052 142.519C81.0858 143.594 82.0644 144.559 83.3001 145.428L84.4499 143.791C83.3731 143.035 82.6017 142.25 82.0948 141.449L80.4052 142.519ZM83.3001 145.428C84.5276 146.29 86.0148 147.088 87.7488 147.826L88.5325 145.986C86.8915 145.287 85.5349 144.554 84.4499 143.791L83.3001 145.428ZM87.7488 147.826C89.4746 148.561 91.4608 149.276 93.704 149.971L94.296 148.06C92.1017 147.38 90.1817 146.689 88.5325 145.986L87.7488 147.826ZM93.7104 149.973C97.3871 151.085 100.598 152.331 103.35 153.707L104.244 151.918C101.371 150.481 98.0504 149.196 94.2896 148.058L93.7104 149.973ZM103.354 153.709C106.131 155.082 108.423 156.61 110.246 158.284L111.598 156.81C109.609 154.984 107.15 153.355 104.24 151.916L103.354 153.709ZM110.246 158.284C112.056 159.946 113.409 161.818 114.318 163.9L116.151 163.1C115.123 160.745 113.6 158.648 111.598 156.81L110.246 158.284ZM114.318 163.9C115.223 165.974 115.688 168.35 115.688 171.047H117.688C117.688 168.119 117.183 165.464 116.151 163.1L114.318 163.9ZM115.688 171.047C115.688 173.883 115.136 176.385 114.056 178.573L115.85 179.458C117.083 176.959 117.688 174.148 117.688 171.047H115.688ZM114.056 178.573C112.973 180.769 111.407 182.631 109.341 184.166L110.534 185.771C112.843 184.056 114.62 181.95 115.85 179.458L114.056 178.573ZM109.341 184.166C107.266 185.707 104.772 186.893 101.841 187.708L102.378 189.635C105.509 188.764 108.234 187.48 110.534 185.771L109.341 184.166ZM101.841 187.708C98.9121 188.524 95.6137 188.938 91.9375 188.938V190.938C95.7613 190.938 99.2442 190.507 102.378 189.635L101.841 187.708ZM91.9375 188.938C88.65 188.938 85.4085 188.511 82.2108 187.659L81.6955 189.591C85.0602 190.489 88.475 190.938 91.9375 190.938V188.938ZM82.2193 187.661C79.0371 186.782 76.1525 185.467 73.5591 183.718L72.4409 185.376C75.2225 187.252 78.3066 188.655 81.6869 189.589L82.2193 187.661ZM73.5636 183.721C71.0343 181.995 69.0138 179.797 67.495 177.116L65.755 178.102C67.4237 181.047 69.6532 183.474 72.4364 185.373L73.5636 183.721ZM67.495 177.116C66.0013 174.48 65.2344 171.329 65.2344 167.625H63.2344C63.2344 171.609 64.0612 175.113 65.755 178.102L67.495 177.116ZM64.2344 168.625H78.3438V166.625H64.2344V168.625ZM77.3438 167.625C77.3438 169.848 77.6863 171.792 78.4151 173.424L80.2411 172.608C79.6575 171.301 79.3438 169.652 79.3438 167.625H77.3438ZM78.4151 173.424C79.1341 175.033 80.1566 176.358 81.4871 177.373L82.7004 175.783C81.6559 174.986 80.8346 173.936 80.2411 172.608L78.4151 173.424ZM81.497 177.381C82.8352 178.376 84.3981 179.084 86.168 179.518L86.6445 177.576C85.1019 177.197 83.7898 176.593 82.6905 175.776L81.497 177.381ZM86.1722 179.519C87.9469 179.946 89.8703 180.156 91.9375 180.156V178.156C90.0047 178.156 88.2406 177.96 86.6403 177.575L86.1722 179.519ZM91.9375 180.156C94.4588 180.156 96.6087 179.802 98.3402 179.04L97.5348 177.21C96.1413 177.823 94.2912 178.156 91.9375 178.156V180.156ZM98.3336 179.043C100.075 178.292 101.426 177.218 102.305 175.79L100.601 174.742C99.9804 175.751 98.9873 176.583 97.5414 177.207L98.3336 179.043ZM102.295 175.805C103.186 174.416 103.625 172.852 103.625 171.141H101.625C101.625 172.492 101.283 173.678 100.611 174.726L102.295 175.805ZM159.646 120.75H160.646V119.75H159.646V120.75ZM159.646 189V190H160.646V189H159.646ZM145.63 189H144.63V190H145.63V189ZM145.63 120.75V119.75H144.63V120.75H145.63ZM180.646 120.75H181.646V119.75H180.646V120.75ZM180.646 131.766V132.766H181.646V131.766H180.646ZM124.958 131.766H123.958V132.766H124.958V131.766ZM124.958 120.75V119.75H123.958V120.75H124.958ZM158.646 120.75V189H160.646V120.75H158.646ZM159.646 188H145.63V190H159.646V188ZM146.63 189V120.75H144.63V189H146.63ZM145.63 121.75H159.646V119.75H145.63V121.75ZM179.646 120.75V131.766H181.646V120.75H179.646ZM180.646 130.766H124.958V132.766H180.646V130.766ZM125.958 131.766V120.75H123.958V131.766H125.958ZM124.958 121.75H180.646V119.75H124.958V121.75ZM229.229 120.75V119.75H228.229V120.75H229.229ZM243.244 120.75H244.244V119.75H243.244V120.75ZM239.869 179.109L239.022 178.579L239.018 178.584L239.869 179.109ZM230.635 187.219L230.217 186.31L230.214 186.312L230.635 187.219ZM203.541 187.219L203.123 188.127L203.126 188.128L203.541 187.219ZM194.26 179.109L193.409 179.635L193.412 179.64L194.26 179.109ZM190.932 120.75V119.75H189.932V120.75H190.932ZM204.994 120.75H205.994V119.75H204.994V120.75ZM210.619 177.609L210.172 178.504L210.178 178.507L210.619 177.609ZM223.651 177.609L223.203 176.715L223.197 176.718L223.651 177.609ZM227.776 173.344L226.881 172.896L226.875 172.908L227.776 173.344ZM229.229 121.75H243.244V119.75H229.229V121.75ZM242.244 120.75V165.844H244.244V120.75H242.244ZM242.244 165.844C242.244 170.951 241.151 175.178 239.022 178.579L240.717 179.64C243.088 175.853 244.244 171.237 244.244 165.844H242.244ZM239.018 178.584C236.906 182.006 233.981 184.578 230.217 186.31L231.053 188.127C235.164 186.235 238.395 183.401 240.72 179.635L239.018 178.584ZM230.214 186.312C226.462 188.053 222.11 188.938 217.135 188.938V190.938C222.348 190.938 226.996 190.01 231.056 188.126L230.214 186.312ZM217.135 188.938C212.161 188.938 207.775 188.053 203.957 186.309L203.126 188.128C207.245 190.01 211.922 190.938 217.135 190.938V188.938ZM203.959 186.31C200.195 184.577 197.252 182.004 195.108 178.579L193.412 179.64C195.768 183.403 199.013 186.235 203.123 188.127L203.959 186.31ZM195.111 178.584C193.011 175.182 191.932 170.953 191.932 165.844H189.932C189.932 171.234 191.072 175.849 193.409 179.635L195.111 178.584ZM191.932 165.844V120.75H189.932V165.844H191.932ZM190.932 121.75H204.994V119.75H190.932V121.75ZM203.994 120.75V165.844H205.994V120.75H203.994ZM203.994 165.844C203.994 169.001 204.492 171.669 205.553 173.791L207.342 172.897C206.465 171.143 205.994 168.811 205.994 165.844H203.994ZM205.553 173.791C206.611 175.908 208.152 177.494 210.172 178.504L211.067 176.715C209.461 175.912 208.221 174.655 207.342 172.897L205.553 173.791ZM210.178 178.507C212.186 179.494 214.515 179.969 217.135 179.969V177.969C214.755 177.969 212.74 177.538 211.06 176.712L210.178 178.507ZM217.135 179.969C219.812 179.969 222.148 179.496 224.104 178.501L223.197 176.718C221.59 177.536 219.583 177.969 217.135 177.969V179.969ZM224.098 178.504C226.121 177.492 227.649 175.902 228.676 173.779L226.875 172.908C226.028 174.66 224.806 175.914 223.203 176.715L224.098 178.504ZM228.67 173.791C229.731 171.669 230.229 169.001 230.229 165.844H228.229C228.229 168.811 227.758 171.143 226.881 172.897L228.67 173.791ZM230.229 165.844V120.75H228.229V165.844H230.229ZM263.796 189L262.796 188.991L262.788 190H263.796V189ZM263.89 178.031V177.031H262.899L262.89 178.023L263.89 178.031ZM287.984 175.547L288.531 176.384L288.538 176.379L287.984 175.547ZM293.702 168.188L292.776 167.81L292.773 167.818L293.702 168.188ZM294.546 143.953L293.581 144.214L293.584 144.225L294.546 143.953ZM286.015 133.172L285.606 134.085L285.618 134.09L286.015 133.172ZM263.515 131.766H262.515V132.766H263.515V131.766ZM263.515 120.75V119.75H262.515V120.75H263.515ZM291.312 123.094L290.93 124.018L290.939 124.022L291.312 123.094ZM307.624 140.016L306.688 140.367L306.691 140.376L307.624 140.016ZM307.624 169.781L306.69 169.424L306.688 169.43L307.624 169.781ZM301.202 180.094L300.484 179.398L300.484 179.399L301.202 180.094ZM291.312 186.703L291.685 187.631L291.688 187.63L291.312 186.703ZM271.765 120.75H272.765V119.75H271.765V120.75ZM271.765 189V190H272.765V189H271.765ZM257.702 189H256.702V190H257.702V189ZM257.702 120.75V119.75H256.702V120.75H257.702ZM278.656 188H263.796V190H278.656V188ZM264.796 189.009L264.89 178.04L262.89 178.023L262.796 188.991L264.796 189.009ZM263.89 179.031H278.656V177.031H263.89V179.031ZM278.656 179.031C282.495 179.031 285.805 178.168 288.531 176.384L287.436 174.71C285.1 176.239 282.192 177.031 278.656 177.031V179.031ZM288.538 176.379C291.261 174.564 293.286 171.937 294.632 168.557L292.773 167.818C291.556 170.875 289.769 173.155 287.429 174.715L288.538 176.379ZM294.628 168.565C296.003 165.195 296.671 161.169 296.671 156.516H294.671C294.671 160.987 294.027 164.742 292.777 167.81L294.628 168.565ZM296.671 156.516V153.188H294.671V156.516H296.671ZM296.671 153.188C296.671 149.619 296.289 146.446 295.509 143.681L293.584 144.225C294.303 146.773 294.671 149.756 294.671 153.188H296.671ZM295.512 143.692C294.764 140.929 293.632 138.566 292.095 136.629L290.528 137.871C291.867 139.559 292.891 141.665 293.581 144.214L295.512 143.692ZM292.095 136.629C290.557 134.689 288.659 133.227 286.412 132.254L285.618 134.09C287.558 134.929 289.192 136.186 290.528 137.871L292.095 136.629ZM286.424 132.259C284.18 131.254 281.63 130.766 278.796 130.766V132.766C281.4 132.766 283.663 133.214 285.606 134.085L286.424 132.259ZM278.796 130.766H263.515V132.766H278.796V130.766ZM264.515 131.766V120.75H262.515V131.766H264.515ZM263.515 121.75H278.796V119.75H263.515V121.75ZM278.796 121.75C283.243 121.75 287.283 122.511 290.93 124.018L291.694 122.17C287.778 120.552 283.475 119.75 278.796 119.75V121.75ZM290.939 124.022C294.625 125.502 297.803 127.627 300.484 130.398L301.921 129.008C299.04 126.029 295.624 123.748 291.685 122.166L290.939 124.022ZM300.484 130.398C303.163 133.168 305.233 136.486 306.688 140.367L308.561 139.665C307.016 135.545 304.804 131.988 301.921 129.008L300.484 130.398ZM306.691 140.376C308.172 144.214 308.921 148.512 308.921 153.281H310.921C310.921 148.301 310.139 143.755 308.557 139.656L306.691 140.376ZM308.921 153.281V156.516H310.921V153.281H308.921ZM308.921 156.516C308.921 161.253 308.173 165.552 306.69 169.424L308.558 170.139C310.139 166.011 310.921 161.466 310.921 156.516H308.921ZM306.688 169.43C305.233 173.311 303.163 176.629 300.484 179.398L301.921 180.789C304.804 177.809 307.016 174.252 308.561 170.132L306.688 169.43ZM300.484 179.399C297.835 182.137 294.657 184.264 290.935 185.777L291.688 187.63C295.655 186.017 299.07 183.738 301.921 180.789L300.484 179.399ZM290.939 185.775C287.259 187.253 283.169 188 278.656 188V190C283.392 190 287.74 189.216 291.685 187.631L290.939 185.775ZM270.765 120.75V189H272.765V120.75H270.765ZM271.765 188H257.702V190H271.765V188ZM258.702 189V120.75H256.702V189H258.702ZM257.702 121.75H271.765V119.75H257.702V121.75ZM397.806 181.031L398.553 181.697L398.556 181.693L397.806 181.031ZM388.619 187.641L388.224 186.722L388.221 186.723L388.619 187.641ZM365.087 187.641L364.69 188.558L364.693 188.559L365.087 187.641ZM355.9 181.031L355.154 181.697L355.158 181.701L355.9 181.031ZM349.853 170.484L348.907 170.807L348.909 170.813L349.853 170.484ZM349.853 139.312L350.799 139.637L350.8 139.635L349.853 139.312ZM355.806 128.766L355.06 128.1L355.056 128.104L355.806 128.766ZM364.994 122.109L364.599 121.191L364.596 121.192L364.994 122.109ZM388.525 122.109L388.127 123.027L388.13 123.028L388.525 122.109ZM397.712 128.766L396.962 129.427L396.966 129.431L397.712 128.766ZM403.712 139.312L402.766 139.635L402.769 139.644L403.712 139.312ZM383.087 132.469L382.622 133.354L382.634 133.36L383.087 132.469ZM370.431 132.469L370.891 133.357L370.896 133.354L370.431 132.469ZM365.791 136.688L364.965 136.123L364.959 136.133L365.791 136.688ZM362.931 166.078L361.958 166.308L361.959 166.31L362.931 166.078ZM365.837 173.062L365.008 173.62L365.012 173.627L365.837 173.062ZM387.822 173.062L388.654 173.617L388.658 173.611L387.822 173.062ZM390.681 166.078L391.654 166.31L391.655 166.308L390.681 166.078ZM404.869 153.281V156.516H406.869V153.281H404.869ZM404.869 156.516C404.869 161.614 404.178 166.158 402.813 170.162L404.706 170.807C406.154 166.561 406.869 161.793 406.869 156.516H404.869ZM402.813 170.162C401.444 174.177 399.521 177.574 397.056 180.37L398.556 181.693C401.216 178.676 403.262 175.041 404.706 170.807L402.813 170.162ZM397.06 180.366C394.595 183.131 391.653 185.248 388.224 186.722L389.014 188.559C392.71 186.971 395.892 184.682 398.553 181.697L397.06 180.366ZM388.221 186.723C384.83 188.194 381.045 188.938 376.853 188.938V190.938C381.286 190.938 385.345 190.15 389.017 188.558L388.221 186.723ZM376.853 188.938C372.693 188.938 368.908 188.194 365.482 186.722L364.693 188.559C368.392 190.15 372.45 190.938 376.853 190.938V188.938ZM365.485 186.723C362.086 185.249 359.141 183.131 356.642 180.361L355.158 181.701C357.847 184.682 361.026 186.97 364.69 188.558L365.485 186.723ZM356.646 180.365C354.15 177.569 352.197 174.171 350.797 170.155L348.909 170.813C350.384 175.048 352.463 178.681 355.154 181.697L356.646 180.365ZM350.8 170.162C349.435 166.158 348.744 161.614 348.744 156.516H346.744C346.744 161.793 347.459 166.561 348.907 170.807L350.8 170.162ZM348.744 156.516V153.281H346.744V156.516H348.744ZM348.744 153.281C348.744 148.151 349.435 143.608 350.799 139.637L348.907 138.988C347.459 143.205 346.744 147.974 346.744 153.281H348.744ZM350.8 139.635C352.169 135.619 354.091 132.223 356.556 129.427L355.056 128.104C352.396 131.121 350.35 134.756 348.907 138.99L350.8 139.635ZM356.552 129.431C359.051 126.632 361.995 124.5 365.392 123.027L364.596 121.192C360.93 122.782 357.749 125.087 355.06 128.1L356.552 129.431ZM365.389 123.028C368.814 121.556 372.6 120.812 376.759 120.812V118.812C372.357 118.812 368.299 119.6 364.599 121.191L365.389 123.028ZM376.759 120.812C380.952 120.812 384.736 121.556 388.127 123.027L388.923 121.192C385.252 119.6 381.192 118.812 376.759 118.812V120.812ZM388.13 123.028C391.557 124.501 394.498 126.632 396.962 129.427L398.463 128.104C395.802 125.087 392.618 122.78 388.92 121.191L388.13 123.028ZM396.966 129.431C399.461 132.227 401.398 135.622 402.766 139.635L404.659 138.99C403.215 134.753 401.151 131.117 398.459 128.1L396.966 129.431ZM402.769 139.644C404.162 143.612 404.869 148.153 404.869 153.281H406.869C406.869 147.972 406.138 143.201 404.656 138.981L402.769 139.644ZM392.666 156.516V153.188H390.666V156.516H392.666ZM392.666 153.188C392.666 149.505 392.333 146.237 391.654 143.393L389.709 143.857C390.342 146.513 390.666 149.62 390.666 153.188H392.666ZM391.654 143.393C390.976 140.552 389.965 138.12 388.601 136.123L386.949 137.252C388.147 139.005 389.074 141.198 389.709 143.857L391.654 143.393ZM388.601 136.123C387.234 134.124 385.548 132.598 383.541 131.577L382.634 133.36C384.314 134.214 385.753 135.501 386.949 137.252L388.601 136.123ZM383.553 131.584C381.546 130.529 379.273 130.016 376.759 130.016V132.016C378.995 132.016 380.941 132.471 382.622 133.354L383.553 131.584ZM376.759 130.016C374.245 130.016 371.972 130.529 369.966 131.584L370.896 133.354C372.578 132.471 374.523 132.016 376.759 132.016V130.016ZM369.972 131.581C367.996 132.602 366.329 134.127 364.965 136.123L366.616 137.252C367.815 135.498 369.241 134.21 370.891 133.357L369.972 131.581ZM364.959 136.133C363.629 138.128 362.636 140.556 361.959 143.393L363.904 143.857C364.539 141.194 365.453 138.997 366.623 137.242L364.959 136.133ZM361.959 143.393C361.28 146.237 360.947 149.505 360.947 153.188H362.947C362.947 149.62 363.27 146.513 363.904 143.857L361.959 143.393ZM360.947 153.188V156.516H362.947V153.188H360.947ZM360.947 156.516C360.947 160.168 361.28 163.435 361.958 166.308L363.905 165.848C363.27 163.159 362.947 160.051 362.947 156.516H360.947ZM361.959 166.31C362.636 169.151 363.646 171.595 365.008 173.62L366.667 172.505C365.466 170.718 364.539 168.506 363.904 165.846L361.959 166.31ZM365.012 173.627C366.377 175.624 368.059 177.162 370.06 178.213L370.99 176.443C369.304 175.557 367.861 174.251 366.663 172.498L365.012 173.627ZM370.06 178.213C372.066 179.267 374.339 179.781 376.853 179.781V177.781C374.617 177.781 372.671 177.326 370.99 176.443L370.06 178.213ZM376.853 179.781C379.367 179.781 381.64 179.267 383.646 178.213L382.716 176.443C381.035 177.326 379.089 177.781 376.853 177.781V179.781ZM383.646 178.213C385.65 177.161 387.319 175.62 388.654 173.617L386.99 172.508C385.825 174.255 384.4 175.558 382.716 176.443L383.646 178.213ZM388.658 173.611C389.985 171.588 390.977 169.147 391.654 166.31L389.709 165.846C389.073 168.509 388.159 170.725 386.986 172.514L388.658 173.611ZM391.655 166.308C392.332 163.435 392.666 160.168 392.666 156.516H390.666C390.666 160.051 390.343 163.159 389.708 165.848L391.655 166.308ZM453.842 167.859L452.897 168.184L452.903 168.203L452.91 168.22L453.842 167.859ZM451.874 165.141L451.217 165.895L451.224 165.901L451.231 165.907L451.874 165.141ZM440.999 160.125L440.691 161.077L440.699 161.079L440.999 160.125ZM432.186 156.75L431.772 157.66L431.776 157.662L432.186 156.75ZM424.874 152.391L424.246 153.169L424.253 153.174L424.259 153.179L424.874 152.391ZM419.905 146.531L419.023 147.003L419.029 147.013L419.905 146.531ZM419.999 131.062L420.878 131.538L420.881 131.533L419.999 131.062ZM425.249 125.062L425.842 125.868L425.849 125.862L425.249 125.062ZM433.217 121.172L432.936 120.212L432.934 120.213L433.217 121.172ZM465.28 129.984L464.443 130.531L464.447 130.537L465.28 129.984ZM468.421 140.812V141.812H469.421V140.812H468.421ZM454.452 140.812H453.452V141.812H454.452V140.812ZM453.186 135.562L452.303 136.031L452.309 136.042L452.315 136.053L453.186 135.562ZM449.436 131.953L448.969 132.837L448.976 132.841L449.436 131.953ZM437.061 131.766L437.466 132.68L437.473 132.677L437.48 132.674L437.061 131.766ZM433.405 134.719L434.237 135.273L434.243 135.264L433.405 134.719ZM433.03 141.984L432.173 142.499L432.179 142.509L432.185 142.519L433.03 141.984ZM445.78 149.016L445.484 149.971L445.49 149.973L445.78 149.016ZM455.577 152.812L455.13 153.707L455.134 153.709L455.577 152.812ZM433.733 188.625L433.467 189.589L433.475 189.591L433.733 188.625ZM424.78 184.547L424.216 185.373L424.221 185.376L424.78 184.547ZM416.014 167.625V166.625H415.014V167.625H416.014ZM430.124 167.625H431.124V166.625H430.124V167.625ZM433.874 176.578L433.267 177.373L433.277 177.381L433.874 176.578ZM438.186 178.547L437.948 179.518L437.952 179.519L438.186 178.547ZM449.717 178.125L449.321 177.207L449.315 177.21L449.717 178.125ZM453.233 175.266L452.391 174.726L452.386 174.734L452.381 174.742L453.233 175.266ZM455.405 171.141C455.405 169.819 455.202 168.6 454.775 167.498L452.91 168.22C453.233 169.056 453.405 170.024 453.405 171.141H455.405ZM454.788 167.534C454.375 166.332 453.597 165.281 452.516 164.374L451.231 165.907C452.088 166.626 452.623 167.387 452.897 168.184L454.788 167.534ZM452.531 164.387C451.465 163.458 450.014 162.584 448.217 161.749L447.375 163.563C449.077 164.354 450.345 165.135 451.217 165.895L452.531 164.387ZM448.217 161.749C446.413 160.912 444.103 160.053 441.299 159.171L440.699 161.079C443.457 161.947 445.678 162.776 447.375 163.563L448.217 161.749ZM441.306 159.173C438.245 158.184 435.342 157.072 432.596 155.838L431.776 157.662C434.593 158.928 437.565 160.066 440.691 161.077L441.306 159.173ZM432.6 155.84C429.913 154.618 427.545 153.204 425.488 151.602L424.259 153.179C426.453 154.889 428.959 156.382 431.772 157.66L432.6 155.84ZM425.501 151.612C423.503 150.001 421.934 148.147 420.781 146.05L419.029 147.013C420.314 149.353 422.057 151.405 424.246 153.169L425.501 151.612ZM420.787 146.059C419.689 144.008 419.124 141.597 419.124 138.797H417.124C417.124 141.871 417.746 144.617 419.023 147.003L420.787 146.059ZM419.124 138.797C419.124 136.105 419.714 133.693 420.878 131.538L419.119 130.587C417.784 133.057 417.124 135.801 417.124 138.797H419.124ZM420.881 131.533C422.057 129.328 423.705 127.44 425.842 125.868L424.656 124.257C422.292 125.997 420.44 128.11 419.116 130.592L420.881 131.533ZM425.849 125.862C427.992 124.255 430.537 123.008 433.501 122.131L432.934 120.213C429.773 121.148 427.006 122.495 424.649 124.263L425.849 125.862ZM433.499 122.132C436.489 121.256 439.784 120.812 443.389 120.812V118.812C439.62 118.812 436.133 119.276 432.936 120.212L433.499 122.132ZM443.389 120.812C448.301 120.812 452.537 121.697 456.126 123.432L456.996 121.631C453.085 119.741 448.54 118.812 443.389 118.812V120.812ZM456.126 123.432C459.73 125.174 462.49 127.543 464.443 130.531L466.117 129.437C463.945 126.113 460.892 123.514 456.996 121.631L456.126 123.432ZM464.447 130.537C466.424 133.518 467.421 136.932 467.421 140.812H469.421C469.421 136.568 468.324 132.764 466.113 129.432L464.447 130.537ZM468.421 139.812H454.452V141.812H468.421V139.812ZM455.452 140.812C455.452 138.669 454.999 136.745 454.058 135.072L452.315 136.053C453.061 137.38 453.452 138.956 453.452 140.812H455.452ZM454.07 135.094C453.153 133.366 451.746 132.024 449.897 131.065L448.976 132.841C450.501 133.632 451.595 134.697 452.303 136.031L454.07 135.094ZM449.903 131.069C448.062 130.096 445.794 129.641 443.155 129.641V131.641C445.578 131.641 447.498 132.06 448.969 132.837L449.903 131.069ZM443.155 129.641C440.622 129.641 438.437 130.029 436.642 130.858L437.48 132.674C438.935 132.002 440.813 131.641 443.155 131.641V129.641ZM436.657 130.851C434.889 131.633 433.504 132.732 432.567 134.174L434.243 135.264C434.931 134.205 435.984 133.336 437.466 132.68L436.657 130.851ZM432.573 134.164C431.646 135.555 431.186 137.125 431.186 138.844H433.186C433.186 137.5 433.539 136.32 434.237 135.273L432.573 134.164ZM431.186 138.844C431.186 140.17 431.511 141.397 432.173 142.499L433.887 141.47C433.424 140.697 433.186 139.83 433.186 138.844H431.186ZM432.185 142.519C432.866 143.594 433.844 144.559 435.08 145.428L436.23 143.791C435.153 143.035 434.382 142.25 433.875 141.449L432.185 142.519ZM435.08 145.428C436.308 146.29 437.795 147.088 439.529 147.826L440.312 145.986C438.671 145.287 437.315 144.554 436.23 143.791L435.08 145.428ZM439.529 147.826C441.255 148.561 443.241 149.276 445.484 149.971L446.076 148.06C443.882 147.38 441.962 146.689 440.312 145.986L439.529 147.826ZM445.49 149.973C449.167 151.085 452.378 152.331 455.13 153.707L456.024 151.918C453.151 150.481 449.83 149.196 446.07 148.058L445.49 149.973ZM455.134 153.709C457.911 155.082 460.203 156.61 462.026 158.284L463.378 156.81C461.389 154.984 458.93 153.355 456.02 151.916L455.134 153.709ZM462.026 158.284C463.836 159.946 465.189 161.818 466.098 163.9L467.931 163.1C466.903 160.745 465.38 158.648 463.378 156.81L462.026 158.284ZM466.098 163.9C467.003 165.974 467.467 168.35 467.467 171.047H469.467C469.467 168.119 468.963 165.464 467.931 163.1L466.098 163.9ZM467.467 171.047C467.467 173.883 466.916 176.385 465.836 178.573L467.63 179.458C468.863 176.959 469.467 174.148 469.467 171.047H467.467ZM465.836 178.573C464.753 180.769 463.187 182.631 461.121 184.166L462.314 185.771C464.623 184.056 466.4 181.95 467.63 179.458L465.836 178.573ZM461.121 184.166C459.046 185.707 456.552 186.893 453.621 187.708L454.158 189.635C457.289 188.764 460.014 187.48 462.314 185.771L461.121 184.166ZM453.621 187.708C450.692 188.524 447.394 188.938 443.717 188.938V190.938C447.541 190.938 451.024 190.507 454.158 189.635L453.621 187.708ZM443.717 188.938C440.43 188.938 437.189 188.511 433.991 187.659L433.475 189.591C436.84 190.489 440.255 190.938 443.717 190.938V188.938ZM433.999 187.661C430.817 186.782 427.933 185.467 425.339 183.718L424.221 185.376C427.002 187.252 430.087 188.655 433.467 189.589L433.999 187.661ZM425.344 183.721C422.814 181.995 420.794 179.797 419.275 177.116L417.535 178.102C419.204 181.047 421.433 183.474 424.216 185.373L425.344 183.721ZM419.275 177.116C417.781 174.48 417.014 171.329 417.014 167.625H415.014C415.014 171.609 415.841 175.113 417.535 178.102L419.275 177.116ZM416.014 168.625H430.124V166.625H416.014V168.625ZM429.124 167.625C429.124 169.848 429.466 171.792 430.195 173.424L432.021 172.608C431.437 171.301 431.124 169.652 431.124 167.625H429.124ZM430.195 173.424C430.914 175.033 431.937 176.358 433.267 177.373L434.48 175.783C433.436 174.986 432.615 173.936 432.021 172.608L430.195 173.424ZM433.277 177.381C434.615 178.376 436.178 179.084 437.948 179.518L438.424 177.576C436.882 177.197 435.57 176.593 434.47 175.776L433.277 177.381ZM437.952 179.519C439.727 179.946 441.65 180.156 443.717 180.156V178.156C441.785 178.156 440.021 177.96 438.42 177.575L437.952 179.519ZM443.717 180.156C446.239 180.156 448.389 179.802 450.12 179.04L449.315 177.21C447.921 177.823 446.071 178.156 443.717 178.156V180.156ZM450.114 179.043C451.855 178.292 453.206 177.218 454.085 175.79L452.381 174.742C451.76 175.751 450.767 176.583 449.321 177.207L450.114 179.043ZM454.075 175.805C454.966 174.416 455.405 172.852 455.405 171.141H453.405C453.405 172.492 453.063 173.678 452.391 174.726L454.075 175.805Z" fill="black"/>
<path d="M320.331 112.051C316.255 117.662 317.487 125.435 323.097 129.511C328.707 133.587 336.531 132.287 340.557 126.746C344.633 121.136 343.401 113.362 337.791 109.286C332.231 105.14 324.407 106.441 320.331 112.051Z" fill="#00B0FF"/>
<path d="M337.999 137V159.001L338 189H322V159.001V137H337.999Z" fill="black"/>
</svg>
