<svg width="549" height="213" viewBox="0 0 549 213" fill="none" xmlns="http://www.w3.org/2000/svg">
<path d="M12.5156 20.75H24.4219L41.9531 70.8594L59.4844 20.75H71.3906L46.7344 89H37.1719L12.5156 20.75ZM6.09375 20.75H17.9531L20.1094 69.5938V89H6.09375V20.75ZM65.9531 20.75H77.8594V89H63.7969V69.5938L65.9531 20.75ZM140.784 78.0312V89H104.456V78.0312H140.784ZM109.05 20.75V89H94.9875V20.75H109.05ZM136.05 48.5469V59.2344H104.456V48.5469H136.05ZM140.738 20.75V31.7656H104.456V20.75H140.738ZM185.241 20.75V89H171.225V20.75H185.241ZM206.241 20.75V31.7656H150.553V20.75H206.241ZM241.744 32.4219L223.181 89H208.228L233.587 20.75H243.103L241.744 32.4219ZM257.166 89L238.556 32.4219L237.056 20.75H246.666L272.166 89H257.166ZM256.322 63.5938V74.6094H220.275V63.5938H256.322ZM297.403 78.1719L310.997 20.75H318.591L320.325 30.3125L305.841 89H297.684L297.403 78.1719ZM290.419 20.75L301.669 78.1719L300.731 89H291.638L276.497 20.75H290.419ZM332.278 77.9375L343.388 20.75H357.309L342.216 89H333.122L332.278 77.9375ZM322.856 20.75L336.544 78.4062L336.169 89H328.013L313.434 30.2656L315.309 20.75H322.856ZM395.438 32.4219L376.875 89H361.922L387.281 20.75H396.797L395.438 32.4219ZM410.859 89L392.25 32.4219L390.75 20.75H400.359L425.859 89H410.859ZM410.016 63.5938V74.6094H373.969V63.5938H410.016ZM457.753 74.75L473.831 20.75H489.487L465.722 89H455.409L457.753 74.75ZM442.941 20.75L458.972 74.75L461.409 89H451.003L427.378 20.75H442.941ZM546.459 78.0312V89H510.131V78.0312H546.459ZM514.725 20.75V89H500.663V20.75H514.725ZM541.725 48.5469V59.2344H510.131V48.5469H541.725ZM546.413 20.75V31.7656H510.131V20.75H546.413Z" fill="black"/>
<path d="M12.5156 20.75V19.75H11.0911L11.5751 21.0898L12.5156 20.75ZM24.4219 20.75L25.3658 20.4198L25.1314 19.75H24.4219V20.75ZM41.9531 70.8594L41.0092 71.1896L41.9531 73.8875L42.897 71.1896L41.9531 70.8594ZM59.4844 20.75V19.75H58.7748L58.5405 20.4198L59.4844 20.75ZM71.3906 20.75L72.3311 21.0898L72.8151 19.75H71.3906V20.75ZM46.7344 89V90H47.4364L47.6749 89.3398L46.7344 89ZM37.1719 89L36.2314 89.3398L36.4699 90H37.1719V89ZM6.09375 20.75V19.75H5.09375V20.75H6.09375ZM17.9531 20.75L18.9522 20.7059L18.91 19.75H17.9531V20.75ZM20.1094 69.5938H21.1094V69.5717L21.1084 69.5496L20.1094 69.5938ZM20.1094 89V90H21.1094V89H20.1094ZM6.09375 89H5.09375V90H6.09375V89ZM65.9531 20.75V19.75H64.9963L64.9541 20.7059L65.9531 20.75ZM77.8594 20.75H78.8594V19.75H77.8594V20.75ZM77.8594 89V90H78.8594V89H77.8594ZM63.7969 89H62.7969V90H63.7969V89ZM63.7969 69.5938L62.7978 69.5496L62.7969 69.5717V69.5938H63.7969ZM12.5156 21.75H24.4219V19.75H12.5156V21.75ZM23.478 21.0802L41.0092 71.1896L42.897 70.5291L25.3658 20.4198L23.478 21.0802ZM42.897 71.1896L60.4283 21.0802L58.5405 20.4198L41.0092 70.5291L42.897 71.1896ZM59.4844 21.75H71.3906V19.75H59.4844V21.75ZM70.4501 20.4102L45.7939 88.6602L47.6749 89.3398L72.3311 21.0898L70.4501 20.4102ZM46.7344 88H37.1719V90H46.7344V88ZM38.1124 88.6602L13.4561 20.4102L11.5751 21.0898L36.2314 89.3398L38.1124 88.6602ZM6.09375 21.75H17.9531V19.75H6.09375V21.75ZM16.9541 20.7941L19.1103 69.6379L21.1084 69.5496L18.9522 20.7059L16.9541 20.7941ZM19.1094 69.5938V89H21.1094V69.5938H19.1094ZM20.1094 88H6.09375V90H20.1094V88ZM7.09375 89V20.75H5.09375V89H7.09375ZM65.9531 21.75H77.8594V19.75H65.9531V21.75ZM76.8594 20.75V89H78.8594V20.75H76.8594ZM77.8594 88H63.7969V90H77.8594V88ZM64.7969 89V69.5938H62.7969V89H64.7969ZM64.7959 69.6379L66.9522 20.7941L64.9541 20.7059L62.7978 69.5496L64.7959 69.6379ZM140.784 78.0312H141.784V77.0312H140.784V78.0312ZM140.784 89V90H141.784V89H140.784ZM104.456 89H103.456V90H104.456V89ZM104.456 78.0312V77.0312H103.456V78.0312H104.456ZM109.05 20.75H110.05V19.75H109.05V20.75ZM109.05 89V90H110.05V89H109.05ZM94.9875 89H93.9875V90H94.9875V89ZM94.9875 20.75V19.75H93.9875V20.75H94.9875ZM136.05 48.5469H137.05V47.5469H136.05V48.5469ZM136.05 59.2344V60.2344H137.05V59.2344H136.05ZM104.456 59.2344H103.456V60.2344H104.456V59.2344ZM104.456 48.5469V47.5469H103.456V48.5469H104.456ZM140.738 20.75H141.738V19.75H140.738V20.75ZM140.738 31.7656V32.7656H141.738V31.7656H140.738ZM104.456 31.7656H103.456V32.7656H104.456V31.7656ZM104.456 20.75V19.75H103.456V20.75H104.456ZM139.784 78.0312V89H141.784V78.0312H139.784ZM140.784 88H104.456V90H140.784V88ZM105.456 89V78.0312H103.456V89H105.456ZM104.456 79.0312H140.784V77.0312H104.456V79.0312ZM108.05 20.75V89H110.05V20.75H108.05ZM109.05 88H94.9875V90H109.05V88ZM95.9875 89V20.75H93.9875V89H95.9875ZM94.9875 21.75H109.05V19.75H94.9875V21.75ZM135.05 48.5469V59.2344H137.05V48.5469H135.05ZM136.05 58.2344H104.456V60.2344H136.05V58.2344ZM105.456 59.2344V48.5469H103.456V59.2344H105.456ZM104.456 49.5469H136.05V47.5469H104.456V49.5469ZM139.738 20.75V31.7656H141.738V20.75H139.738ZM140.738 30.7656H104.456V32.7656H140.738V30.7656ZM105.456 31.7656V20.75H103.456V31.7656H105.456ZM104.456 21.75H140.738V19.75H104.456V21.75ZM185.241 20.75H186.241V19.75H185.241V20.75ZM185.241 89V90H186.241V89H185.241ZM171.225 89H170.225V90H171.225V89ZM171.225 20.75V19.75H170.225V20.75H171.225ZM206.241 20.75H207.241V19.75H206.241V20.75ZM206.241 31.7656V32.7656H207.241V31.7656H206.241ZM150.553 31.7656H149.553V32.7656H150.553V31.7656ZM150.553 20.75V19.75H149.553V20.75H150.553ZM184.241 20.75V89H186.241V20.75H184.241ZM185.241 88H171.225V90H185.241V88ZM172.225 89V20.75H170.225V89H172.225ZM171.225 21.75H185.241V19.75H171.225V21.75ZM205.241 20.75V31.7656H207.241V20.75H205.241ZM206.241 30.7656H150.553V32.7656H206.241V30.7656ZM151.553 31.7656V20.75H149.553V31.7656H151.553ZM150.553 21.75H206.241V19.75H150.553V21.75ZM241.744 32.4219L242.694 32.7336L242.725 32.6378L242.737 32.5376L241.744 32.4219ZM223.181 89V90H223.906L224.131 89.3117L223.181 89ZM208.228 89L207.291 88.6517L206.79 90H208.228V89ZM233.587 20.75V19.75H232.892L232.65 20.4017L233.587 20.75ZM243.103 20.75L244.096 20.8657L244.226 19.75H243.103V20.75ZM257.166 89L256.216 89.3124L256.442 90H257.166V89ZM238.556 32.4219L237.564 32.5493L237.577 32.6438L237.606 32.7343L238.556 32.4219ZM237.056 20.75V19.75H235.92L236.064 20.8775L237.056 20.75ZM246.666 20.75L247.602 20.4L247.36 19.75H246.666V20.75ZM272.166 89V90H273.607L273.102 88.65L272.166 89ZM256.322 63.5938H257.322V62.5938H256.322V63.5938ZM256.322 74.6094V75.6094H257.322V74.6094H256.322ZM220.275 74.6094H219.275V75.6094H220.275V74.6094ZM220.275 63.5938V62.5938H219.275V63.5938H220.275ZM240.794 32.1101L222.231 88.6883L224.131 89.3117L242.694 32.7336L240.794 32.1101ZM223.181 88H208.228V90H223.181V88ZM209.166 89.3483L234.525 21.0983L232.65 20.4017L207.291 88.6517L209.166 89.3483ZM233.587 21.75H243.103V19.75H233.587V21.75ZM242.11 20.6343L240.75 32.3062L242.737 32.5376L244.096 20.8657L242.11 20.6343ZM258.116 88.6876L239.506 32.1094L237.606 32.7343L256.216 89.3124L258.116 88.6876ZM239.548 32.2944L238.048 20.6225L236.064 20.8775L237.564 32.5493L239.548 32.2944ZM237.056 21.75H246.666V19.75H237.056V21.75ZM245.729 21.1L271.229 89.35L273.102 88.65L247.602 20.4L245.729 21.1ZM272.166 88H257.166V90H272.166V88ZM255.322 63.5938V74.6094H257.322V63.5938H255.322ZM256.322 73.6094H220.275V75.6094H256.322V73.6094ZM221.275 74.6094V63.5938H219.275V74.6094H221.275ZM220.275 64.5938H256.322V62.5938H220.275V64.5938ZM297.403 78.1719L296.43 77.9415L296.4 78.0679L296.403 78.1978L297.403 78.1719ZM310.997 20.75V19.75H310.206L310.024 20.5196L310.997 20.75ZM318.591 20.75L319.575 20.5715L319.426 19.75H318.591V20.75ZM320.325 30.3125L321.296 30.5521L321.347 30.3445L321.309 30.134L320.325 30.3125ZM305.841 89V90H306.624L306.812 89.2396L305.841 89ZM297.684 89L296.685 89.026L296.71 90H297.684V89ZM290.419 20.75L291.4 20.5577L291.242 19.75H290.419V20.75ZM301.669 78.1719L302.665 78.2581L302.677 78.1178L302.65 77.9796L301.669 78.1719ZM300.731 89V90H301.648L301.728 89.0863L300.731 89ZM291.638 89L290.661 89.2166L290.835 90H291.638V89ZM276.497 20.75V19.75H275.251L275.521 20.9666L276.497 20.75ZM332.278 77.9375L331.296 77.7468L331.271 77.8791L331.281 78.0136L332.278 77.9375ZM343.388 20.75V19.75H342.563L342.406 20.5593L343.388 20.75ZM357.309 20.75L358.286 20.9659L358.555 19.75H357.309V20.75ZM342.216 89V90H343.019L343.192 89.2159L342.216 89ZM333.122 89L332.125 89.0761L332.195 90H333.122V89ZM322.856 20.75L323.829 20.519L323.647 19.75H322.856V20.75ZM336.544 78.4062L337.543 78.4416L337.548 78.3067L337.517 78.1753L336.544 78.4062ZM336.169 89V90H337.134L337.168 89.0354L336.169 89ZM328.013 89L327.042 89.2409L327.23 90H328.013V89ZM313.434 30.2656L312.453 30.0723L312.41 30.2906L312.464 30.5065L313.434 30.2656ZM315.309 20.75V19.75H314.487L314.328 20.5567L315.309 20.75ZM298.376 78.4022L311.97 20.9804L310.024 20.5196L296.43 77.9415L298.376 78.4022ZM310.997 21.75H318.591V19.75H310.997V21.75ZM317.607 20.9285L319.341 30.491L321.309 30.134L319.575 20.5715L317.607 20.9285ZM319.354 30.0729L304.87 88.7604L306.812 89.2396L321.296 30.5521L319.354 30.0729ZM305.841 88H297.684V90H305.841V88ZM298.684 88.974L298.403 78.1459L296.403 78.1978L296.685 89.026L298.684 88.974ZM289.437 20.9423L300.687 78.3641L302.65 77.9796L291.4 20.5577L289.437 20.9423ZM300.672 78.0856L299.735 88.9137L301.728 89.0863L302.665 78.2581L300.672 78.0856ZM300.731 88H291.638V90H300.731V88ZM292.614 88.7834L277.473 20.5334L275.521 20.9666L290.661 89.2166L292.614 88.7834ZM276.497 21.75H290.419V19.75H276.497V21.75ZM333.26 78.1282L344.369 20.9407L342.406 20.5593L331.296 77.7468L333.26 78.1282ZM343.388 21.75H357.309V19.75H343.388V21.75ZM356.333 20.5341L341.239 88.7841L343.192 89.2159L358.286 20.9659L356.333 20.5341ZM342.216 88H333.122V90H342.216V88ZM334.119 88.9239L333.275 77.8614L331.281 78.0136L332.125 89.0761L334.119 88.9239ZM321.883 20.981L335.571 78.6372L337.517 78.1753L323.829 20.519L321.883 20.981ZM335.544 78.3709L335.169 88.9646L337.168 89.0354L337.543 78.4416L335.544 78.3709ZM336.169 88H328.013V90H336.169V88ZM328.983 88.7591L314.405 30.0247L312.464 30.5065L327.042 89.2409L328.983 88.7591ZM314.416 30.459L316.291 20.9433L314.328 20.5567L312.453 30.0723L314.416 30.459ZM315.309 21.75H322.856V19.75H315.309V21.75ZM395.438 32.4219L396.388 32.7336L396.419 32.6378L396.431 32.5376L395.438 32.4219ZM376.875 89V90H377.599L377.825 89.3117L376.875 89ZM361.922 89L360.984 88.6517L360.484 90H361.922V89ZM387.281 20.75V19.75H386.586L386.344 20.4017L387.281 20.75ZM396.797 20.75L397.79 20.8657L397.92 19.75H396.797V20.75ZM410.859 89L409.909 89.3124L410.136 90H410.859V89ZM392.25 32.4219L391.258 32.5493L391.27 32.6438L391.3 32.7343L392.25 32.4219ZM390.75 20.75V19.75H389.613L389.758 20.8775L390.75 20.75ZM400.359 20.75L401.296 20.4L401.053 19.75H400.359V20.75ZM425.859 89V90H427.301L426.796 88.65L425.859 89ZM410.016 63.5938H411.016V62.5938H410.016V63.5938ZM410.016 74.6094V75.6094H411.016V74.6094H410.016ZM373.969 74.6094H372.969V75.6094H373.969V74.6094ZM373.969 63.5938V62.5938H372.969V63.5938H373.969ZM394.487 32.1101L375.925 88.6883L377.825 89.3117L396.388 32.7336L394.487 32.1101ZM376.875 88H361.922V90H376.875V88ZM362.859 89.3483L388.219 21.0983L386.344 20.4017L360.984 88.6517L362.859 89.3483ZM387.281 21.75H396.797V19.75H387.281V21.75ZM395.804 20.6343L394.444 32.3062L396.431 32.5376L397.79 20.8657L395.804 20.6343ZM411.809 88.6876L393.2 32.1094L391.3 32.7343L409.909 89.3124L411.809 88.6876ZM393.242 32.2944L391.742 20.6225L389.758 20.8775L391.258 32.5493L393.242 32.2944ZM390.75 21.75H400.359V19.75H390.75V21.75ZM399.423 21.1L424.923 89.35L426.796 88.65L401.296 20.4L399.423 21.1ZM425.859 88H410.859V90H425.859V88ZM409.016 63.5938V74.6094H411.016V63.5938H409.016ZM410.016 73.6094H373.969V75.6094H410.016V73.6094ZM374.969 74.6094V63.5938H372.969V74.6094H374.969ZM373.969 64.5938H410.016V62.5938H373.969V64.5938ZM457.753 74.75L456.795 74.4646L456.777 74.5253L456.766 74.5877L457.753 74.75ZM473.831 20.75V19.75H473.086L472.873 20.4646L473.831 20.75ZM489.487 20.75L490.432 21.0788L490.895 19.75H489.487V20.75ZM465.722 89V90H466.433L466.666 89.3288L465.722 89ZM455.409 89L454.423 88.8377L454.231 90H455.409V89ZM442.941 20.75L443.899 20.4654L443.687 19.75H442.941V20.75ZM458.972 74.75L459.958 74.5814L459.947 74.5226L459.931 74.4654L458.972 74.75ZM461.409 89V90H462.595L462.395 88.8314L461.409 89ZM451.003 89L450.058 89.3271L450.291 90H451.003V89ZM427.378 20.75V19.75H425.974L426.433 21.0771L427.378 20.75ZM458.712 75.0354L474.79 21.0354L472.873 20.4646L456.795 74.4646L458.712 75.0354ZM473.831 21.75H489.487V19.75H473.831V21.75ZM488.543 20.4212L464.777 88.6712L466.666 89.3288L490.432 21.0788L488.543 20.4212ZM465.722 88H455.409V90H465.722V88ZM456.396 89.1623L458.74 74.9123L456.766 74.5877L454.423 88.8377L456.396 89.1623ZM441.982 21.0346L458.013 75.0346L459.931 74.4654L443.899 20.4654L441.982 21.0346ZM457.986 74.9186L460.424 89.1686L462.395 88.8314L459.958 74.5814L457.986 74.9186ZM461.409 88H451.003V90H461.409V88ZM451.948 88.6729L428.323 20.4229L426.433 21.0771L450.058 89.3271L451.948 88.6729ZM427.378 21.75H442.941V19.75H427.378V21.75ZM546.459 78.0312H547.459V77.0312H546.459V78.0312ZM546.459 89V90H547.459V89H546.459ZM510.131 89H509.131V90H510.131V89ZM510.131 78.0312V77.0312H509.131V78.0312H510.131ZM514.725 20.75H515.725V19.75H514.725V20.75ZM514.725 89V90H515.725V89H514.725ZM500.663 89H499.663V90H500.663V89ZM500.663 20.75V19.75H499.663V20.75H500.663ZM541.725 48.5469H542.725V47.5469H541.725V48.5469ZM541.725 59.2344V60.2344H542.725V59.2344H541.725ZM510.131 59.2344H509.131V60.2344H510.131V59.2344ZM510.131 48.5469V47.5469H509.131V48.5469H510.131ZM546.413 20.75H547.413V19.75H546.413V20.75ZM546.413 31.7656V32.7656H547.413V31.7656H546.413ZM510.131 31.7656H509.131V32.7656H510.131V31.7656ZM510.131 20.75V19.75H509.131V20.75H510.131ZM545.459 78.0312V89H547.459V78.0312H545.459ZM546.459 88H510.131V90H546.459V88ZM511.131 89V78.0312H509.131V89H511.131ZM510.131 79.0312H546.459V77.0312H510.131V79.0312ZM513.725 20.75V89H515.725V20.75H513.725ZM514.725 88H500.663V90H514.725V88ZM501.663 89V20.75H499.663V89H501.663ZM500.663 21.75H514.725V19.75H500.663V21.75ZM540.725 48.5469V59.2344H542.725V48.5469H540.725ZM541.725 58.2344H510.131V60.2344H541.725V58.2344ZM511.131 59.2344V48.5469H509.131V59.2344H511.131ZM510.131 49.5469H541.725V47.5469H510.131V49.5469ZM545.413 20.75V31.7656H547.413V20.75H545.413ZM546.413 30.7656H510.131V32.7656H546.413V30.7656ZM511.131 31.7656V20.75H509.131V31.7656H511.131ZM510.131 21.75H546.413V19.75H510.131V21.75Z" fill="black"/>
<path d="M116.625 171.141C116.625 169.922 116.438 168.828 116.062 167.859C115.719 166.859 115.062 165.953 114.094 165.141C113.125 164.297 111.766 163.469 110.016 162.656C108.266 161.844 106 161 103.219 160.125C100.125 159.125 97.1875 158 94.4062 156.75C91.6562 155.5 89.2188 154.047 87.0938 152.391C85 150.703 83.3438 148.75 82.125 146.531C80.9375 144.312 80.3438 141.734 80.3438 138.797C80.3438 135.953 80.9688 133.375 82.2188 131.062C83.4688 128.719 85.2188 126.719 87.4688 125.062C89.7188 123.375 92.375 122.078 95.4375 121.172C98.5312 120.266 101.922 119.812 105.609 119.812C110.641 119.812 115.031 120.719 118.781 122.531C122.531 124.344 125.438 126.828 127.5 129.984C129.594 133.141 130.641 136.75 130.641 140.812H116.672C116.672 138.812 116.25 137.062 115.406 135.562C114.594 134.031 113.344 132.828 111.656 131.953C110 131.078 107.906 130.641 105.375 130.641C102.938 130.641 100.906 131.016 99.2812 131.766C97.6562 132.484 96.4375 133.469 95.625 134.719C94.8125 135.938 94.4062 137.312 94.4062 138.844C94.4062 140 94.6875 141.047 95.25 141.984C95.8438 142.922 96.7188 143.797 97.875 144.609C99.0312 145.422 100.453 146.188 102.141 146.906C103.828 147.625 105.781 148.328 108 149.016C111.719 150.141 114.984 151.406 117.797 152.812C120.641 154.219 123.016 155.797 124.922 157.547C126.828 159.297 128.266 161.281 129.234 163.5C130.203 165.719 130.688 168.234 130.688 171.047C130.688 174.016 130.109 176.672 128.953 179.016C127.797 181.359 126.125 183.344 123.938 184.969C121.75 186.594 119.141 187.828 116.109 188.672C113.078 189.516 109.688 189.938 105.938 189.938C102.562 189.938 99.2344 189.5 95.9531 188.625C92.6719 187.719 89.6875 186.359 87 184.547C84.3438 182.734 82.2188 180.422 80.625 177.609C79.0312 174.797 78.2344 171.469 78.2344 167.625H92.3438C92.3438 169.75 92.6719 171.547 93.3281 173.016C93.9844 174.484 94.9062 175.672 96.0938 176.578C97.3125 177.484 98.75 178.141 100.406 178.547C102.094 178.953 103.938 179.156 105.938 179.156C108.375 179.156 110.375 178.812 111.938 178.125C113.531 177.438 114.703 176.484 115.453 175.266C116.234 174.047 116.625 172.672 116.625 171.141ZM173.646 120.75V189H159.63V120.75H173.646ZM194.646 120.75V131.766H138.958V120.75H194.646ZM243.229 120.75H257.244V165.844C257.244 171.094 256.119 175.516 253.869 179.109C251.651 182.703 248.573 185.406 244.635 187.219C240.729 189.031 236.229 189.938 231.135 189.938C226.041 189.938 221.51 189.031 217.541 187.219C213.604 185.406 210.51 182.703 208.26 179.109C206.041 175.516 204.932 171.094 204.932 165.844V120.75H218.994V165.844C218.994 168.906 219.479 171.406 220.448 173.344C221.416 175.281 222.807 176.703 224.619 177.609C226.463 178.516 228.635 178.969 231.135 178.969C233.698 178.969 235.869 178.516 237.651 177.609C239.463 176.703 240.838 175.281 241.776 173.344C242.744 171.406 243.229 168.906 243.229 165.844V120.75ZM292.656 189H277.796L277.89 178.031H292.656C296.343 178.031 299.452 177.203 301.984 175.547C304.515 173.859 306.421 171.406 307.702 168.188C309.015 164.969 309.671 161.078 309.671 156.516V153.188C309.671 149.688 309.296 146.609 308.546 143.953C307.827 141.297 306.749 139.062 305.312 137.25C303.874 135.438 302.109 134.078 300.015 133.172C297.921 132.234 295.515 131.766 292.796 131.766H277.515V120.75H292.796C297.359 120.75 301.531 121.531 305.312 123.094C309.124 124.625 312.421 126.828 315.202 129.703C317.984 132.578 320.124 136.016 321.624 140.016C323.156 143.984 323.921 148.406 323.921 153.281V156.516C323.921 161.359 323.156 165.781 321.624 169.781C320.124 173.781 317.984 177.219 315.202 180.094C312.452 182.938 309.156 185.141 305.312 186.703C301.499 188.234 297.281 189 292.656 189ZM285.765 120.75V189H271.702V120.75H285.765ZM346.711 137.812V189H336.2V137.812H346.711ZM416.336 153.281V156.516C416.336 161.703 415.633 166.359 414.227 170.484C412.821 174.609 410.836 178.125 408.274 181.031C405.711 183.906 402.649 186.109 399.086 187.641C395.555 189.172 391.633 189.938 387.321 189.938C383.039 189.938 379.117 189.172 375.555 187.641C372.024 186.109 368.961 183.906 366.367 181.031C363.774 178.125 361.758 174.609 360.321 170.484C358.914 166.359 358.211 161.703 358.211 156.516V153.281C358.211 148.062 358.914 143.406 360.321 139.312C361.727 135.188 363.711 131.672 366.274 128.766C368.867 125.859 371.93 123.641 375.461 122.109C379.024 120.578 382.946 119.812 387.227 119.812C391.539 119.812 395.461 120.578 398.992 122.109C402.555 123.641 405.617 125.859 408.18 128.766C410.774 131.672 412.774 135.188 414.18 139.312C415.617 143.406 416.336 148.062 416.336 153.281ZM402.133 156.516V153.188C402.133 149.562 401.805 146.375 401.149 143.625C400.492 140.875 399.524 138.562 398.242 136.688C396.961 134.812 395.399 133.406 393.555 132.469C391.711 131.5 389.602 131.016 387.227 131.016C384.852 131.016 382.742 131.5 380.899 132.469C379.086 133.406 377.539 134.812 376.258 136.688C375.008 138.562 374.055 140.875 373.399 143.625C372.742 146.375 372.414 149.562 372.414 153.188V156.516C372.414 160.109 372.742 163.297 373.399 166.078C374.055 168.828 375.024 171.156 376.305 173.062C377.586 174.938 379.149 176.359 380.992 177.328C382.836 178.297 384.946 178.781 387.321 178.781C389.696 178.781 391.805 178.297 393.649 177.328C395.492 176.359 397.039 174.938 398.289 173.062C399.539 171.156 400.492 168.828 401.149 166.078C401.805 163.297 402.133 160.109 402.133 156.516ZM464.872 171.141C464.872 169.922 464.685 168.828 464.31 167.859C463.966 166.859 463.31 165.953 462.341 165.141C461.372 164.297 460.013 163.469 458.263 162.656C456.513 161.844 454.247 161 451.466 160.125C448.372 159.125 445.435 158 442.654 156.75C439.904 155.5 437.466 154.047 435.341 152.391C433.247 150.703 431.591 148.75 430.372 146.531C429.185 144.312 428.591 141.734 428.591 138.797C428.591 135.953 429.216 133.375 430.466 131.062C431.716 128.719 433.466 126.719 435.716 125.062C437.966 123.375 440.622 122.078 443.685 121.172C446.779 120.266 450.169 119.812 453.857 119.812C458.888 119.812 463.279 120.719 467.029 122.531C470.779 124.344 473.685 126.828 475.747 129.984C477.841 133.141 478.888 136.75 478.888 140.812H464.919C464.919 138.812 464.497 137.062 463.654 135.562C462.841 134.031 461.591 132.828 459.904 131.953C458.247 131.078 456.154 130.641 453.622 130.641C451.185 130.641 449.154 131.016 447.529 131.766C445.904 132.484 444.685 133.469 443.872 134.719C443.06 135.938 442.654 137.312 442.654 138.844C442.654 140 442.935 141.047 443.497 141.984C444.091 142.922 444.966 143.797 446.122 144.609C447.279 145.422 448.701 146.188 450.388 146.906C452.076 147.625 454.029 148.328 456.247 149.016C459.966 150.141 463.232 151.406 466.044 152.812C468.888 154.219 471.263 155.797 473.169 157.547C475.076 159.297 476.513 161.281 477.482 163.5C478.451 165.719 478.935 168.234 478.935 171.047C478.935 174.016 478.357 176.672 477.201 179.016C476.044 181.359 474.372 183.344 472.185 184.969C469.997 186.594 467.388 187.828 464.357 188.672C461.326 189.516 457.935 189.938 454.185 189.938C450.81 189.938 447.482 189.5 444.201 188.625C440.919 187.719 437.935 186.359 435.247 184.547C432.591 182.734 430.466 180.422 428.872 177.609C427.279 174.797 426.482 171.469 426.482 167.625H440.591C440.591 169.75 440.919 171.547 441.576 173.016C442.232 174.484 443.154 175.672 444.341 176.578C445.56 177.484 446.997 178.141 448.654 178.547C450.341 178.953 452.185 179.156 454.185 179.156C456.622 179.156 458.622 178.812 460.185 178.125C461.779 177.438 462.951 176.484 463.701 175.266C464.482 174.047 464.872 172.672 464.872 171.141Z" fill="black"/>
<path d="M116.062 167.859L115.117 168.184L115.123 168.203L115.13 168.22L116.062 167.859ZM114.094 165.141L113.437 165.895L113.444 165.901L113.451 165.907L114.094 165.141ZM103.219 160.125L102.911 161.077L102.919 161.079L103.219 160.125ZM94.4062 156.75L93.9924 157.66L93.9963 157.662L94.4062 156.75ZM87.0938 152.391L86.4662 153.169L86.4726 153.174L86.479 153.179L87.0938 152.391ZM82.125 146.531L81.2433 147.003L81.2485 147.013L82.125 146.531ZM82.2188 131.062L83.0985 131.538L83.1011 131.533L82.2188 131.062ZM87.4688 125.062L88.0616 125.868L88.0687 125.862L87.4688 125.062ZM95.4375 121.172L95.1564 120.212L95.1537 120.213L95.4375 121.172ZM127.5 129.984L126.663 130.531L126.667 130.537L127.5 129.984ZM130.641 140.812V141.812H131.641V140.812H130.641ZM116.672 140.812H115.672V141.812H116.672V140.812ZM115.406 135.562L114.523 136.031L114.529 136.042L114.535 136.053L115.406 135.562ZM111.656 131.953L111.189 132.837L111.196 132.841L111.656 131.953ZM99.2812 131.766L99.6858 132.68L99.6931 132.677L99.7003 132.674L99.2812 131.766ZM95.625 134.719L96.4571 135.273L96.4634 135.264L95.625 134.719ZM95.25 141.984L94.3925 142.499L94.3987 142.509L94.4052 142.519L95.25 141.984ZM108 149.016L107.704 149.971L107.71 149.973L108 149.016ZM117.797 152.812L117.35 153.707L117.354 153.709L117.797 152.812ZM95.9531 188.625L95.6869 189.589L95.6955 189.591L95.9531 188.625ZM87 184.547L86.4364 185.373L86.4409 185.376L87 184.547ZM78.2344 167.625V166.625H77.2344V167.625H78.2344ZM92.3438 167.625H93.3438V166.625H92.3438V167.625ZM96.0938 176.578L95.487 177.373L95.497 177.381L96.0938 176.578ZM100.406 178.547L100.168 179.518L100.172 179.519L100.406 178.547ZM111.938 178.125L111.541 177.207L111.535 177.21L111.938 178.125ZM115.453 175.266L114.611 174.726L114.606 174.734L114.601 174.742L115.453 175.266ZM117.625 171.141C117.625 169.819 117.422 168.6 116.995 167.498L115.13 168.22C115.453 169.056 115.625 170.024 115.625 171.141H117.625ZM117.008 167.534C116.595 166.332 115.817 165.281 114.736 164.374L113.451 165.907C114.308 166.626 114.843 167.387 115.117 168.184L117.008 167.534ZM114.751 164.387C113.685 163.458 112.234 162.584 110.437 161.749L109.595 163.563C111.297 164.354 112.565 165.135 113.437 165.895L114.751 164.387ZM110.437 161.749C108.633 160.912 106.323 160.053 103.519 159.171L102.919 161.079C105.677 161.947 107.898 162.776 109.595 163.563L110.437 161.749ZM103.526 159.173C100.465 158.184 97.5619 157.072 94.8162 155.838L93.9963 157.662C96.8131 158.928 99.7849 160.066 102.911 161.077L103.526 159.173ZM94.8201 155.84C92.1331 154.618 89.7646 153.204 87.7085 151.602L86.479 153.179C88.6729 154.889 91.1794 156.382 93.9924 157.66L94.8201 155.84ZM87.7213 151.612C85.7227 150.001 84.1536 148.147 83.0015 146.05L81.2485 147.013C82.5339 149.353 84.2773 151.405 86.4662 153.169L87.7213 151.612ZM83.0067 146.059C81.9089 144.008 81.3438 141.597 81.3438 138.797H79.3438C79.3438 141.871 79.9661 144.617 81.2433 147.003L83.0067 146.059ZM81.3438 138.797C81.3438 136.105 81.9338 133.693 83.0985 131.538L81.339 130.587C80.0037 133.057 79.3438 135.801 79.3438 138.797H81.3438ZM83.1011 131.533C84.2772 129.328 85.9255 127.44 88.0616 125.868L86.8759 124.257C84.512 125.997 82.6603 128.11 81.3364 130.592L83.1011 131.533ZM88.0687 125.862C90.2116 124.255 92.7575 123.008 95.7213 122.131L95.1537 120.213C91.9925 121.148 89.2259 122.495 86.8688 124.263L88.0687 125.862ZM95.7186 122.132C98.709 121.256 102.004 120.812 105.609 120.812V118.812C101.84 118.812 98.3535 119.276 95.1564 120.212L95.7186 122.132ZM105.609 120.812C110.521 120.812 114.757 121.697 118.346 123.432L119.216 121.631C115.305 119.741 110.76 118.812 105.609 118.812V120.812ZM118.346 123.432C121.95 125.174 124.71 127.543 126.663 130.531L128.337 129.437C126.165 126.113 123.112 123.514 119.216 121.631L118.346 123.432ZM126.667 130.537C128.644 133.518 129.641 136.932 129.641 140.812H131.641C131.641 136.568 130.544 132.764 128.333 129.432L126.667 130.537ZM130.641 139.812H116.672V141.812H130.641V139.812ZM117.672 140.812C117.672 138.669 117.219 136.745 116.278 135.072L114.535 136.053C115.281 137.38 115.672 138.956 115.672 140.812H117.672ZM116.29 135.094C115.373 133.366 113.966 132.024 112.117 131.065L111.196 132.841C112.721 133.632 113.815 134.697 114.523 136.031L116.29 135.094ZM112.123 131.069C110.282 130.096 108.014 129.641 105.375 129.641V131.641C107.798 131.641 109.718 132.06 111.189 132.837L112.123 131.069ZM105.375 129.641C102.842 129.641 100.657 130.029 98.8622 130.858L99.7003 132.674C101.155 132.002 103.033 131.641 105.375 131.641V129.641ZM98.8767 130.851C97.1089 131.633 95.7236 132.732 94.7866 134.174L96.4634 135.264C97.1514 134.205 98.2036 133.336 99.6858 132.68L98.8767 130.851ZM94.7929 134.164C93.8658 135.555 93.4062 137.125 93.4062 138.844H95.4062C95.4062 137.5 95.7592 136.32 96.4571 135.273L94.7929 134.164ZM93.4062 138.844C93.4062 140.17 93.7313 141.397 94.3925 142.499L96.1075 141.47C95.6437 140.697 95.4062 139.83 95.4062 138.844H93.4062ZM94.4052 142.519C95.0858 143.594 96.0644 144.559 97.3001 145.428L98.4499 143.791C97.3731 143.035 96.6017 142.25 96.0948 141.449L94.4052 142.519ZM97.3001 145.428C98.5276 146.29 100.015 147.088 101.749 147.826L102.532 145.986C100.891 145.287 99.5349 144.554 98.4499 143.791L97.3001 145.428ZM101.749 147.826C103.475 148.561 105.461 149.276 107.704 149.971L108.296 148.06C106.102 147.38 104.182 146.689 102.532 145.986L101.749 147.826ZM107.71 149.973C111.387 151.085 114.598 152.331 117.35 153.707L118.244 151.918C115.371 150.481 112.05 149.196 108.29 148.058L107.71 149.973ZM117.354 153.709C120.131 155.082 122.423 156.61 124.246 158.284L125.598 156.81C123.609 154.984 121.15 153.355 118.24 151.916L117.354 153.709ZM124.246 158.284C126.056 159.946 127.409 161.818 128.318 163.9L130.151 163.1C129.123 160.745 127.6 158.648 125.598 156.81L124.246 158.284ZM128.318 163.9C129.223 165.974 129.688 168.35 129.688 171.047H131.688C131.688 168.119 131.183 165.464 130.151 163.1L128.318 163.9ZM129.688 171.047C129.688 173.883 129.136 176.385 128.056 178.573L129.85 179.458C131.083 176.959 131.688 174.148 131.688 171.047H129.688ZM128.056 178.573C126.973 180.769 125.407 182.631 123.341 184.166L124.534 185.771C126.843 184.056 128.62 181.95 129.85 179.458L128.056 178.573ZM123.341 184.166C121.266 185.707 118.772 186.893 115.841 187.708L116.378 189.635C119.509 188.764 122.234 187.48 124.534 185.771L123.341 184.166ZM115.841 187.708C112.912 188.524 109.614 188.938 105.938 188.938V190.938C109.761 190.938 113.244 190.507 116.378 189.635L115.841 187.708ZM105.938 188.938C102.65 188.938 99.4085 188.511 96.2108 187.659L95.6955 189.591C99.0602 190.489 102.475 190.938 105.938 190.938V188.938ZM96.2193 187.661C93.0371 186.782 90.1525 185.467 87.5591 183.718L86.4409 185.376C89.2225 187.252 92.3066 188.655 95.6869 189.589L96.2193 187.661ZM87.5636 183.721C85.0343 181.995 83.0138 179.797 81.495 177.116L79.755 178.102C81.4237 181.047 83.6532 183.474 86.4364 185.373L87.5636 183.721ZM81.495 177.116C80.0013 174.48 79.2344 171.329 79.2344 167.625H77.2344C77.2344 171.609 78.0612 175.113 79.755 178.102L81.495 177.116ZM78.2344 168.625H92.3438V166.625H78.2344V168.625ZM91.3438 167.625C91.3438 169.848 91.6863 171.792 92.4151 173.424L94.2411 172.608C93.6575 171.301 93.3438 169.652 93.3438 167.625H91.3438ZM92.4151 173.424C93.1341 175.033 94.1566 176.358 95.4871 177.373L96.7004 175.783C95.6559 174.986 94.8346 173.936 94.2411 172.608L92.4151 173.424ZM95.497 177.381C96.8352 178.376 98.3981 179.084 100.168 179.518L100.644 177.576C99.1019 177.197 97.7898 176.593 96.6905 175.776L95.497 177.381ZM100.172 179.519C101.947 179.946 103.87 180.156 105.938 180.156V178.156C104.005 178.156 102.241 177.96 100.64 177.575L100.172 179.519ZM105.938 180.156C108.459 180.156 110.609 179.802 112.34 179.04L111.535 177.21C110.141 177.823 108.291 178.156 105.938 178.156V180.156ZM112.334 179.043C114.075 178.292 115.426 177.218 116.305 175.79L114.601 174.742C113.98 175.751 112.987 176.583 111.541 177.207L112.334 179.043ZM116.295 175.805C117.186 174.416 117.625 172.852 117.625 171.141H115.625C115.625 172.492 115.283 173.678 114.611 174.726L116.295 175.805ZM173.646 120.75H174.646V119.75H173.646V120.75ZM173.646 189V190H174.646V189H173.646ZM159.63 189H158.63V190H159.63V189ZM159.63 120.75V119.75H158.63V120.75H159.63ZM194.646 120.75H195.646V119.75H194.646V120.75ZM194.646 131.766V132.766H195.646V131.766H194.646ZM138.958 131.766H137.958V132.766H138.958V131.766ZM138.958 120.75V119.75H137.958V120.75H138.958ZM172.646 120.75V189H174.646V120.75H172.646ZM173.646 188H159.63V190H173.646V188ZM160.63 189V120.75H158.63V189H160.63ZM159.63 121.75H173.646V119.75H159.63V121.75ZM193.646 120.75V131.766H195.646V120.75H193.646ZM194.646 130.766H138.958V132.766H194.646V130.766ZM139.958 131.766V120.75H137.958V131.766H139.958ZM138.958 121.75H194.646V119.75H138.958V121.75ZM243.229 120.75V119.75H242.229V120.75H243.229ZM257.244 120.75H258.244V119.75H257.244V120.75ZM253.869 179.109L253.022 178.579L253.018 178.584L253.869 179.109ZM244.635 187.219L244.217 186.31L244.214 186.312L244.635 187.219ZM217.541 187.219L217.123 188.127L217.126 188.128L217.541 187.219ZM208.26 179.109L207.409 179.635L207.412 179.64L208.26 179.109ZM204.932 120.75V119.75H203.932V120.75H204.932ZM218.994 120.75H219.994V119.75H218.994V120.75ZM224.619 177.609L224.172 178.504L224.178 178.507L224.619 177.609ZM237.651 177.609L237.203 176.715L237.197 176.718L237.651 177.609ZM241.776 173.344L240.881 172.896L240.875 172.908L241.776 173.344ZM243.229 121.75H257.244V119.75H243.229V121.75ZM256.244 120.75V165.844H258.244V120.75H256.244ZM256.244 165.844C256.244 170.951 255.151 175.178 253.022 178.579L254.717 179.64C257.088 175.853 258.244 171.237 258.244 165.844H256.244ZM253.018 178.584C250.906 182.006 247.981 184.578 244.217 186.31L245.053 188.127C249.164 186.235 252.395 183.401 254.72 179.635L253.018 178.584ZM244.214 186.312C240.462 188.053 236.11 188.938 231.135 188.938V190.938C236.348 190.938 240.996 190.01 245.056 188.126L244.214 186.312ZM231.135 188.938C226.161 188.938 221.775 188.053 217.957 186.309L217.126 188.128C221.245 190.01 225.922 190.938 231.135 190.938V188.938ZM217.959 186.31C214.195 184.577 211.252 182.004 209.108 178.579L207.412 179.64C209.768 183.403 213.013 186.235 217.123 188.127L217.959 186.31ZM209.111 178.584C207.011 175.182 205.932 170.953 205.932 165.844H203.932C203.932 171.234 205.072 175.849 207.409 179.635L209.111 178.584ZM205.932 165.844V120.75H203.932V165.844H205.932ZM204.932 121.75H218.994V119.75H204.932V121.75ZM217.994 120.75V165.844H219.994V120.75H217.994ZM217.994 165.844C217.994 169.001 218.492 171.669 219.553 173.791L221.342 172.897C220.465 171.143 219.994 168.811 219.994 165.844H217.994ZM219.553 173.791C220.611 175.908 222.152 177.494 224.172 178.504L225.067 176.715C223.461 175.912 222.221 174.655 221.342 172.897L219.553 173.791ZM224.178 178.507C226.186 179.494 228.515 179.969 231.135 179.969V177.969C228.755 177.969 226.74 177.538 225.06 176.712L224.178 178.507ZM231.135 179.969C233.812 179.969 236.148 179.496 238.104 178.501L237.197 176.718C235.59 177.536 233.583 177.969 231.135 177.969V179.969ZM238.098 178.504C240.121 177.492 241.649 175.902 242.676 173.779L240.875 172.908C240.028 174.66 238.806 175.914 237.203 176.715L238.098 178.504ZM242.67 173.791C243.731 171.669 244.229 169.001 244.229 165.844H242.229C242.229 168.811 241.758 171.143 240.881 172.897L242.67 173.791ZM244.229 165.844V120.75H242.229V165.844H244.229ZM277.796 189L276.796 188.991L276.788 190H277.796V189ZM277.89 178.031V177.031H276.899L276.89 178.023L277.89 178.031ZM301.984 175.547L302.531 176.384L302.538 176.379L301.984 175.547ZM307.702 168.188L306.776 167.81L306.773 167.818L307.702 168.188ZM308.546 143.953L307.581 144.214L307.584 144.225L308.546 143.953ZM300.015 133.172L299.606 134.085L299.618 134.09L300.015 133.172ZM277.515 131.766H276.515V132.766H277.515V131.766ZM277.515 120.75V119.75H276.515V120.75H277.515ZM305.312 123.094L304.93 124.018L304.939 124.022L305.312 123.094ZM321.624 140.016L320.688 140.367L320.691 140.376L321.624 140.016ZM321.624 169.781L320.69 169.424L320.688 169.43L321.624 169.781ZM315.202 180.094L314.484 179.398L314.484 179.399L315.202 180.094ZM305.312 186.703L305.685 187.631L305.688 187.63L305.312 186.703ZM285.765 120.75H286.765V119.75H285.765V120.75ZM285.765 189V190H286.765V189H285.765ZM271.702 189H270.702V190H271.702V189ZM271.702 120.75V119.75H270.702V120.75H271.702ZM292.656 188H277.796V190H292.656V188ZM278.796 189.009L278.89 178.04L276.89 178.023L276.796 188.991L278.796 189.009ZM277.89 179.031H292.656V177.031H277.89V179.031ZM292.656 179.031C296.495 179.031 299.805 178.168 302.531 176.384L301.436 174.71C299.1 176.239 296.192 177.031 292.656 177.031V179.031ZM302.538 176.379C305.261 174.564 307.286 171.937 308.632 168.557L306.773 167.818C305.556 170.875 303.769 173.155 301.429 174.715L302.538 176.379ZM308.628 168.565C310.003 165.195 310.671 161.169 310.671 156.516H308.671C308.671 160.987 308.027 164.742 306.777 167.81L308.628 168.565ZM310.671 156.516V153.188H308.671V156.516H310.671ZM310.671 153.188C310.671 149.619 310.289 146.446 309.509 143.681L307.584 144.225C308.303 146.773 308.671 149.756 308.671 153.188H310.671ZM309.512 143.692C308.764 140.929 307.632 138.566 306.095 136.629L304.528 137.871C305.867 139.559 306.891 141.665 307.581 144.214L309.512 143.692ZM306.095 136.629C304.557 134.689 302.659 133.227 300.412 132.254L299.618 134.09C301.558 134.929 303.192 136.186 304.528 137.871L306.095 136.629ZM300.424 132.259C298.18 131.254 295.63 130.766 292.796 130.766V132.766C295.4 132.766 297.663 133.214 299.606 134.085L300.424 132.259ZM292.796 130.766H277.515V132.766H292.796V130.766ZM278.515 131.766V120.75H276.515V131.766H278.515ZM277.515 121.75H292.796V119.75H277.515V121.75ZM292.796 121.75C297.243 121.75 301.283 122.511 304.93 124.018L305.694 122.17C301.778 120.552 297.475 119.75 292.796 119.75V121.75ZM304.939 124.022C308.625 125.502 311.803 127.627 314.484 130.398L315.921 129.008C313.04 126.029 309.624 123.748 305.685 122.166L304.939 124.022ZM314.484 130.398C317.163 133.168 319.233 136.486 320.688 140.367L322.561 139.665C321.016 135.545 318.804 131.988 315.921 129.008L314.484 130.398ZM320.691 140.376C322.172 144.214 322.921 148.512 322.921 153.281H324.921C324.921 148.301 324.139 143.755 322.557 139.656L320.691 140.376ZM322.921 153.281V156.516H324.921V153.281H322.921ZM322.921 156.516C322.921 161.253 322.173 165.552 320.69 169.424L322.558 170.139C324.139 166.011 324.921 161.466 324.921 156.516H322.921ZM320.688 169.43C319.233 173.311 317.163 176.629 314.484 179.398L315.921 180.789C318.804 177.809 321.016 174.252 322.561 170.132L320.688 169.43ZM314.484 179.399C311.835 182.137 308.657 184.264 304.935 185.777L305.688 187.63C309.655 186.017 313.07 183.738 315.921 180.789L314.484 179.399ZM304.939 185.775C301.259 187.253 297.169 188 292.656 188V190C297.392 190 301.74 189.216 305.685 187.631L304.939 185.775ZM284.765 120.75V189H286.765V120.75H284.765ZM285.765 188H271.702V190H285.765V188ZM272.702 189V120.75H270.702V189H272.702ZM271.702 121.75H285.765V119.75H271.702V121.75ZM346.711 137.812H347.711V136.812H346.711V137.812ZM346.711 189V190H347.711V189H346.711ZM336.2 189H335.2V190H336.2V189ZM336.2 137.812V136.812H335.2V137.812H336.2ZM345.711 137.812V189H347.711V137.812H345.711ZM346.711 188H336.2V190H346.711V188ZM337.2 189V137.812H335.2V189H337.2ZM336.2 138.812H346.711V136.812H336.2V138.812ZM408.274 181.031L409.02 181.697L409.024 181.693L408.274 181.031ZM399.086 187.641L398.691 186.722L398.688 186.723L399.086 187.641ZM375.555 187.641L375.157 188.558L375.16 188.559L375.555 187.641ZM366.367 181.031L365.621 181.697L365.625 181.701L366.367 181.031ZM360.321 170.484L359.374 170.807L359.376 170.813L360.321 170.484ZM360.321 139.312L361.266 139.637L361.267 139.635L360.321 139.312ZM366.274 128.766L365.528 128.1L365.524 128.104L366.274 128.766ZM375.461 122.109L375.066 121.191L375.063 121.192L375.461 122.109ZM398.992 122.109L398.595 123.027L398.598 123.028L398.992 122.109ZM408.18 128.766L407.43 129.427L407.434 129.431L408.18 128.766ZM414.18 139.312L413.233 139.635L413.236 139.644L414.18 139.312ZM393.555 132.469L393.09 133.354L393.102 133.36L393.555 132.469ZM380.899 132.469L381.358 133.357L381.364 133.354L380.899 132.469ZM376.258 136.688L375.432 136.123L375.426 136.133L376.258 136.688ZM373.399 166.078L372.425 166.308L372.426 166.31L373.399 166.078ZM376.305 173.062L375.475 173.62L375.479 173.627L376.305 173.062ZM398.289 173.062L399.121 173.617L399.126 173.611L398.289 173.062ZM401.149 166.078L402.121 166.31L402.122 166.308L401.149 166.078ZM415.336 153.281V156.516H417.336V153.281H415.336ZM415.336 156.516C415.336 161.614 414.645 166.158 413.28 170.162L415.173 170.807C416.621 166.561 417.336 161.793 417.336 156.516H415.336ZM413.28 170.162C411.911 174.177 409.989 177.574 407.524 180.37L409.024 181.693C411.684 178.676 413.73 175.041 415.173 170.807L413.28 170.162ZM407.527 180.366C405.063 183.131 402.12 185.248 398.691 186.722L399.481 188.559C403.177 186.971 406.36 184.682 409.02 181.697L407.527 180.366ZM398.688 186.723C395.297 188.194 391.513 188.938 387.321 188.938V190.938C391.753 190.938 395.813 190.15 399.484 188.558L398.688 186.723ZM387.321 188.938C383.161 188.938 379.375 188.194 375.95 186.722L375.16 188.559C378.86 190.15 382.918 190.938 387.321 190.938V188.938ZM375.953 186.723C372.554 185.249 369.608 183.131 367.11 180.361L365.625 181.701C368.314 184.682 371.494 186.97 375.157 188.558L375.953 186.723ZM367.114 180.365C364.617 177.569 362.664 174.171 361.265 170.155L359.376 170.813C360.852 175.048 362.93 178.681 365.621 181.697L367.114 180.365ZM361.267 170.162C359.902 166.158 359.211 161.614 359.211 156.516H357.211C357.211 161.793 357.926 166.561 359.374 170.807L361.267 170.162ZM359.211 156.516V153.281H357.211V156.516H359.211ZM359.211 153.281C359.211 148.151 359.903 143.608 361.266 139.637L359.375 138.988C357.926 143.205 357.211 147.974 357.211 153.281H359.211ZM361.267 139.635C362.636 135.619 364.559 132.223 367.024 129.427L365.524 128.104C362.864 131.121 360.818 134.756 359.374 138.99L361.267 139.635ZM367.02 129.431C369.518 126.632 372.462 124.5 375.859 123.027L375.063 121.192C371.398 122.782 368.217 125.087 365.528 128.1L367.02 129.431ZM375.856 123.028C379.281 121.556 383.067 120.812 387.227 120.812V118.812C382.824 118.812 378.766 119.6 375.066 121.191L375.856 123.028ZM387.227 120.812C391.419 120.812 395.203 121.556 398.595 123.027L399.39 121.192C395.719 119.6 391.66 118.812 387.227 118.812V120.812ZM398.598 123.028C402.024 124.501 404.965 126.632 407.43 129.427L408.93 128.104C406.27 125.087 403.086 122.78 399.387 121.191L398.598 123.028ZM407.434 129.431C409.929 132.227 411.865 135.622 413.233 139.635L415.127 138.99C413.682 134.753 411.619 131.117 408.926 128.1L407.434 129.431ZM413.236 139.644C414.63 143.612 415.336 148.153 415.336 153.281H417.336C417.336 147.972 416.605 143.201 415.124 138.981L413.236 139.644ZM403.133 156.516V153.188H401.133V156.516H403.133ZM403.133 153.188C403.133 149.505 402.8 146.237 402.121 143.393L400.176 143.857C400.81 146.513 401.133 149.62 401.133 153.188H403.133ZM402.121 143.393C401.444 140.552 400.433 138.12 399.068 136.123L397.417 137.252C398.615 139.005 399.541 141.198 400.176 143.857L402.121 143.393ZM399.068 136.123C397.702 134.124 396.016 132.598 394.008 131.577L393.102 133.36C394.782 134.214 396.221 135.501 397.417 137.252L399.068 136.123ZM394.02 131.584C392.014 130.529 389.741 130.016 387.227 130.016V132.016C389.463 132.016 391.409 132.471 393.09 133.354L394.02 131.584ZM387.227 130.016C384.713 130.016 382.44 130.529 380.434 131.584L381.364 133.354C383.045 132.471 384.991 132.016 387.227 132.016V130.016ZM380.439 131.581C378.464 132.602 376.796 134.127 375.432 136.123L377.084 137.252C378.282 135.498 379.709 134.21 381.358 133.357L380.439 131.581ZM375.426 136.133C374.096 138.128 373.103 140.556 372.426 143.393L374.371 143.857C375.007 141.194 375.92 138.997 377.09 137.242L375.426 136.133ZM372.426 143.393C371.747 146.237 371.414 149.505 371.414 153.188H373.414C373.414 149.62 373.738 146.513 374.371 143.857L372.426 143.393ZM371.414 153.188V156.516H373.414V153.188H371.414ZM371.414 156.516C371.414 160.168 371.748 163.435 372.425 166.308L374.372 165.848C373.737 163.159 373.414 160.051 373.414 156.516H371.414ZM372.426 166.31C373.104 169.151 374.114 171.595 375.475 173.62L377.135 172.505C375.934 170.718 375.006 168.506 374.371 165.846L372.426 166.31ZM375.479 173.627C376.844 175.624 378.526 177.162 380.527 178.213L381.458 176.443C379.771 175.557 378.328 174.251 377.131 172.498L375.479 173.627ZM380.527 178.213C382.534 179.267 384.807 179.781 387.321 179.781V177.781C385.085 177.781 383.139 177.326 381.458 176.443L380.527 178.213ZM387.321 179.781C389.835 179.781 392.108 179.267 394.114 178.213L393.184 176.443C391.502 177.326 389.557 177.781 387.321 177.781V179.781ZM394.114 178.213C396.118 177.161 397.786 175.62 399.121 173.617L397.457 172.508C396.292 174.255 394.867 175.558 393.184 176.443L394.114 178.213ZM399.126 173.611C400.452 171.588 401.445 169.147 402.121 166.31L400.176 165.846C399.54 168.509 398.627 170.725 397.453 172.514L399.126 173.611ZM402.122 166.308C402.8 163.435 403.133 160.168 403.133 156.516H401.133C401.133 160.051 400.81 163.159 400.175 165.848L402.122 166.308ZM464.31 167.859L463.364 168.184L463.371 168.203L463.377 168.22L464.31 167.859ZM462.341 165.141L461.684 165.895L461.691 165.901L461.699 165.907L462.341 165.141ZM451.466 160.125L451.159 161.077L451.166 161.079L451.466 160.125ZM442.654 156.75L442.24 157.66L442.244 157.662L442.654 156.75ZM435.341 152.391L434.714 153.169L434.72 153.174L434.727 153.179L435.341 152.391ZM430.372 146.531L429.491 147.003L429.496 147.013L430.372 146.531ZM430.466 131.062L431.346 131.538L431.349 131.533L430.466 131.062ZM435.716 125.062L436.309 125.868L436.316 125.862L435.716 125.062ZM443.685 121.172L443.404 120.212L443.401 120.213L443.685 121.172ZM475.747 129.984L474.91 130.531L474.914 130.537L475.747 129.984ZM478.888 140.812V141.812H479.888V140.812H478.888ZM464.919 140.812H463.919V141.812H464.919V140.812ZM463.654 135.562L462.77 136.031L462.776 136.042L462.782 136.053L463.654 135.562ZM459.904 131.953L459.437 132.837L459.443 132.841L459.904 131.953ZM447.529 131.766L447.933 132.68L447.941 132.677L447.948 132.674L447.529 131.766ZM443.872 134.719L444.705 135.273L444.711 135.264L443.872 134.719ZM443.497 141.984L442.64 142.499L442.646 142.509L442.653 142.519L443.497 141.984ZM456.247 149.016L455.952 149.971L455.958 149.973L456.247 149.016ZM466.044 152.812L465.597 153.707L465.601 153.709L466.044 152.812ZM444.201 188.625L443.934 189.589L443.943 189.591L444.201 188.625ZM435.247 184.547L434.684 185.373L434.688 185.376L435.247 184.547ZM426.482 167.625V166.625H425.482V167.625H426.482ZM440.591 167.625H441.591V166.625H440.591V167.625ZM444.341 176.578L443.735 177.373L443.745 177.381L444.341 176.578ZM448.654 178.547L448.416 179.518L448.42 179.519L448.654 178.547ZM460.185 178.125L459.789 177.207L459.782 177.21L460.185 178.125ZM463.701 175.266L462.859 174.726L462.854 174.734L462.849 174.742L463.701 175.266ZM465.872 171.141C465.872 169.819 465.669 168.6 465.243 167.498L463.377 168.22C463.701 169.056 463.872 170.024 463.872 171.141H465.872ZM465.256 167.534C464.842 166.332 464.064 165.281 462.984 164.374L461.699 165.907C462.556 166.626 463.09 167.387 463.364 168.184L465.256 167.534ZM462.998 164.387C461.932 163.458 460.481 162.584 458.684 161.749L457.842 163.563C459.545 164.354 460.813 165.135 461.684 165.895L462.998 164.387ZM458.684 161.749C456.881 160.912 454.57 160.053 451.766 159.171L451.166 161.079C453.925 161.947 456.146 162.776 457.842 163.563L458.684 161.749ZM451.774 159.173C448.713 158.184 445.809 157.072 443.064 155.838L442.244 157.662C445.061 158.928 448.032 160.066 451.159 161.077L451.774 159.173ZM443.068 155.84C440.381 154.618 438.012 153.204 435.956 151.602L434.727 153.179C436.92 154.889 439.427 156.382 442.24 157.66L443.068 155.84ZM435.969 151.612C433.97 150.001 432.401 148.147 431.249 146.05L429.496 147.013C430.781 149.353 432.525 151.405 434.714 153.169L435.969 151.612ZM431.254 146.059C430.156 144.008 429.591 141.597 429.591 138.797H427.591C427.591 141.871 428.214 144.617 429.491 147.003L431.254 146.059ZM429.591 138.797C429.591 136.105 430.181 133.693 431.346 131.538L429.587 130.587C428.251 133.057 427.591 135.801 427.591 138.797H429.591ZM431.349 131.533C432.525 129.328 434.173 127.44 436.309 125.868L435.123 124.257C432.76 125.997 430.908 128.11 429.584 130.592L431.349 131.533ZM436.316 125.862C438.459 124.255 441.005 123.008 443.969 122.131L443.401 120.213C440.24 121.148 437.473 122.495 435.116 124.263L436.316 125.862ZM443.966 122.132C446.957 121.256 450.251 120.812 453.857 120.812V118.812C450.088 118.812 446.601 119.276 443.404 120.212L443.966 122.132ZM453.857 120.812C458.768 120.812 463.005 121.697 466.594 123.432L467.464 121.631C463.553 119.741 459.008 118.812 453.857 118.812V120.812ZM466.594 123.432C470.198 125.174 472.957 127.543 474.91 130.531L476.585 129.437C474.413 126.113 471.36 123.514 467.464 121.631L466.594 123.432ZM474.914 130.537C476.891 133.518 477.888 136.932 477.888 140.812H479.888C479.888 136.568 478.791 132.764 476.581 129.432L474.914 130.537ZM478.888 139.812H464.919V141.812H478.888V139.812ZM465.919 140.812C465.919 138.669 465.466 136.745 464.525 135.072L462.782 136.053C463.529 137.38 463.919 138.956 463.919 140.812H465.919ZM464.537 135.094C463.62 133.366 462.214 132.024 460.364 131.065L459.443 132.841C460.969 133.632 462.062 134.697 462.77 136.031L464.537 135.094ZM460.371 131.069C458.529 130.096 456.262 129.641 453.622 129.641V131.641C456.046 131.641 457.966 132.06 459.437 132.837L460.371 131.069ZM453.622 129.641C451.09 129.641 448.905 130.029 447.11 130.858L447.948 132.674C449.403 132.002 451.28 131.641 453.622 131.641V129.641ZM447.124 130.851C445.356 131.633 443.971 132.732 443.034 134.174L444.711 135.264C445.399 134.205 446.451 133.336 447.933 132.68L447.124 130.851ZM443.04 134.164C442.113 135.555 441.654 137.125 441.654 138.844H443.654C443.654 137.5 444.007 136.32 444.705 135.273L443.04 134.164ZM441.654 138.844C441.654 140.17 441.979 141.397 442.64 142.499L444.355 141.47C443.891 140.697 443.654 139.83 443.654 138.844H441.654ZM442.653 142.519C443.333 143.594 444.312 144.559 445.548 145.428L446.697 143.791C445.621 143.035 444.849 142.25 444.342 141.449L442.653 142.519ZM445.548 145.428C446.775 146.29 448.262 147.088 449.996 147.826L450.78 145.986C449.139 145.287 447.782 144.554 446.697 143.791L445.548 145.428ZM449.996 147.826C451.722 148.561 453.708 149.276 455.952 149.971L456.543 148.06C454.349 147.38 452.429 146.689 450.78 145.986L449.996 147.826ZM455.958 149.973C459.635 151.085 462.846 152.331 465.597 153.707L466.492 151.918C463.618 150.481 460.298 149.196 456.537 148.058L455.958 149.973ZM465.601 153.709C468.378 155.082 470.67 156.61 472.493 158.284L473.846 156.81C471.856 154.984 469.398 153.355 466.488 151.916L465.601 153.709ZM472.493 158.284C474.304 159.946 475.656 161.818 476.565 163.9L478.398 163.1C477.37 160.745 475.847 158.648 473.846 156.81L472.493 158.284ZM476.565 163.9C477.471 165.974 477.935 168.35 477.935 171.047H479.935C479.935 168.119 479.43 165.464 478.398 163.1L476.565 163.9ZM477.935 171.047C477.935 173.883 477.383 176.385 476.304 178.573L478.097 179.458C479.33 176.959 479.935 174.148 479.935 171.047H477.935ZM476.304 178.573C475.221 180.769 473.654 182.631 471.589 184.166L472.781 185.771C475.091 184.056 476.868 181.95 478.097 179.458L476.304 178.573ZM471.589 184.166C469.514 185.707 467.02 186.893 464.089 187.708L464.625 189.635C467.757 188.764 470.481 187.48 472.781 185.771L471.589 184.166ZM464.089 187.708C461.16 188.524 457.861 188.938 454.185 188.938V190.938C458.009 190.938 461.492 190.507 464.625 189.635L464.089 187.708ZM454.185 188.938C450.898 188.938 447.656 188.511 444.458 187.659L443.943 189.591C447.308 190.489 450.722 190.938 454.185 190.938V188.938ZM444.467 187.661C441.285 186.782 438.4 185.467 435.807 183.718L434.688 185.376C437.47 187.252 440.554 188.655 443.934 189.589L444.467 187.661ZM435.811 183.721C433.282 181.995 431.261 179.797 429.743 177.116L428.002 178.102C429.671 181.047 431.901 183.474 434.684 185.373L435.811 183.721ZM429.743 177.116C428.249 174.48 427.482 171.329 427.482 167.625H425.482C425.482 171.609 426.309 175.113 428.002 178.102L429.743 177.116ZM426.482 168.625H440.591V166.625H426.482V168.625ZM439.591 167.625C439.591 169.848 439.934 171.792 440.663 173.424L442.489 172.608C441.905 171.301 441.591 169.652 441.591 167.625H439.591ZM440.663 173.424C441.382 175.033 442.404 176.358 443.735 177.373L444.948 175.783C443.903 174.986 443.082 173.936 442.489 172.608L440.663 173.424ZM443.745 177.381C445.083 178.376 446.646 179.084 448.416 179.518L448.892 177.576C447.349 177.197 446.037 176.593 444.938 175.776L443.745 177.381ZM448.42 179.519C450.194 179.946 452.118 180.156 454.185 180.156V178.156C452.252 178.156 450.488 177.96 448.888 177.575L448.42 179.519ZM454.185 180.156C456.706 180.156 458.856 179.802 460.588 179.04L459.782 177.21C458.389 177.823 456.539 178.156 454.185 178.156V180.156ZM460.581 179.043C462.323 178.292 463.673 177.218 464.552 175.79L462.849 174.742C462.228 175.751 461.235 176.583 459.789 177.207L460.581 179.043ZM464.543 175.805C465.433 174.416 465.872 172.852 465.872 171.141H463.872C463.872 172.492 463.531 173.678 462.859 174.726L464.543 175.805Z" fill="black"/>
<path d="M329.817 107.135C324.925 113.867 326.403 123.195 333.135 128.087C339.868 132.978 349.256 131.418 354.087 124.769C358.979 118.036 357.501 108.708 350.768 103.817C344.097 98.8419 334.708 100.403 329.817 107.135Z" fill="#00B0FF"/>
</svg>
