<svg width="601" height="213" viewBox="0 0 601 213" fill="none" xmlns="http://www.w3.org/2000/svg">
<path d="M10.7812 20.75H19.5469L41.9062 76.3906L64.2188 20.75H73.0312L45.2812 89H38.4375L10.7812 20.75ZM7.92188 20.75H15.6562L16.9219 62.375V89H7.92188V20.75ZM68.1094 20.75H75.8438V89H66.8438V62.375L68.1094 20.75ZM148.054 81.6406V89H111.913V81.6406H148.054ZM113.741 20.75V89H104.694V20.75H113.741ZM143.272 50.0938V57.4531H111.913V50.0938H143.272ZM147.585 20.75V28.1562H111.913V20.75H147.585ZM198.373 20.75V89H189.467V20.75H198.373ZM220.311 20.75V28.1562H167.576V20.75H220.311ZM264.911 26.7969L242.318 89H233.083L259.099 20.75H265.052L264.911 26.7969ZM283.849 89L261.208 26.7969L261.068 20.75H267.021L293.13 89H283.849ZM282.677 63.7344V71.1406H244.333V63.7344H282.677ZM329.902 68.375L343.449 20.75H350.012L346.215 39.2656L331.637 89H325.121L329.902 68.375ZM315.887 20.75L326.668 67.4375L329.902 89H323.434L306.887 20.75H315.887ZM367.543 67.3906L378.09 20.75H387.137L370.637 89H364.168L367.543 67.3906ZM350.996 20.75L364.168 68.375L368.949 89H362.434L348.371 39.2656L344.527 20.75H350.996ZM433.331 26.7969L410.737 89H401.503L427.519 20.75H433.472L433.331 26.7969ZM452.269 89L429.628 26.7969L429.487 20.75H435.441L461.55 89H452.269ZM451.097 63.7344V71.1406H412.753V63.7344H451.097ZM501.557 78.6406L521.666 20.75H531.463L506.198 89H499.213L501.557 78.6406ZM482.76 20.75L502.682 78.6406L505.166 89H498.182L472.963 20.75H482.76ZM596.97 81.6406V89H560.829V81.6406H596.97ZM562.657 20.75V89H553.611V20.75H562.657ZM592.189 50.0938V57.4531H560.829V50.0938H592.189ZM596.501 20.75V28.1562H560.829V20.75H596.501Z" fill="black"/>
<path d="M10.7812 20.75V19.75H9.29705L9.85445 21.1256L10.7812 20.75ZM19.5469 20.75L20.4748 20.3771L20.2227 19.75H19.5469V20.75ZM41.9062 76.3906L40.9784 76.7635L41.9072 79.0749L42.8344 76.7628L41.9062 76.3906ZM64.2188 20.75V19.75H63.5424L63.2906 20.3778L64.2188 20.75ZM73.0312 20.75L73.9576 21.1266L74.5173 19.75H73.0312V20.75ZM45.2812 89V90H45.9542L46.2076 89.3766L45.2812 89ZM38.4375 89L37.5107 89.3756L37.7637 90H38.4375V89ZM7.92188 20.75V19.75H6.92188V20.75H7.92188ZM15.6562 20.75L16.6558 20.7196L16.6263 19.75H15.6562V20.75ZM16.9219 62.375H17.9219V62.3598L17.9214 62.3446L16.9219 62.375ZM16.9219 89V90H17.9219V89H16.9219ZM7.92188 89H6.92188V90H7.92188V89ZM68.1094 20.75V19.75H67.1393L67.1098 20.7196L68.1094 20.75ZM75.8438 20.75H76.8438V19.75H75.8438V20.75ZM75.8438 89V90H76.8438V89H75.8438ZM66.8438 89H65.8438V90H66.8438V89ZM66.8438 62.375L65.8442 62.3446L65.8438 62.3598V62.375H66.8438ZM10.7812 21.75H19.5469V19.75H10.7812V21.75ZM18.619 21.1229L40.9784 76.7635L42.8341 76.0178L20.4748 20.3771L18.619 21.1229ZM42.8344 76.7628L65.1469 21.1222L63.2906 20.3778L40.9781 76.0184L42.8344 76.7628ZM64.2188 21.75H73.0312V19.75H64.2188V21.75ZM72.1049 20.3734L44.3549 88.6234L46.2076 89.3766L73.9576 21.1266L72.1049 20.3734ZM45.2812 88H38.4375V90H45.2812V88ZM39.3643 88.6244L11.708 20.3744L9.85445 21.1256L37.5107 89.3756L39.3643 88.6244ZM7.92188 21.75H15.6562V19.75H7.92188V21.75ZM14.6567 20.7804L15.9223 62.4054L17.9214 62.3446L16.6558 20.7196L14.6567 20.7804ZM15.9219 62.375V89H17.9219V62.375H15.9219ZM16.9219 88H7.92188V90H16.9219V88ZM8.92188 89V20.75H6.92188V89H8.92188ZM68.1094 21.75H75.8438V19.75H68.1094V21.75ZM74.8438 20.75V89H76.8438V20.75H74.8438ZM75.8438 88H66.8438V90H75.8438V88ZM67.8438 89V62.375H65.8438V89H67.8438ZM67.8433 62.4054L69.1089 20.7804L67.1098 20.7196L65.8442 62.3446L67.8433 62.4054ZM148.054 81.6406H149.054V80.6406H148.054V81.6406ZM148.054 89V90H149.054V89H148.054ZM111.913 89H110.913V90H111.913V89ZM111.913 81.6406V80.6406H110.913V81.6406H111.913ZM113.741 20.75H114.741V19.75H113.741V20.75ZM113.741 89V90H114.741V89H113.741ZM104.694 89H103.694V90H104.694V89ZM104.694 20.75V19.75H103.694V20.75H104.694ZM143.272 50.0938H144.272V49.0938H143.272V50.0938ZM143.272 57.4531V58.4531H144.272V57.4531H143.272ZM111.913 57.4531H110.913V58.4531H111.913V57.4531ZM111.913 50.0938V49.0938H110.913V50.0938H111.913ZM147.585 20.75H148.585V19.75H147.585V20.75ZM147.585 28.1562V29.1562H148.585V28.1562H147.585ZM111.913 28.1562H110.913V29.1562H111.913V28.1562ZM111.913 20.75V19.75H110.913V20.75H111.913ZM147.054 81.6406V89H149.054V81.6406H147.054ZM148.054 88H111.913V90H148.054V88ZM112.913 89V81.6406H110.913V89H112.913ZM111.913 82.6406H148.054V80.6406H111.913V82.6406ZM112.741 20.75V89H114.741V20.75H112.741ZM113.741 88H104.694V90H113.741V88ZM105.694 89V20.75H103.694V89H105.694ZM104.694 21.75H113.741V19.75H104.694V21.75ZM142.272 50.0938V57.4531H144.272V50.0938H142.272ZM143.272 56.4531H111.913V58.4531H143.272V56.4531ZM112.913 57.4531V50.0938H110.913V57.4531H112.913ZM111.913 51.0938H143.272V49.0938H111.913V51.0938ZM146.585 20.75V28.1562H148.585V20.75H146.585ZM147.585 27.1562H111.913V29.1562H147.585V27.1562ZM112.913 28.1562V20.75H110.913V28.1562H112.913ZM111.913 21.75H147.585V19.75H111.913V21.75ZM198.373 20.75H199.373V19.75H198.373V20.75ZM198.373 89V90H199.373V89H198.373ZM189.467 89H188.467V90H189.467V89ZM189.467 20.75V19.75H188.467V20.75H189.467ZM220.311 20.75H221.311V19.75H220.311V20.75ZM220.311 28.1562V29.1562H221.311V28.1562H220.311ZM167.576 28.1562H166.576V29.1562H167.576V28.1562ZM167.576 20.75V19.75H166.576V20.75H167.576ZM197.373 20.75V89H199.373V20.75H197.373ZM198.373 88H189.467V90H198.373V88ZM190.467 89V20.75H188.467V89H190.467ZM189.467 21.75H198.373V19.75H189.467V21.75ZM219.311 20.75V28.1562H221.311V20.75H219.311ZM220.311 27.1562H167.576V29.1562H220.311V27.1562ZM168.576 28.1562V20.75H166.576V28.1562H168.576ZM167.576 21.75H220.311V19.75H167.576V21.75ZM264.911 26.7969L265.851 27.1383L265.907 26.9841L265.911 26.8201L264.911 26.7969ZM242.318 89V90H243.018L243.257 89.3414L242.318 89ZM233.083 89L232.149 88.6438L231.632 90H233.083V89ZM259.099 20.75V19.75H258.41L258.164 20.3938L259.099 20.75ZM265.052 20.75L266.052 20.7732L266.075 19.75H265.052V20.75ZM283.849 89L282.909 89.342L283.149 90H283.849V89ZM261.208 26.7969L260.208 26.8201L260.212 26.9844L260.268 27.1389L261.208 26.7969ZM261.068 20.75V19.75H260.044L260.068 20.7732L261.068 20.75ZM267.021 20.75L267.955 20.3927L267.709 19.75H267.021V20.75ZM293.13 89V90H294.583L294.064 88.6427L293.13 89ZM282.677 63.7344H283.677V62.7344H282.677V63.7344ZM282.677 71.1406V72.1406H283.677V71.1406H282.677ZM244.333 71.1406H243.333V72.1406H244.333V71.1406ZM244.333 63.7344V62.7344H243.333V63.7344H244.333ZM263.971 26.4555L241.378 88.6586L243.257 89.3414L265.851 27.1383L263.971 26.4555ZM242.318 88H233.083V90H242.318V88ZM234.018 89.3562L260.033 21.1062L258.164 20.3938L232.149 88.6438L234.018 89.3562ZM259.099 21.75H265.052V19.75H259.099V21.75ZM264.052 20.7268L263.912 26.7736L265.911 26.8201L266.052 20.7732L264.052 20.7268ZM284.788 88.658L262.148 26.4548L260.268 27.1389L282.909 89.342L284.788 88.658ZM262.208 26.7736L262.067 20.7268L260.068 20.7732L260.208 26.8201L262.208 26.7736ZM261.068 21.75H267.021V19.75H261.068V21.75ZM266.087 21.1073L292.196 89.3573L294.064 88.6427L267.955 20.3927L266.087 21.1073ZM293.13 88H283.849V90H293.13V88ZM281.677 63.7344V71.1406H283.677V63.7344H281.677ZM282.677 70.1406H244.333V72.1406H282.677V70.1406ZM245.333 71.1406V63.7344H243.333V71.1406H245.333ZM244.333 64.7344H282.677V62.7344H244.333V64.7344ZM329.902 68.375L328.941 68.1014L328.934 68.1251L328.928 68.1492L329.902 68.375ZM343.449 20.75V19.75H342.694L342.488 20.4764L343.449 20.75ZM350.012 20.75L350.991 20.9509L351.238 19.75H350.012V20.75ZM346.215 39.2656L347.175 39.5469L347.186 39.5071L347.195 39.4665L346.215 39.2656ZM331.637 89V90H332.386L332.596 89.2813L331.637 89ZM325.121 89L324.147 88.7742L323.863 90H325.121V89ZM315.887 20.75L316.861 20.525L316.682 19.75H315.887V20.75ZM326.668 67.4375L327.657 67.2892L327.651 67.2505L327.642 67.2125L326.668 67.4375ZM329.902 89V90H331.064L330.891 88.8517L329.902 89ZM323.434 89L322.462 89.2356L322.647 90H323.434V89ZM306.887 20.75V19.75H305.615L305.915 20.9856L306.887 20.75ZM367.543 67.3906L366.568 67.1701L366.56 67.203L366.555 67.2363L367.543 67.3906ZM378.09 20.75V19.75H377.291L377.115 20.5294L378.09 20.75ZM387.137 20.75L388.109 20.985L388.407 19.75H387.137V20.75ZM370.637 89V90H371.424L371.609 89.235L370.637 89ZM364.168 89L363.18 88.8457L363 90H364.168V89ZM350.996 20.75L351.96 20.4834L351.757 19.75H350.996V20.75ZM364.168 68.375L365.142 68.1492L365.138 68.1287L365.132 68.1084L364.168 68.375ZM368.949 89V90H370.208L369.924 88.7742L368.949 89ZM362.434 89L361.471 89.2721L361.677 90H362.434V89ZM348.371 39.2656L347.392 39.4689L347.399 39.5036L347.409 39.5377L348.371 39.2656ZM344.527 20.75V19.75H343.299L343.548 20.9533L344.527 20.75ZM330.864 68.6486L344.411 21.0236L342.488 20.4764L328.941 68.1014L330.864 68.6486ZM343.449 21.75H350.012V19.75H343.449V21.75ZM349.032 20.5491L345.235 39.0647L347.195 39.4665L350.991 20.9509L349.032 20.5491ZM345.255 38.9843L330.677 88.7187L332.596 89.2813L347.175 39.5469L345.255 38.9843ZM331.637 88H325.121V90H331.637V88ZM326.095 89.2258L330.877 68.6008L328.928 68.1492L324.147 88.7742L326.095 89.2258ZM314.913 20.975L325.694 67.6625L327.642 67.2125L316.861 20.525L314.913 20.975ZM325.679 67.5858L328.914 89.1483L330.891 88.8517L327.657 67.2892L325.679 67.5858ZM329.902 88H323.434V90H329.902V88ZM324.406 88.7644L307.859 20.5144L305.915 20.9856L322.462 89.2356L324.406 88.7644ZM306.887 21.75H315.887V19.75H306.887V21.75ZM368.518 67.6112L379.065 20.9706L377.115 20.5294L366.568 67.1701L368.518 67.6112ZM378.09 21.75H387.137V19.75H378.09V21.75ZM386.165 20.515L369.665 88.765L371.609 89.235L388.109 20.985L386.165 20.515ZM370.637 88H364.168V90H370.637V88ZM365.156 89.1543L368.531 67.5449L366.555 67.2363L363.18 88.8457L365.156 89.1543ZM350.032 21.0166L363.204 68.6416L365.132 68.1084L351.96 20.4834L350.032 21.0166ZM363.194 68.6008L367.975 89.2258L369.924 88.7742L365.142 68.1492L363.194 68.6008ZM368.949 88H362.434V90H368.949V88ZM363.396 88.7279L349.334 38.9935L347.409 39.5377L361.471 89.2721L363.396 88.7279ZM349.35 39.0624L345.507 20.5467L343.548 20.9533L347.392 39.4689L349.35 39.0624ZM344.527 21.75H350.996V19.75H344.527V21.75ZM433.331 26.7969L434.271 27.1383L434.327 26.9841L434.331 26.8201L433.331 26.7969ZM410.737 89V90H411.438L411.677 89.3414L410.737 89ZM401.503 89L400.569 88.6438L400.052 90H401.503V89ZM427.519 20.75V19.75H426.83L426.584 20.3938L427.519 20.75ZM433.472 20.75L434.472 20.7732L434.495 19.75H433.472V20.75ZM452.269 89L451.329 89.342L451.569 90H452.269V89ZM429.628 26.7969L428.628 26.8201L428.632 26.9844L428.688 27.1389L429.628 26.7969ZM429.487 20.75V19.75H428.464L428.488 20.7732L429.487 20.75ZM435.441 20.75L436.375 20.3927L436.129 19.75H435.441V20.75ZM461.55 89V90H463.003L462.484 88.6427L461.55 89ZM451.097 63.7344H452.097V62.7344H451.097V63.7344ZM451.097 71.1406V72.1406H452.097V71.1406H451.097ZM412.753 71.1406H411.753V72.1406H412.753V71.1406ZM412.753 63.7344V62.7344H411.753V63.7344H412.753ZM432.391 26.4555L409.798 88.6586L411.677 89.3414L434.271 27.1383L432.391 26.4555ZM410.737 88H401.503V90H410.737V88ZM402.438 89.3562L428.453 21.1062L426.584 20.3938L400.569 88.6438L402.438 89.3562ZM427.519 21.75H433.472V19.75H427.519V21.75ZM432.472 20.7268L432.332 26.7736L434.331 26.8201L434.472 20.7732L432.472 20.7268ZM453.208 88.658L430.568 26.4548L428.688 27.1389L451.329 89.342L453.208 88.658ZM430.628 26.7736L430.487 20.7268L428.488 20.7732L428.628 26.8201L430.628 26.7736ZM429.487 21.75H435.441V19.75H429.487V21.75ZM434.507 21.1073L460.616 89.3573L462.484 88.6427L436.375 20.3927L434.507 21.1073ZM461.55 88H452.269V90H461.55V88ZM450.097 63.7344V71.1406H452.097V63.7344H450.097ZM451.097 70.1406H412.753V72.1406H451.097V70.1406ZM413.753 71.1406V63.7344H411.753V71.1406H413.753ZM412.753 64.7344H451.097V62.7344H412.753V64.7344ZM501.557 78.6406L500.612 78.3125L500.594 78.3654L500.582 78.42L501.557 78.6406ZM521.666 20.75V19.75H520.955L520.722 20.4219L521.666 20.75ZM531.463 20.75L532.401 21.0972L532.9 19.75H531.463V20.75ZM506.198 89V90H506.894L507.135 89.3472L506.198 89ZM499.213 89L498.238 88.7793L497.962 90H499.213V89ZM482.76 20.75L483.706 20.4246L483.473 19.75H482.76V20.75ZM502.682 78.6406L503.654 78.4074L503.643 78.3607L503.627 78.3152L502.682 78.6406ZM505.166 89V90H506.434L506.139 88.7668L505.166 89ZM498.182 89L497.244 89.3466L497.485 90H498.182V89ZM472.963 20.75V19.75H471.528L472.025 21.0966L472.963 20.75ZM502.502 78.9688L522.611 21.0781L520.722 20.4219L500.612 78.3125L502.502 78.9688ZM521.666 21.75H531.463V19.75H521.666V21.75ZM530.525 20.4028L505.26 88.6528L507.135 89.3472L532.401 21.0972L530.525 20.4028ZM506.198 88H499.213V90H506.198V88ZM500.188 89.2207L502.532 78.8613L500.582 78.42L498.238 88.7793L500.188 89.2207ZM481.814 21.0754L501.736 78.966L503.627 78.3152L483.706 20.4246L481.814 21.0754ZM501.709 78.8738L504.194 89.2332L506.139 88.7668L503.654 78.4074L501.709 78.8738ZM505.166 88H498.182V90H505.166V88ZM499.12 88.6534L473.901 20.4034L472.025 21.0966L497.244 89.3466L499.12 88.6534ZM472.963 21.75H482.76V19.75H472.963V21.75ZM596.97 81.6406H597.97V80.6406H596.97V81.6406ZM596.97 89V90H597.97V89H596.97ZM560.829 89H559.829V90H560.829V89ZM560.829 81.6406V80.6406H559.829V81.6406H560.829ZM562.657 20.75H563.657V19.75H562.657V20.75ZM562.657 89V90H563.657V89H562.657ZM553.611 89H552.611V90H553.611V89ZM553.611 20.75V19.75H552.611V20.75H553.611ZM592.189 50.0938H593.189V49.0938H592.189V50.0938ZM592.189 57.4531V58.4531H593.189V57.4531H592.189ZM560.829 57.4531H559.829V58.4531H560.829V57.4531ZM560.829 50.0938V49.0938H559.829V50.0938H560.829ZM596.501 20.75H597.501V19.75H596.501V20.75ZM596.501 28.1562V29.1562H597.501V28.1562H596.501ZM560.829 28.1562H559.829V29.1562H560.829V28.1562ZM560.829 20.75V19.75H559.829V20.75H560.829ZM595.97 81.6406V89H597.97V81.6406H595.97ZM596.97 88H560.829V90H596.97V88ZM561.829 89V81.6406H559.829V89H561.829ZM560.829 82.6406H596.97V80.6406H560.829V82.6406ZM561.657 20.75V89H563.657V20.75H561.657ZM562.657 88H553.611V90H562.657V88ZM554.611 89V20.75H552.611V89H554.611ZM553.611 21.75H562.657V19.75H553.611V21.75ZM591.189 50.0938V57.4531H593.189V50.0938H591.189ZM592.189 56.4531H560.829V58.4531H592.189V56.4531ZM561.829 57.4531V50.0938H559.829V57.4531H561.829ZM560.829 51.0938H592.189V49.0938H560.829V51.0938ZM595.501 20.75V28.1562H597.501V20.75H595.501ZM596.501 27.1562H560.829V29.1562H596.501V27.1562ZM561.829 28.1562V20.75H559.829V28.1562H561.829ZM560.829 21.75H596.501V19.75H560.829V21.75Z" fill="black"/>
<path d="M129.297 171.75C129.297 170.156 129.047 168.75 128.547 167.531C128.078 166.281 127.234 165.156 126.016 164.156C124.828 163.156 123.172 162.203 121.047 161.297C118.953 160.391 116.297 159.469 113.078 158.531C109.703 157.531 106.656 156.422 103.938 155.203C101.219 153.953 98.8906 152.531 96.9531 150.938C95.0156 149.344 93.5312 147.516 92.5 145.453C91.4688 143.391 90.9531 141.031 90.9531 138.375C90.9531 135.719 91.5 133.266 92.5938 131.016C93.6875 128.766 95.25 126.812 97.2812 125.156C99.3438 123.469 101.797 122.156 104.641 121.219C107.484 120.281 110.656 119.812 114.156 119.812C119.281 119.812 123.625 120.797 127.188 122.766C130.781 124.703 133.516 127.25 135.391 130.406C137.266 133.531 138.203 136.875 138.203 140.438H129.203C129.203 137.875 128.656 135.609 127.562 133.641C126.469 131.641 124.812 130.078 122.594 128.953C120.375 127.797 117.562 127.219 114.156 127.219C110.938 127.219 108.281 127.703 106.188 128.672C104.094 129.641 102.531 130.953 101.5 132.609C100.5 134.266 100 136.156 100 138.281C100 139.719 100.297 141.031 100.891 142.219C101.516 143.375 102.469 144.453 103.75 145.453C105.062 146.453 106.719 147.375 108.719 148.219C110.75 149.062 113.172 149.875 115.984 150.656C119.859 151.75 123.203 152.969 126.016 154.312C128.828 155.656 131.141 157.172 132.953 158.859C134.797 160.516 136.156 162.406 137.031 164.531C137.938 166.625 138.391 169 138.391 171.656C138.391 174.438 137.828 176.953 136.703 179.203C135.578 181.453 133.969 183.375 131.875 184.969C129.781 186.562 127.266 187.797 124.328 188.672C121.422 189.516 118.172 189.938 114.578 189.938C111.422 189.938 108.312 189.5 105.25 188.625C102.219 187.75 99.4531 186.438 96.9531 184.688C94.4844 182.938 92.5 180.781 91 178.219C89.5312 175.625 88.7969 172.625 88.7969 169.219H97.7969C97.7969 171.562 98.25 173.578 99.1562 175.266C100.062 176.922 101.297 178.297 102.859 179.391C104.453 180.484 106.25 181.297 108.25 181.828C110.281 182.328 112.391 182.578 114.578 182.578C117.734 182.578 120.406 182.141 122.594 181.266C124.781 180.391 126.438 179.141 127.562 177.516C128.719 175.891 129.297 173.969 129.297 171.75ZM175.141 120.75V189H166.234V120.75H175.141ZM197.078 120.75V128.156H144.344V120.75H197.078ZM246.25 120.75H255.25V166.922C255.25 172.047 254.109 176.312 251.828 179.719C249.547 183.125 246.516 185.688 242.734 187.406C238.984 189.094 234.906 189.938 230.5 189.938C225.875 189.938 221.688 189.094 217.938 187.406C214.219 185.688 211.266 183.125 209.078 179.719C206.922 176.312 205.844 172.047 205.844 166.922V120.75H214.797V166.922C214.797 170.484 215.453 173.422 216.766 175.734C218.078 178.047 219.906 179.766 222.25 180.891C224.625 182.016 227.375 182.578 230.5 182.578C233.656 182.578 236.406 182.016 238.75 180.891C241.125 179.766 242.969 178.047 244.281 175.734C245.594 173.422 246.25 170.484 246.25 166.922V120.75ZM287.922 189H273.672L273.766 181.641H287.922C292.797 181.641 296.859 180.625 300.109 178.594C303.359 176.531 305.797 173.656 307.422 169.969C309.078 166.25 309.906 161.906 309.906 156.938V152.766C309.906 148.859 309.438 145.391 308.5 142.359C307.562 139.297 306.188 136.719 304.375 134.625C302.562 132.5 300.344 130.891 297.719 129.797C295.125 128.703 292.141 128.156 288.766 128.156H273.391V120.75H288.766C293.234 120.75 297.312 121.5 301 123C304.688 124.469 307.859 126.609 310.516 129.422C313.203 132.203 315.266 135.578 316.703 139.547C318.141 143.484 318.859 147.922 318.859 152.859V156.938C318.859 161.875 318.141 166.328 316.703 170.297C315.266 174.234 313.188 177.594 310.469 180.375C307.781 183.156 304.531 185.297 300.719 186.797C296.938 188.266 292.672 189 287.922 189ZM278.5 120.75V189H269.453V120.75H278.5ZM336.281 143.5V189H330.25V143.5H336.281ZM402.438 152.719V157.031C402.438 162.156 401.797 166.75 400.516 170.812C399.234 174.875 397.391 178.328 394.984 181.172C392.578 184.016 389.688 186.188 386.312 187.688C382.969 189.188 379.219 189.938 375.062 189.938C371.031 189.938 367.328 189.188 363.953 187.688C360.609 186.188 357.703 184.016 355.234 181.172C352.797 178.328 350.906 174.875 349.562 170.812C348.219 166.75 347.547 162.156 347.547 157.031V152.719C347.547 147.594 348.203 143.016 349.516 138.984C350.859 134.922 352.75 131.469 355.188 128.625C357.625 125.75 360.516 123.562 363.859 122.062C367.234 120.562 370.938 119.812 374.969 119.812C379.125 119.812 382.875 120.562 386.219 122.062C389.594 123.562 392.484 125.75 394.891 128.625C397.328 131.469 399.188 134.922 400.469 138.984C401.781 143.016 402.438 147.594 402.438 152.719ZM393.484 157.031V152.625C393.484 148.562 393.062 144.969 392.219 141.844C391.406 138.719 390.203 136.094 388.609 133.969C387.016 131.844 385.062 130.234 382.75 129.141C380.469 128.047 377.875 127.5 374.969 127.5C372.156 127.5 369.609 128.047 367.328 129.141C365.078 130.234 363.141 131.844 361.516 133.969C359.922 136.094 358.688 138.719 357.812 141.844C356.938 144.969 356.5 148.562 356.5 152.625V157.031C356.5 161.125 356.938 164.75 357.812 167.906C358.688 171.031 359.938 173.672 361.562 175.828C363.219 177.953 365.172 179.562 367.422 180.656C369.703 181.75 372.25 182.297 375.062 182.297C378 182.297 380.609 181.75 382.891 180.656C385.172 179.562 387.094 177.953 388.656 175.828C390.25 173.672 391.453 171.031 392.266 167.906C393.078 164.75 393.484 161.125 393.484 157.031ZM452.359 171.75C452.359 170.156 452.109 168.75 451.609 167.531C451.141 166.281 450.297 165.156 449.078 164.156C447.891 163.156 446.234 162.203 444.109 161.297C442.016 160.391 439.359 159.469 436.141 158.531C432.766 157.531 429.719 156.422 427 155.203C424.281 153.953 421.953 152.531 420.016 150.938C418.078 149.344 416.594 147.516 415.562 145.453C414.531 143.391 414.016 141.031 414.016 138.375C414.016 135.719 414.562 133.266 415.656 131.016C416.75 128.766 418.312 126.812 420.344 125.156C422.406 123.469 424.859 122.156 427.703 121.219C430.547 120.281 433.719 119.812 437.219 119.812C442.344 119.812 446.688 120.797 450.25 122.766C453.844 124.703 456.578 127.25 458.453 130.406C460.328 133.531 461.266 136.875 461.266 140.438H452.266C452.266 137.875 451.719 135.609 450.625 133.641C449.531 131.641 447.875 130.078 445.656 128.953C443.438 127.797 440.625 127.219 437.219 127.219C434 127.219 431.344 127.703 429.25 128.672C427.156 129.641 425.594 130.953 424.562 132.609C423.562 134.266 423.062 136.156 423.062 138.281C423.062 139.719 423.359 141.031 423.953 142.219C424.578 143.375 425.531 144.453 426.812 145.453C428.125 146.453 429.781 147.375 431.781 148.219C433.812 149.062 436.234 149.875 439.047 150.656C442.922 151.75 446.266 152.969 449.078 154.312C451.891 155.656 454.203 157.172 456.016 158.859C457.859 160.516 459.219 162.406 460.094 164.531C461 166.625 461.453 169 461.453 171.656C461.453 174.438 460.891 176.953 459.766 179.203C458.641 181.453 457.031 183.375 454.938 184.969C452.844 186.562 450.328 187.797 447.391 188.672C444.484 189.516 441.234 189.938 437.641 189.938C434.484 189.938 431.375 189.5 428.312 188.625C425.281 187.75 422.516 186.438 420.016 184.688C417.547 182.938 415.562 180.781 414.062 178.219C412.594 175.625 411.859 172.625 411.859 169.219H420.859C420.859 171.562 421.312 173.578 422.219 175.266C423.125 176.922 424.359 178.297 425.922 179.391C427.516 180.484 429.312 181.297 431.312 181.828C433.344 182.328 435.453 182.578 437.641 182.578C440.797 182.578 443.469 182.141 445.656 181.266C447.844 180.391 449.5 179.141 450.625 177.516C451.781 175.891 452.359 173.969 452.359 171.75Z" fill="black"/>
<path d="M128.547 167.531L127.611 167.882L127.616 167.897L127.622 167.911L128.547 167.531ZM126.016 164.156L125.371 164.921L125.381 164.929L126.016 164.156ZM121.047 161.297L120.65 162.215L120.655 162.217L121.047 161.297ZM113.078 158.531L112.794 159.49L112.798 159.491L113.078 158.531ZM103.938 155.203L103.52 156.112L103.528 156.116L103.938 155.203ZM97.2812 125.156L97.9132 125.931L97.9145 125.93L97.2812 125.156ZM127.188 122.766L126.704 123.641L126.713 123.646L127.188 122.766ZM135.391 130.406L134.531 130.917L134.533 130.921L135.391 130.406ZM138.203 140.438V141.438H139.203V140.438H138.203ZM129.203 140.438H128.203V141.438H129.203V140.438ZM127.562 133.641L126.685 134.12L126.688 134.126L127.562 133.641ZM122.594 128.953L122.132 129.84L122.142 129.845L122.594 128.953ZM101.5 132.609L100.651 132.081L100.644 132.093L101.5 132.609ZM100.891 142.219L99.9962 142.666L100.003 142.68L100.011 142.694L100.891 142.219ZM103.75 145.453L103.135 146.241L103.144 146.249L103.75 145.453ZM108.719 148.219L108.33 149.14L108.335 149.142L108.719 148.219ZM115.984 150.656L116.256 149.694L116.252 149.693L115.984 150.656ZM132.953 158.859L132.272 159.591L132.278 159.597L132.285 159.603L132.953 158.859ZM137.031 164.531L136.107 164.912L136.11 164.92L136.114 164.928L137.031 164.531ZM124.328 188.672L124.607 189.632L124.614 189.63L124.328 188.672ZM105.25 188.625L104.973 189.586L104.975 189.587L105.25 188.625ZM96.9531 184.688L96.3748 185.503L96.3797 185.507L96.9531 184.688ZM91 178.219L90.1298 178.711L90.1334 178.718L90.137 178.724L91 178.219ZM88.7969 169.219V168.219H87.7969V169.219H88.7969ZM97.7969 169.219H98.7969V168.219H97.7969V169.219ZM99.1562 175.266L98.2752 175.739L98.279 175.746L99.1562 175.266ZM102.859 179.391L102.286 180.21L102.294 180.215L102.859 179.391ZM108.25 181.828L107.993 182.795L108.002 182.797L108.011 182.799L108.25 181.828ZM127.562 177.516L126.748 176.936L126.74 176.946L127.562 177.516ZM130.297 171.75C130.297 170.053 130.031 168.513 129.472 167.152L127.622 167.911C128.063 168.987 128.297 170.26 128.297 171.75H130.297ZM129.483 167.18C128.942 165.738 127.98 164.474 126.65 163.383L125.381 164.929C126.489 165.838 127.214 166.825 127.611 167.882L129.483 167.18ZM126.66 163.391C125.369 162.305 123.615 161.305 121.439 160.377L120.655 162.217C122.728 163.101 124.287 164.008 125.371 164.921L126.66 163.391ZM121.444 160.379C119.299 159.451 116.6 158.515 113.358 157.571L112.798 159.491C115.994 160.422 118.607 161.331 120.65 162.215L121.444 160.379ZM113.362 157.572C110.022 156.583 107.018 155.488 104.347 154.291L103.528 156.116C106.294 157.355 109.384 158.48 112.794 159.49L113.362 157.572ZM104.355 154.295C101.7 153.074 99.4482 151.695 97.5884 150.165L96.3179 151.71C98.333 153.367 100.737 154.832 103.52 156.112L104.355 154.295ZM97.5884 150.165C95.7495 148.653 94.3577 146.932 93.3944 145.006L91.6056 145.9C92.7048 148.099 94.2818 150.035 96.3179 151.71L97.5884 150.165ZM93.3944 145.006C92.4425 143.102 91.9531 140.9 91.9531 138.375H89.9531C89.9531 141.163 90.495 143.679 91.6056 145.9L93.3944 145.006ZM91.9531 138.375C91.9531 135.861 92.4697 133.558 93.4931 131.453L91.6944 130.578C90.5303 132.973 89.9531 135.577 89.9531 138.375H91.9531ZM93.4931 131.453C94.5203 129.34 95.9891 127.5 97.9132 125.931L96.6493 124.381C94.5109 126.125 92.8547 128.192 91.6944 130.578L93.4931 131.453ZM97.9145 125.93C99.871 124.329 102.212 123.072 104.954 122.168L104.328 120.269C101.382 121.24 98.8165 122.608 96.648 124.382L97.9145 125.93ZM104.954 122.168C107.681 121.269 110.745 120.812 114.156 120.812V118.812C110.567 118.812 107.288 119.293 104.328 120.269L104.954 122.168ZM114.156 120.812C119.155 120.812 123.323 121.773 126.704 123.641L127.671 121.89C123.927 119.821 119.407 118.812 114.156 118.812V120.812ZM126.713 123.646C130.166 125.507 132.759 127.934 134.531 130.917L136.25 129.896C134.273 126.566 131.397 123.899 127.662 121.885L126.713 123.646ZM134.533 130.921C136.317 133.894 137.203 137.061 137.203 140.438H139.203C139.203 136.689 138.214 133.168 136.248 129.892L134.533 130.921ZM138.203 139.438H129.203V141.438H138.203V139.438ZM130.203 140.438C130.203 137.729 129.624 135.292 128.437 133.155L126.688 134.126C127.689 135.927 128.203 138.021 128.203 140.438H130.203ZM128.44 133.161C127.24 130.967 125.428 129.269 123.046 128.061L122.142 129.845C124.197 130.887 125.697 132.314 126.685 134.12L128.44 133.161ZM123.056 128.066C120.652 126.814 117.668 126.219 114.156 126.219V128.219C117.457 128.219 120.098 128.78 122.132 129.84L123.056 128.066ZM114.156 126.219C110.846 126.219 108.034 126.716 105.768 127.764L106.607 129.579C108.528 128.691 111.029 128.219 114.156 128.219V126.219ZM105.768 127.764C103.53 128.8 101.803 130.231 100.651 132.081L102.349 133.138C103.26 131.675 104.658 130.482 106.607 129.579L105.768 127.764ZM100.644 132.093C99.5407 133.92 99 135.993 99 138.281H101C101 136.32 101.459 134.611 102.356 133.126L100.644 132.093ZM99 138.281C99 139.861 99.3274 141.328 99.9962 142.666L101.785 141.772C101.266 140.734 101 139.577 101 138.281H99ZM100.011 142.694C100.715 143.997 101.77 145.176 103.135 146.241L104.365 144.665C103.168 143.73 102.316 142.753 101.77 141.743L100.011 142.694ZM103.144 146.249C104.541 147.313 106.275 148.273 108.33 149.14L109.107 147.297C107.162 146.477 105.584 145.594 104.356 144.658L103.144 146.249ZM108.335 149.142C110.414 150.006 112.877 150.831 115.717 151.62L116.252 149.693C113.467 148.919 111.086 148.119 109.102 147.295L108.335 149.142ZM115.713 151.619C119.548 152.701 122.836 153.901 125.585 155.215L126.447 153.41C123.571 152.036 120.171 150.799 116.256 149.694L115.713 151.619ZM125.585 155.215C128.328 156.526 130.55 157.988 132.272 159.591L133.635 158.127C131.731 156.356 129.328 154.787 126.447 153.41L125.585 155.215ZM132.285 159.603C134.026 161.167 135.293 162.936 136.107 164.912L137.956 164.151C137.019 161.876 135.568 159.864 133.621 158.115L132.285 159.603ZM136.114 164.928C136.957 166.878 137.391 169.114 137.391 171.656H139.391C139.391 168.886 138.918 166.372 137.949 164.134L136.114 164.928ZM137.391 171.656C137.391 174.299 136.857 176.659 135.809 178.756L137.598 179.65C138.799 177.247 139.391 174.576 139.391 171.656H137.391ZM135.809 178.756C134.755 180.863 133.247 182.667 131.269 184.173L132.481 185.764C134.69 184.083 136.401 182.043 137.598 179.65L135.809 178.756ZM131.269 184.173C129.286 185.683 126.883 186.867 124.043 187.713L124.614 189.63C127.648 188.726 130.276 187.442 132.481 185.764L131.269 184.173ZM124.049 187.712C121.249 188.525 118.095 188.938 114.578 188.938V190.938C118.249 190.938 121.595 190.507 124.607 189.632L124.049 187.712ZM114.578 188.938C111.516 188.938 108.499 188.513 105.525 187.663L104.975 189.587C108.126 190.487 111.328 190.938 114.578 190.938V188.938ZM105.527 187.664C102.598 186.819 99.9333 185.553 97.5266 183.868L96.3797 185.507C98.9729 187.322 101.839 188.681 104.973 189.586L105.527 187.664ZM97.5314 183.872C95.1763 182.202 93.2899 180.151 91.863 177.714L90.137 178.724C91.7101 181.411 93.7925 183.673 96.3748 185.503L97.5314 183.872ZM91.8702 177.726C90.498 175.303 89.7969 172.477 89.7969 169.219H87.7969C87.7969 172.773 88.5645 175.947 90.1298 178.711L91.8702 177.726ZM88.7969 170.219H97.7969V168.219H88.7969V170.219ZM96.7969 169.219C96.7969 171.691 97.2753 173.877 98.2753 175.739L100.037 174.792C99.2247 173.28 98.7969 171.434 98.7969 169.219H96.7969ZM98.279 175.746C99.2598 177.538 100.599 179.029 102.286 180.21L103.433 178.571C101.995 177.565 100.865 176.306 100.034 174.786L98.279 175.746ZM102.294 180.215C103.988 181.378 105.891 182.236 107.993 182.795L108.507 180.862C106.609 180.358 104.918 179.591 103.425 178.566L102.294 180.215ZM108.011 182.799C110.124 183.319 112.314 183.578 114.578 183.578V181.578C112.467 181.578 110.439 181.337 108.489 180.857L108.011 182.799ZM114.578 183.578C117.821 183.578 120.627 183.129 122.965 182.194L122.222 180.337C120.186 181.152 117.648 181.578 114.578 181.578V183.578ZM122.965 182.194C125.299 181.26 127.128 179.9 128.385 178.085L126.74 176.946C125.747 178.381 124.263 179.521 122.222 180.337L122.965 182.194ZM128.377 178.095C129.667 176.282 130.297 174.152 130.297 171.75H128.297C128.297 173.785 127.77 175.499 126.748 176.936L128.377 178.095ZM175.141 120.75H176.141V119.75H175.141V120.75ZM175.141 189V190H176.141V189H175.141ZM166.234 189H165.234V190H166.234V189ZM166.234 120.75V119.75H165.234V120.75H166.234ZM197.078 120.75H198.078V119.75H197.078V120.75ZM197.078 128.156V129.156H198.078V128.156H197.078ZM144.344 128.156H143.344V129.156H144.344V128.156ZM144.344 120.75V119.75H143.344V120.75H144.344ZM174.141 120.75V189H176.141V120.75H174.141ZM175.141 188H166.234V190H175.141V188ZM167.234 189V120.75H165.234V189H167.234ZM166.234 121.75H175.141V119.75H166.234V121.75ZM196.078 120.75V128.156H198.078V120.75H196.078ZM197.078 127.156H144.344V129.156H197.078V127.156ZM145.344 128.156V120.75H143.344V128.156H145.344ZM144.344 121.75H197.078V119.75H144.344V121.75ZM246.25 120.75V119.75H245.25V120.75H246.25ZM255.25 120.75H256.25V119.75H255.25V120.75ZM242.734 187.406L243.145 188.318L243.148 188.317L242.734 187.406ZM217.938 187.406L217.518 188.314L217.527 188.318L217.938 187.406ZM209.078 179.719L208.233 180.254L208.237 180.259L209.078 179.719ZM205.844 120.75V119.75H204.844V120.75H205.844ZM214.797 120.75H215.797V119.75H214.797V120.75ZM222.25 180.891L221.817 181.792L221.822 181.794L222.25 180.891ZM238.75 180.891L238.322 179.987L238.317 179.989L238.75 180.891ZM246.25 121.75H255.25V119.75H246.25V121.75ZM254.25 120.75V166.922H256.25V120.75H254.25ZM254.25 166.922C254.25 171.898 253.144 175.958 250.997 179.162L252.659 180.275C255.075 176.667 256.25 172.195 256.25 166.922H254.25ZM250.997 179.162C248.821 182.412 245.935 184.853 242.321 186.496L243.148 188.317C247.096 186.522 250.273 183.838 252.659 180.275L250.997 179.162ZM242.324 186.494C238.712 188.12 234.775 188.938 230.5 188.938V190.938C235.037 190.938 239.257 190.068 243.145 188.318L242.324 186.494ZM230.5 188.938C225.999 188.938 221.954 188.117 218.348 186.494L217.527 188.318C221.421 190.071 225.751 190.938 230.5 190.938V188.938ZM218.357 186.499C214.809 184.859 212.003 182.423 209.92 179.178L208.237 180.259C210.528 183.827 213.629 186.516 217.518 188.314L218.357 186.499ZM209.923 179.184C207.892 175.976 206.844 171.908 206.844 166.922H204.844C204.844 172.185 205.951 176.649 208.233 180.254L209.923 179.184ZM206.844 166.922V120.75H204.844V166.922H206.844ZM205.844 121.75H214.797V119.75H205.844V121.75ZM213.797 120.75V166.922H215.797V120.75H213.797ZM213.797 166.922C213.797 170.601 214.474 173.722 215.896 176.228L217.635 175.241C216.432 173.121 215.797 170.368 215.797 166.922H213.797ZM215.896 176.228C217.307 178.714 219.285 180.577 221.817 181.792L222.683 179.989C220.527 178.954 218.85 177.38 217.635 175.241L215.896 176.228ZM221.822 181.794C224.354 182.994 227.255 183.578 230.5 183.578V181.578C227.495 181.578 224.896 181.038 222.678 179.987L221.822 181.794ZM230.5 183.578C233.775 183.578 236.678 182.994 239.183 181.792L238.317 179.989C236.134 181.037 233.538 181.578 230.5 181.578V183.578ZM239.178 181.794C241.741 180.58 243.738 178.717 245.151 176.228L243.412 175.241C242.199 177.377 240.509 178.951 238.322 179.987L239.178 181.794ZM245.151 176.228C246.573 173.722 247.25 170.601 247.25 166.922H245.25C245.25 170.368 244.614 173.121 243.412 175.241L245.151 176.228ZM247.25 166.922V120.75H245.25V166.922H247.25ZM273.672 189L272.672 188.987L272.659 190H273.672V189ZM273.766 181.641V180.641H272.778L272.766 181.628L273.766 181.641ZM300.109 178.594L300.639 179.442L300.645 179.438L300.109 178.594ZM307.422 169.969L306.508 169.562L306.507 169.565L307.422 169.969ZM308.5 142.359L307.544 142.652L307.545 142.655L308.5 142.359ZM304.375 134.625L303.614 135.274L303.619 135.28L304.375 134.625ZM297.719 129.797L297.33 130.718L297.334 130.72L297.719 129.797ZM273.391 128.156H272.391V129.156H273.391V128.156ZM273.391 120.75V119.75H272.391V120.75H273.391ZM301 123L300.623 123.926L300.63 123.929L301 123ZM310.516 129.422L309.789 130.109L309.797 130.117L310.516 129.422ZM316.703 139.547L315.763 139.887L315.764 139.89L316.703 139.547ZM316.703 170.297L317.642 170.64L317.643 170.637L316.703 170.297ZM310.469 180.375L309.754 179.676L309.75 179.68L310.469 180.375ZM300.719 186.797L301.081 187.729L301.085 187.727L300.719 186.797ZM278.5 120.75H279.5V119.75H278.5V120.75ZM278.5 189V190H279.5V189H278.5ZM269.453 189H268.453V190H269.453V189ZM269.453 120.75V119.75H268.453V120.75H269.453ZM287.922 188H273.672V190H287.922V188ZM274.672 189.013L274.766 181.653L272.766 181.628L272.672 188.987L274.672 189.013ZM273.766 182.641H287.922V180.641H273.766V182.641ZM287.922 182.641C292.934 182.641 297.192 181.596 300.639 179.442L299.579 177.746C296.526 179.654 292.66 180.641 287.922 180.641V182.641ZM300.645 179.438C304.071 177.264 306.636 174.232 308.337 170.372L306.507 169.565C304.958 173.081 302.648 175.798 299.574 177.749L300.645 179.438ZM308.335 170.376C310.06 166.504 310.906 162.016 310.906 156.938H308.906C308.906 161.796 308.096 165.996 306.508 169.562L308.335 170.376ZM310.906 156.938V152.766H308.906V156.938H310.906ZM310.906 152.766C310.906 148.781 310.428 145.21 309.455 142.064L307.545 142.655C308.447 145.571 308.906 148.937 308.906 152.766H310.906ZM309.456 142.067C308.484 138.892 307.048 136.185 305.131 133.97L303.619 135.28C305.327 137.253 306.641 139.702 307.544 142.652L309.456 142.067ZM305.136 133.976C303.219 131.729 300.871 130.027 298.103 128.874L297.334 130.72C299.817 131.754 301.906 133.271 303.614 135.274L305.136 133.976ZM298.107 128.875C295.369 127.721 292.248 127.156 288.766 127.156V129.156C292.033 129.156 294.881 129.686 297.33 130.718L298.107 128.875ZM288.766 127.156H273.391V129.156H288.766V127.156ZM274.391 128.156V120.75H272.391V128.156H274.391ZM273.391 121.75H288.766V119.75H273.391V121.75ZM288.766 121.75C293.121 121.75 297.069 122.481 300.623 123.926L301.377 122.074C297.556 120.519 293.348 119.75 288.766 119.75V121.75ZM300.63 123.929C304.186 125.345 307.235 127.405 309.789 130.108L311.243 128.735C308.484 125.814 305.189 123.592 301.37 122.071L300.63 123.929ZM309.797 130.117C312.378 132.788 314.369 136.039 315.763 139.887L317.643 139.206C316.162 135.117 314.029 131.618 311.235 128.727L309.797 130.117ZM315.764 139.89C317.155 143.7 317.859 148.018 317.859 152.859H319.859C319.859 147.825 319.127 143.269 317.642 139.204L315.764 139.89ZM317.859 152.859V156.938H319.859V152.859H317.859ZM317.859 156.938C317.859 161.778 317.155 166.114 315.763 169.956L317.643 170.637C319.126 166.543 319.859 161.972 319.859 156.938H317.859ZM315.764 169.954C314.371 173.769 312.366 177.004 309.754 179.676L311.184 181.074C314.009 178.184 316.16 174.7 317.642 170.64L315.764 169.954ZM309.75 179.68C307.167 182.352 304.04 184.416 300.353 185.866L301.085 187.727C305.022 186.178 308.395 183.96 311.188 181.07L309.75 179.68ZM300.357 185.865C296.709 187.282 292.569 188 287.922 188V190C292.775 190 297.166 189.25 301.081 187.729L300.357 185.865ZM277.5 120.75V189H279.5V120.75H277.5ZM278.5 188H269.453V190H278.5V188ZM270.453 189V120.75H268.453V189H270.453ZM269.453 121.75H278.5V119.75H269.453V121.75ZM336.281 143.5H337.281V142.5H336.281V143.5ZM336.281 189V190H337.281V189H336.281ZM330.25 189H329.25V190H330.25V189ZM330.25 143.5V142.5H329.25V143.5H330.25ZM335.281 143.5V189H337.281V143.5H335.281ZM336.281 188H330.25V190H336.281V188ZM331.25 189V143.5H329.25V189H331.25ZM330.25 144.5H336.281V142.5H330.25V144.5ZM386.312 187.688L385.906 186.774L385.903 186.775L386.312 187.688ZM363.953 187.688L363.544 188.6L363.547 188.601L363.953 187.688ZM355.234 181.172L354.475 181.823L354.479 181.827L355.234 181.172ZM349.516 138.984L348.566 138.67L348.565 138.675L349.516 138.984ZM355.188 128.625L355.947 129.276L355.95 129.272L355.188 128.625ZM363.859 122.062L363.453 121.149L363.45 121.15L363.859 122.062ZM386.219 122.062L385.809 122.975L385.813 122.976L386.219 122.062ZM394.891 128.625L394.124 129.267L394.131 129.276L394.891 128.625ZM400.469 138.984L399.515 139.285L399.518 139.294L400.469 138.984ZM392.219 141.844L391.251 142.095L391.253 142.104L392.219 141.844ZM382.75 129.141L382.318 130.042L382.322 130.045L382.75 129.141ZM367.328 129.141L366.896 128.239L366.891 128.241L367.328 129.141ZM361.516 133.969L360.721 133.361L360.716 133.369L361.516 133.969ZM357.812 167.906L356.849 168.173L356.85 168.176L357.812 167.906ZM361.562 175.828L360.764 176.43L360.769 176.436L360.774 176.443L361.562 175.828ZM367.422 180.656L366.985 181.556L366.99 181.558L367.422 180.656ZM388.656 175.828L387.852 175.234L387.851 175.236L388.656 175.828ZM392.266 167.906L393.233 168.158L393.234 168.156L392.266 167.906ZM401.438 152.719V157.031H403.438V152.719H401.438ZM401.438 157.031C401.438 162.074 400.807 166.564 399.562 170.512L401.469 171.113C402.787 166.936 403.438 162.238 403.438 157.031H401.438ZM399.562 170.512C398.315 174.466 396.53 177.797 394.221 180.526L395.748 181.818C398.251 178.859 400.154 175.284 401.469 171.113L399.562 170.512ZM394.221 180.526C391.911 183.256 389.142 185.335 385.906 186.774L386.719 188.601C390.233 187.04 393.245 184.776 395.748 181.818L394.221 180.526ZM385.903 186.775C382.704 188.21 379.097 188.938 375.062 188.938V190.938C379.341 190.938 383.233 190.165 386.722 188.6L385.903 186.775ZM375.062 188.938C371.158 188.938 367.595 188.212 364.359 186.774L363.547 188.601C367.061 190.163 370.904 190.938 375.062 190.938V188.938ZM364.362 186.775C361.155 185.336 358.366 183.253 355.99 180.516L354.479 181.827C357.041 184.778 360.064 187.039 363.544 188.6L364.362 186.775ZM355.994 180.521C353.652 177.789 351.821 174.455 350.512 170.498L348.613 171.127C349.992 175.295 351.942 178.867 354.475 181.823L355.994 180.521ZM350.512 170.498C349.208 166.555 348.547 162.07 348.547 157.031H346.547C346.547 162.243 347.23 166.945 348.613 171.127L350.512 170.498ZM348.547 157.031V152.719H346.547V157.031H348.547ZM348.547 152.719C348.547 147.678 349.193 143.207 350.466 139.294L348.565 138.675C347.214 142.824 346.547 147.51 346.547 152.719H348.547ZM350.465 139.298C351.774 135.342 353.605 132.008 355.947 129.276L354.428 127.974C351.895 130.93 349.945 134.502 348.566 138.67L350.465 139.298ZM355.95 129.272C358.294 126.507 361.065 124.412 364.269 122.975L363.45 121.15C359.966 122.713 356.956 124.993 354.425 127.978L355.95 129.272ZM364.266 122.976C367.501 121.538 371.064 120.812 374.969 120.812V118.812C370.811 118.812 366.967 119.587 363.453 121.149L364.266 122.976ZM374.969 120.812C379.003 120.812 382.611 121.54 385.809 122.975L386.628 121.15C383.139 119.585 379.247 118.812 374.969 118.812V120.812ZM385.813 122.976C389.046 124.413 391.814 126.507 394.124 129.267L395.657 127.983C393.155 124.993 390.141 122.712 386.625 121.149L385.813 122.976ZM394.131 129.276C396.47 132.004 398.269 135.334 399.515 139.285L401.422 138.684C400.106 134.51 398.186 130.933 395.65 127.974L394.131 129.276ZM399.518 139.294C400.792 143.207 401.438 147.678 401.438 152.719H403.438C403.438 147.51 402.771 142.824 401.42 138.675L399.518 139.294ZM394.484 157.031V152.625H392.484V157.031H394.484ZM394.484 152.625C394.484 148.496 394.056 144.811 393.184 141.583L391.253 142.104C392.069 145.126 392.484 148.629 392.484 152.625H394.484ZM393.187 141.592C392.348 138.368 391.096 135.618 389.409 133.369L387.809 134.569C389.31 136.57 390.464 139.07 391.251 142.095L393.187 141.592ZM389.409 133.369C387.722 131.119 385.643 129.403 383.178 128.237L382.322 130.045C384.482 131.066 386.309 132.569 387.809 134.569L389.409 133.369ZM383.182 128.239C380.747 127.071 378.002 126.5 374.969 126.5V128.5C377.748 128.5 380.19 129.022 382.318 130.042L383.182 128.239ZM374.969 126.5C372.023 126.5 369.326 127.074 366.896 128.239L367.76 130.042C369.892 129.02 372.289 128.5 374.969 128.5V126.5ZM366.891 128.241C364.491 129.408 362.434 131.121 360.721 133.361L362.31 134.576C363.847 132.566 365.665 131.061 367.765 130.04L366.891 128.241ZM360.716 133.369C359.033 135.612 357.751 138.355 356.85 141.574L358.775 142.113C359.624 139.082 360.811 136.575 362.316 134.569L360.716 133.369ZM356.85 141.574C355.945 144.806 355.5 148.493 355.5 152.625H357.5C357.5 148.632 357.93 145.132 358.775 142.113L356.85 141.574ZM355.5 152.625V157.031H357.5V152.625H355.5ZM355.5 157.031C355.5 161.194 355.945 164.912 356.849 168.173L358.776 167.639C357.93 164.588 357.5 161.056 357.5 157.031H355.5ZM356.85 168.176C357.752 171.397 359.05 174.156 360.764 176.43L362.361 175.226C360.825 173.187 359.623 170.665 358.775 167.637L356.85 168.176ZM360.774 176.443C362.517 178.679 364.587 180.39 366.985 181.556L367.859 179.757C365.757 178.735 363.921 177.227 362.351 175.213L360.774 176.443ZM366.99 181.558C369.42 182.723 372.117 183.297 375.062 183.297V181.297C372.383 181.297 369.986 180.777 367.854 179.755L366.99 181.558ZM375.062 183.297C378.126 183.297 380.887 182.726 383.323 181.558L382.458 179.755C380.332 180.774 377.874 181.297 375.062 181.297V183.297ZM383.323 181.558C385.759 180.39 387.807 178.672 389.462 176.421L387.851 175.236C386.381 177.234 384.585 178.735 382.458 179.755L383.323 181.558ZM389.46 176.423C391.144 174.145 392.395 171.382 393.233 168.158L391.298 167.655C390.511 170.681 389.356 173.199 387.852 175.234L389.46 176.423ZM393.234 168.156C394.072 164.9 394.484 161.189 394.484 157.031H392.484C392.484 161.061 392.084 164.6 391.297 167.657L393.234 168.156ZM451.609 167.531L450.673 167.882L450.678 167.897L450.684 167.911L451.609 167.531ZM449.078 164.156L448.434 164.921L448.444 164.929L449.078 164.156ZM444.109 161.297L443.712 162.215L443.717 162.217L444.109 161.297ZM436.141 158.531L435.857 159.49L435.861 159.491L436.141 158.531ZM427 155.203L426.582 156.112L426.591 156.116L427 155.203ZM420.344 125.156L420.976 125.931L420.977 125.93L420.344 125.156ZM450.25 122.766L449.766 123.641L449.775 123.646L450.25 122.766ZM458.453 130.406L457.593 130.917L457.596 130.921L458.453 130.406ZM461.266 140.438V141.438H462.266V140.438H461.266ZM452.266 140.438H451.266V141.438H452.266V140.438ZM450.625 133.641L449.748 134.12L449.751 134.126L450.625 133.641ZM445.656 128.953L445.194 129.84L445.204 129.845L445.656 128.953ZM424.562 132.609L423.714 132.081L423.706 132.093L424.562 132.609ZM423.953 142.219L423.059 142.666L423.066 142.68L423.073 142.694L423.953 142.219ZM426.812 145.453L426.197 146.241L426.206 146.249L426.812 145.453ZM431.781 148.219L431.393 149.14L431.398 149.142L431.781 148.219ZM439.047 150.656L439.319 149.694L439.315 149.693L439.047 150.656ZM456.016 158.859L455.334 159.591L455.341 159.597L455.347 159.603L456.016 158.859ZM460.094 164.531L459.169 164.912L459.172 164.92L459.176 164.928L460.094 164.531ZM447.391 188.672L447.669 189.632L447.676 189.63L447.391 188.672ZM428.312 188.625L428.035 189.586L428.038 189.587L428.312 188.625ZM420.016 184.688L419.437 185.503L419.442 185.507L420.016 184.688ZM414.062 178.219L413.192 178.711L413.196 178.718L413.199 178.724L414.062 178.219ZM411.859 169.219V168.219H410.859V169.219H411.859ZM420.859 169.219H421.859V168.219H420.859V169.219ZM422.219 175.266L421.338 175.739L421.341 175.746L422.219 175.266ZM425.922 179.391L425.348 180.21L425.356 180.215L425.922 179.391ZM431.312 181.828L431.056 182.795L431.065 182.797L431.073 182.799L431.312 181.828ZM450.625 177.516L449.81 176.936L449.803 176.946L450.625 177.516ZM453.359 171.75C453.359 170.053 453.093 168.513 452.535 167.152L450.684 167.911C451.126 168.987 451.359 170.26 451.359 171.75H453.359ZM452.546 167.18C452.005 165.738 451.042 164.474 449.712 163.383L448.444 164.929C449.551 165.838 450.276 166.825 450.673 167.882L452.546 167.18ZM449.722 163.391C448.432 162.305 446.678 161.305 444.502 160.377L443.717 162.217C445.791 163.101 447.35 164.008 448.434 164.921L449.722 163.391ZM444.507 160.379C442.361 159.451 439.662 158.515 436.42 157.571L435.861 159.491C439.056 160.422 441.67 161.331 443.712 162.215L444.507 160.379ZM436.425 157.572C433.085 156.583 430.081 155.488 427.409 154.291L426.591 156.116C429.357 157.355 432.446 158.48 435.857 159.49L436.425 157.572ZM427.418 154.295C424.763 153.074 422.511 151.695 420.651 150.165L419.38 151.71C421.396 153.367 423.8 154.832 426.582 156.112L427.418 154.295ZM420.651 150.165C418.812 148.653 417.42 146.932 416.457 145.006L414.668 145.9C415.767 148.099 417.344 150.035 419.38 151.71L420.651 150.165ZM416.457 145.006C415.505 143.102 415.016 140.9 415.016 138.375H413.016C413.016 141.163 413.558 143.679 414.668 145.9L416.457 145.006ZM415.016 138.375C415.016 135.861 415.532 133.558 416.556 131.453L414.757 130.578C413.593 132.973 413.016 135.577 413.016 138.375H415.016ZM416.556 131.453C417.583 129.34 419.052 127.5 420.976 125.931L419.712 124.381C417.573 126.125 415.917 128.192 414.757 130.578L416.556 131.453ZM420.977 125.93C422.933 124.329 425.275 123.072 428.016 122.168L427.39 120.269C424.444 121.24 421.879 122.608 419.711 124.382L420.977 125.93ZM428.016 122.168C430.744 121.269 433.808 120.812 437.219 120.812V118.812C433.63 118.812 430.35 119.293 427.39 120.269L428.016 122.168ZM437.219 120.812C442.218 120.812 446.385 121.773 449.766 123.641L450.734 121.89C446.99 119.821 442.47 118.812 437.219 118.812V120.812ZM449.775 123.646C453.228 125.507 455.821 127.934 457.593 130.917L459.313 129.896C457.335 126.566 454.459 123.899 450.725 121.885L449.775 123.646ZM457.596 130.921C459.38 133.894 460.266 137.061 460.266 140.438H462.266C462.266 136.689 461.277 133.168 459.311 129.892L457.596 130.921ZM461.266 139.438H452.266V141.438H461.266V139.438ZM453.266 140.438C453.266 137.729 452.686 135.292 451.499 133.155L449.751 134.126C450.751 135.927 451.266 138.021 451.266 140.438H453.266ZM451.502 133.161C450.303 130.967 448.49 129.269 446.108 128.061L445.204 129.845C447.26 130.887 448.76 132.314 449.748 134.12L451.502 133.161ZM446.118 128.066C443.715 126.814 440.731 126.219 437.219 126.219V128.219C440.519 128.219 443.16 128.78 445.194 129.84L446.118 128.066ZM437.219 126.219C433.909 126.219 431.097 126.716 428.83 127.764L429.67 129.579C431.591 128.691 434.091 128.219 437.219 128.219V126.219ZM428.83 127.764C426.592 128.8 424.865 130.231 423.714 132.081L425.411 133.138C426.322 131.675 427.72 130.482 429.67 129.579L428.83 127.764ZM423.706 132.093C422.603 133.92 422.062 135.993 422.062 138.281H424.062C424.062 136.32 424.522 134.611 425.419 133.126L423.706 132.093ZM422.062 138.281C422.062 139.861 422.39 141.328 423.059 142.666L424.848 141.772C424.329 140.734 424.062 139.577 424.062 138.281H422.062ZM423.073 142.694C423.778 143.997 424.832 145.176 426.197 146.241L427.428 144.665C426.23 143.73 425.379 142.753 424.833 141.743L423.073 142.694ZM426.206 146.249C427.603 147.313 429.338 148.273 431.393 149.14L432.17 147.297C430.225 146.477 428.647 145.594 427.419 144.658L426.206 146.249ZM431.398 149.142C433.477 150.006 435.939 150.831 438.779 151.62L439.315 149.693C436.53 148.919 434.148 148.119 432.165 147.295L431.398 149.142ZM438.775 151.619C442.61 152.701 445.898 153.901 448.647 155.215L449.509 153.41C446.633 152.036 443.233 150.799 439.319 149.694L438.775 151.619ZM448.647 155.215C451.39 156.526 453.612 157.988 455.334 159.591L456.697 158.127C454.794 156.356 452.391 154.787 449.509 153.41L448.647 155.215ZM455.347 159.603C457.088 161.167 458.356 162.936 459.169 164.912L461.018 164.151C460.082 161.876 458.63 159.864 456.684 158.115L455.347 159.603ZM459.176 164.928C460.02 166.878 460.453 169.114 460.453 171.656H462.453C462.453 168.886 461.98 166.372 461.011 164.134L459.176 164.928ZM460.453 171.656C460.453 174.299 459.92 176.659 458.871 178.756L460.66 179.65C461.862 177.247 462.453 174.576 462.453 171.656H460.453ZM458.871 178.756C457.818 180.863 456.31 182.667 454.332 184.173L455.543 185.764C457.753 184.083 459.464 182.043 460.66 179.65L458.871 178.756ZM454.332 184.173C452.349 185.683 449.946 186.867 447.105 187.713L447.676 189.63C450.711 188.726 453.339 187.442 455.543 185.764L454.332 184.173ZM447.112 187.712C444.311 188.525 441.157 188.938 437.641 188.938V190.938C441.312 190.938 444.657 190.507 447.669 189.632L447.112 187.712ZM437.641 188.938C434.578 188.938 431.561 188.513 428.587 187.663L428.038 189.587C431.189 190.487 434.391 190.938 437.641 190.938V188.938ZM428.59 187.664C425.661 186.819 422.996 185.553 420.589 183.868L419.442 185.507C422.035 187.322 424.902 188.681 428.035 189.586L428.59 187.664ZM420.594 183.872C418.239 182.202 416.352 180.151 414.926 177.714L413.199 178.724C414.773 181.411 416.855 183.673 419.437 185.503L420.594 183.872ZM414.933 177.726C413.561 175.303 412.859 172.477 412.859 169.219H410.859C410.859 172.773 411.627 175.947 413.192 178.711L414.933 177.726ZM411.859 170.219H420.859V168.219H411.859V170.219ZM419.859 169.219C419.859 171.691 420.338 173.877 421.338 175.739L423.1 174.792C422.287 173.28 421.859 171.434 421.859 169.219H419.859ZM421.341 175.746C422.322 177.538 423.661 179.029 425.348 180.21L426.495 178.571C425.058 177.565 423.928 176.306 423.096 174.786L421.341 175.746ZM425.356 180.215C427.05 181.378 428.953 182.236 431.056 182.795L431.569 180.862C429.672 180.358 427.981 179.591 426.488 178.566L425.356 180.215ZM431.073 182.799C433.186 183.319 435.376 183.578 437.641 183.578V181.578C435.53 181.578 433.501 181.337 431.552 180.857L431.073 182.799ZM437.641 183.578C440.883 183.578 443.689 183.129 446.028 182.194L445.285 180.337C443.248 181.152 440.71 181.578 437.641 181.578V183.578ZM446.028 182.194C448.362 181.26 450.19 179.9 451.447 178.085L449.803 176.946C448.81 178.381 447.326 179.521 445.285 180.337L446.028 182.194ZM451.44 178.095C452.73 176.282 453.359 174.152 453.359 171.75H451.359C451.359 173.785 450.833 175.499 449.81 176.936L451.44 178.095Z" fill="black"/>
<path d="M333 113C327.452 113 323 117.452 323 123C323 128.548 327.52 133 333 133C338.547 133 342.999 128.548 342.999 123C343.068 117.452 338.547 113 333 113Z" fill="#00B0FF"/>
</svg>
