<svg width="549" height="213" viewBox="0 0 549 213" fill="none" xmlns="http://www.w3.org/2000/svg">
<path d="M12.5156 20.75H24.4219L41.9531 70.8594L59.4844 20.75H71.3906L46.7344 89H37.1719L12.5156 20.75ZM6.09375 20.75H17.9531L20.1094 69.5938V89H6.09375V20.75ZM65.9531 20.75H77.8594V89H63.7969V69.5938L65.9531 20.75ZM140.784 78.0312V89H104.456V78.0312H140.784ZM109.05 20.75V89H94.9875V20.75H109.05ZM136.05 48.5469V59.2344H104.456V48.5469H136.05ZM140.738 20.75V31.7656H104.456V20.75H140.738ZM185.241 20.75V89H171.225V20.75H185.241ZM206.241 20.75V31.7656H150.553V20.75H206.241ZM241.744 32.4219L223.181 89H208.228L233.587 20.75H243.103L241.744 32.4219ZM257.166 89L238.556 32.4219L237.056 20.75H246.666L272.166 89H257.166ZM256.322 63.5938V74.6094H220.275V63.5938H256.322ZM297.403 78.1719L310.997 20.75H318.591L320.325 30.3125L305.841 89H297.684L297.403 78.1719ZM290.419 20.75L301.669 78.1719L300.731 89H291.638L276.497 20.75H290.419ZM332.278 77.9375L343.388 20.75H357.309L342.216 89H333.122L332.278 77.9375ZM322.856 20.75L336.544 78.4062L336.169 89H328.013L313.434 30.2656L315.309 20.75H322.856ZM395.438 32.4219L376.875 89H361.922L387.281 20.75H396.797L395.438 32.4219ZM410.859 89L392.25 32.4219L390.75 20.75H400.359L425.859 89H410.859ZM410.016 63.5938V74.6094H373.969V63.5938H410.016ZM457.753 74.75L473.831 20.75H489.487L465.722 89H455.409L457.753 74.75ZM442.941 20.75L458.972 74.75L461.409 89H451.003L427.378 20.75H442.941ZM546.459 78.0312V89H510.131V78.0312H546.459ZM514.725 20.75V89H500.663V20.75H514.725ZM541.725 48.5469V59.2344H510.131V48.5469H541.725ZM546.413 20.75V31.7656H510.131V20.75H546.413Z" fill="black"/>
<path d="M12.5156 20.75V19.75H11.0911L11.5751 21.0898L12.5156 20.75ZM24.4219 20.75L25.3658 20.4198L25.1314 19.75H24.4219V20.75ZM41.9531 70.8594L41.0092 71.1896L41.9531 73.8875L42.897 71.1896L41.9531 70.8594ZM59.4844 20.75V19.75H58.7748L58.5405 20.4198L59.4844 20.75ZM71.3906 20.75L72.3311 21.0898L72.8151 19.75H71.3906V20.75ZM46.7344 89V90H47.4364L47.6749 89.3398L46.7344 89ZM37.1719 89L36.2314 89.3398L36.4699 90H37.1719V89ZM6.09375 20.75V19.75H5.09375V20.75H6.09375ZM17.9531 20.75L18.9522 20.7059L18.91 19.75H17.9531V20.75ZM20.1094 69.5938H21.1094V69.5717L21.1084 69.5496L20.1094 69.5938ZM20.1094 89V90H21.1094V89H20.1094ZM6.09375 89H5.09375V90H6.09375V89ZM65.9531 20.75V19.75H64.9963L64.9541 20.7059L65.9531 20.75ZM77.8594 20.75H78.8594V19.75H77.8594V20.75ZM77.8594 89V90H78.8594V89H77.8594ZM63.7969 89H62.7969V90H63.7969V89ZM63.7969 69.5938L62.7978 69.5496L62.7969 69.5717V69.5938H63.7969ZM12.5156 21.75H24.4219V19.75H12.5156V21.75ZM23.478 21.0802L41.0092 71.1896L42.897 70.5291L25.3658 20.4198L23.478 21.0802ZM42.897 71.1896L60.4283 21.0802L58.5405 20.4198L41.0092 70.5291L42.897 71.1896ZM59.4844 21.75H71.3906V19.75H59.4844V21.75ZM70.4501 20.4102L45.7939 88.6602L47.6749 89.3398L72.3311 21.0898L70.4501 20.4102ZM46.7344 88H37.1719V90H46.7344V88ZM38.1124 88.6602L13.4561 20.4102L11.5751 21.0898L36.2314 89.3398L38.1124 88.6602ZM6.09375 21.75H17.9531V19.75H6.09375V21.75ZM16.9541 20.7941L19.1103 69.6379L21.1084 69.5496L18.9522 20.7059L16.9541 20.7941ZM19.1094 69.5938V89H21.1094V69.5938H19.1094ZM20.1094 88H6.09375V90H20.1094V88ZM7.09375 89V20.75H5.09375V89H7.09375ZM65.9531 21.75H77.8594V19.75H65.9531V21.75ZM76.8594 20.75V89H78.8594V20.75H76.8594ZM77.8594 88H63.7969V90H77.8594V88ZM64.7969 89V69.5938H62.7969V89H64.7969ZM64.7959 69.6379L66.9522 20.7941L64.9541 20.7059L62.7978 69.5496L64.7959 69.6379ZM140.784 78.0312H141.784V77.0312H140.784V78.0312ZM140.784 89V90H141.784V89H140.784ZM104.456 89H103.456V90H104.456V89ZM104.456 78.0312V77.0312H103.456V78.0312H104.456ZM109.05 20.75H110.05V19.75H109.05V20.75ZM109.05 89V90H110.05V89H109.05ZM94.9875 89H93.9875V90H94.9875V89ZM94.9875 20.75V19.75H93.9875V20.75H94.9875ZM136.05 48.5469H137.05V47.5469H136.05V48.5469ZM136.05 59.2344V60.2344H137.05V59.2344H136.05ZM104.456 59.2344H103.456V60.2344H104.456V59.2344ZM104.456 48.5469V47.5469H103.456V48.5469H104.456ZM140.738 20.75H141.738V19.75H140.738V20.75ZM140.738 31.7656V32.7656H141.738V31.7656H140.738ZM104.456 31.7656H103.456V32.7656H104.456V31.7656ZM104.456 20.75V19.75H103.456V20.75H104.456ZM139.784 78.0312V89H141.784V78.0312H139.784ZM140.784 88H104.456V90H140.784V88ZM105.456 89V78.0312H103.456V89H105.456ZM104.456 79.0312H140.784V77.0312H104.456V79.0312ZM108.05 20.75V89H110.05V20.75H108.05ZM109.05 88H94.9875V90H109.05V88ZM95.9875 89V20.75H93.9875V89H95.9875ZM94.9875 21.75H109.05V19.75H94.9875V21.75ZM135.05 48.5469V59.2344H137.05V48.5469H135.05ZM136.05 58.2344H104.456V60.2344H136.05V58.2344ZM105.456 59.2344V48.5469H103.456V59.2344H105.456ZM104.456 49.5469H136.05V47.5469H104.456V49.5469ZM139.738 20.75V31.7656H141.738V20.75H139.738ZM140.738 30.7656H104.456V32.7656H140.738V30.7656ZM105.456 31.7656V20.75H103.456V31.7656H105.456ZM104.456 21.75H140.738V19.75H104.456V21.75ZM185.241 20.75H186.241V19.75H185.241V20.75ZM185.241 89V90H186.241V89H185.241ZM171.225 89H170.225V90H171.225V89ZM171.225 20.75V19.75H170.225V20.75H171.225ZM206.241 20.75H207.241V19.75H206.241V20.75ZM206.241 31.7656V32.7656H207.241V31.7656H206.241ZM150.553 31.7656H149.553V32.7656H150.553V31.7656ZM150.553 20.75V19.75H149.553V20.75H150.553ZM184.241 20.75V89H186.241V20.75H184.241ZM185.241 88H171.225V90H185.241V88ZM172.225 89V20.75H170.225V89H172.225ZM171.225 21.75H185.241V19.75H171.225V21.75ZM205.241 20.75V31.7656H207.241V20.75H205.241ZM206.241 30.7656H150.553V32.7656H206.241V30.7656ZM151.553 31.7656V20.75H149.553V31.7656H151.553ZM150.553 21.75H206.241V19.75H150.553V21.75ZM241.744 32.4219L242.694 32.7336L242.725 32.6378L242.737 32.5376L241.744 32.4219ZM223.181 89V90H223.906L224.131 89.3117L223.181 89ZM208.228 89L207.291 88.6517L206.79 90H208.228V89ZM233.587 20.75V19.75H232.892L232.65 20.4017L233.587 20.75ZM243.103 20.75L244.096 20.8657L244.226 19.75H243.103V20.75ZM257.166 89L256.216 89.3124L256.442 90H257.166V89ZM238.556 32.4219L237.564 32.5493L237.577 32.6438L237.606 32.7343L238.556 32.4219ZM237.056 20.75V19.75H235.92L236.064 20.8775L237.056 20.75ZM246.666 20.75L247.602 20.4L247.36 19.75H246.666V20.75ZM272.166 89V90H273.607L273.102 88.65L272.166 89ZM256.322 63.5938H257.322V62.5938H256.322V63.5938ZM256.322 74.6094V75.6094H257.322V74.6094H256.322ZM220.275 74.6094H219.275V75.6094H220.275V74.6094ZM220.275 63.5938V62.5938H219.275V63.5938H220.275ZM240.794 32.1101L222.231 88.6883L224.131 89.3117L242.694 32.7336L240.794 32.1101ZM223.181 88H208.228V90H223.181V88ZM209.166 89.3483L234.525 21.0983L232.65 20.4017L207.291 88.6517L209.166 89.3483ZM233.587 21.75H243.103V19.75H233.587V21.75ZM242.11 20.6343L240.75 32.3062L242.737 32.5376L244.096 20.8657L242.11 20.6343ZM258.116 88.6876L239.506 32.1094L237.606 32.7343L256.216 89.3124L258.116 88.6876ZM239.548 32.2944L238.048 20.6225L236.064 20.8775L237.564 32.5493L239.548 32.2944ZM237.056 21.75H246.666V19.75H237.056V21.75ZM245.729 21.1L271.229 89.35L273.102 88.65L247.602 20.4L245.729 21.1ZM272.166 88H257.166V90H272.166V88ZM255.322 63.5938V74.6094H257.322V63.5938H255.322ZM256.322 73.6094H220.275V75.6094H256.322V73.6094ZM221.275 74.6094V63.5938H219.275V74.6094H221.275ZM220.275 64.5938H256.322V62.5938H220.275V64.5938ZM297.403 78.1719L296.43 77.9415L296.4 78.0679L296.403 78.1978L297.403 78.1719ZM310.997 20.75V19.75H310.206L310.024 20.5196L310.997 20.75ZM318.591 20.75L319.575 20.5715L319.426 19.75H318.591V20.75ZM320.325 30.3125L321.296 30.5521L321.347 30.3445L321.309 30.134L320.325 30.3125ZM305.841 89V90H306.624L306.812 89.2396L305.841 89ZM297.684 89L296.685 89.026L296.71 90H297.684V89ZM290.419 20.75L291.4 20.5577L291.242 19.75H290.419V20.75ZM301.669 78.1719L302.665 78.2581L302.677 78.1178L302.65 77.9796L301.669 78.1719ZM300.731 89V90H301.648L301.728 89.0863L300.731 89ZM291.638 89L290.661 89.2166L290.835 90H291.638V89ZM276.497 20.75V19.75H275.251L275.521 20.9666L276.497 20.75ZM332.278 77.9375L331.296 77.7468L331.271 77.8791L331.281 78.0136L332.278 77.9375ZM343.388 20.75V19.75H342.563L342.406 20.5593L343.388 20.75ZM357.309 20.75L358.286 20.9659L358.555 19.75H357.309V20.75ZM342.216 89V90H343.019L343.192 89.2159L342.216 89ZM333.122 89L332.125 89.0761L332.195 90H333.122V89ZM322.856 20.75L323.829 20.519L323.647 19.75H322.856V20.75ZM336.544 78.4062L337.543 78.4416L337.548 78.3067L337.517 78.1753L336.544 78.4062ZM336.169 89V90H337.134L337.168 89.0354L336.169 89ZM328.013 89L327.042 89.2409L327.23 90H328.013V89ZM313.434 30.2656L312.453 30.0723L312.41 30.2906L312.464 30.5065L313.434 30.2656ZM315.309 20.75V19.75H314.487L314.328 20.5567L315.309 20.75ZM298.376 78.4022L311.97 20.9804L310.024 20.5196L296.43 77.9415L298.376 78.4022ZM310.997 21.75H318.591V19.75H310.997V21.75ZM317.607 20.9285L319.341 30.491L321.309 30.134L319.575 20.5715L317.607 20.9285ZM319.354 30.0729L304.87 88.7604L306.812 89.2396L321.296 30.5521L319.354 30.0729ZM305.841 88H297.684V90H305.841V88ZM298.684 88.974L298.403 78.1459L296.403 78.1978L296.685 89.026L298.684 88.974ZM289.437 20.9423L300.687 78.3641L302.65 77.9796L291.4 20.5577L289.437 20.9423ZM300.672 78.0856L299.735 88.9137L301.728 89.0863L302.665 78.2581L300.672 78.0856ZM300.731 88H291.638V90H300.731V88ZM292.614 88.7834L277.473 20.5334L275.521 20.9666L290.661 89.2166L292.614 88.7834ZM276.497 21.75H290.419V19.75H276.497V21.75ZM333.26 78.1282L344.369 20.9407L342.406 20.5593L331.296 77.7468L333.26 78.1282ZM343.388 21.75H357.309V19.75H343.388V21.75ZM356.333 20.5341L341.239 88.7841L343.192 89.2159L358.286 20.9659L356.333 20.5341ZM342.216 88H333.122V90H342.216V88ZM334.119 88.9239L333.275 77.8614L331.281 78.0136L332.125 89.0761L334.119 88.9239ZM321.883 20.981L335.571 78.6372L337.517 78.1753L323.829 20.519L321.883 20.981ZM335.544 78.3709L335.169 88.9646L337.168 89.0354L337.543 78.4416L335.544 78.3709ZM336.169 88H328.013V90H336.169V88ZM328.983 88.7591L314.405 30.0247L312.464 30.5065L327.042 89.2409L328.983 88.7591ZM314.416 30.459L316.291 20.9433L314.328 20.5567L312.453 30.0723L314.416 30.459ZM315.309 21.75H322.856V19.75H315.309V21.75ZM395.438 32.4219L396.388 32.7336L396.419 32.6378L396.431 32.5376L395.438 32.4219ZM376.875 89V90H377.599L377.825 89.3117L376.875 89ZM361.922 89L360.984 88.6517L360.484 90H361.922V89ZM387.281 20.75V19.75H386.586L386.344 20.4017L387.281 20.75ZM396.797 20.75L397.79 20.8657L397.92 19.75H396.797V20.75ZM410.859 89L409.909 89.3124L410.136 90H410.859V89ZM392.25 32.4219L391.258 32.5493L391.27 32.6438L391.3 32.7343L392.25 32.4219ZM390.75 20.75V19.75H389.613L389.758 20.8775L390.75 20.75ZM400.359 20.75L401.296 20.4L401.053 19.75H400.359V20.75ZM425.859 89V90H427.301L426.796 88.65L425.859 89ZM410.016 63.5938H411.016V62.5938H410.016V63.5938ZM410.016 74.6094V75.6094H411.016V74.6094H410.016ZM373.969 74.6094H372.969V75.6094H373.969V74.6094ZM373.969 63.5938V62.5938H372.969V63.5938H373.969ZM394.487 32.1101L375.925 88.6883L377.825 89.3117L396.388 32.7336L394.487 32.1101ZM376.875 88H361.922V90H376.875V88ZM362.859 89.3483L388.219 21.0983L386.344 20.4017L360.984 88.6517L362.859 89.3483ZM387.281 21.75H396.797V19.75H387.281V21.75ZM395.804 20.6343L394.444 32.3062L396.431 32.5376L397.79 20.8657L395.804 20.6343ZM411.809 88.6876L393.2 32.1094L391.3 32.7343L409.909 89.3124L411.809 88.6876ZM393.242 32.2944L391.742 20.6225L389.758 20.8775L391.258 32.5493L393.242 32.2944ZM390.75 21.75H400.359V19.75H390.75V21.75ZM399.423 21.1L424.923 89.35L426.796 88.65L401.296 20.4L399.423 21.1ZM425.859 88H410.859V90H425.859V88ZM409.016 63.5938V74.6094H411.016V63.5938H409.016ZM410.016 73.6094H373.969V75.6094H410.016V73.6094ZM374.969 74.6094V63.5938H372.969V74.6094H374.969ZM373.969 64.5938H410.016V62.5938H373.969V64.5938ZM457.753 74.75L456.795 74.4646L456.777 74.5253L456.766 74.5877L457.753 74.75ZM473.831 20.75V19.75H473.086L472.873 20.4646L473.831 20.75ZM489.487 20.75L490.432 21.0788L490.895 19.75H489.487V20.75ZM465.722 89V90H466.433L466.666 89.3288L465.722 89ZM455.409 89L454.423 88.8377L454.231 90H455.409V89ZM442.941 20.75L443.899 20.4654L443.687 19.75H442.941V20.75ZM458.972 74.75L459.958 74.5814L459.947 74.5226L459.931 74.4654L458.972 74.75ZM461.409 89V90H462.595L462.395 88.8314L461.409 89ZM451.003 89L450.058 89.3271L450.291 90H451.003V89ZM427.378 20.75V19.75H425.974L426.433 21.0771L427.378 20.75ZM458.712 75.0354L474.79 21.0354L472.873 20.4646L456.795 74.4646L458.712 75.0354ZM473.831 21.75H489.487V19.75H473.831V21.75ZM488.543 20.4212L464.777 88.6712L466.666 89.3288L490.432 21.0788L488.543 20.4212ZM465.722 88H455.409V90H465.722V88ZM456.396 89.1623L458.74 74.9123L456.766 74.5877L454.423 88.8377L456.396 89.1623ZM441.982 21.0346L458.013 75.0346L459.931 74.4654L443.899 20.4654L441.982 21.0346ZM457.986 74.9186L460.424 89.1686L462.395 88.8314L459.958 74.5814L457.986 74.9186ZM461.409 88H451.003V90H461.409V88ZM451.948 88.6729L428.323 20.4229L426.433 21.0771L450.058 89.3271L451.948 88.6729ZM427.378 21.75H442.941V19.75H427.378V21.75ZM546.459 78.0312H547.459V77.0312H546.459V78.0312ZM546.459 89V90H547.459V89H546.459ZM510.131 89H509.131V90H510.131V89ZM510.131 78.0312V77.0312H509.131V78.0312H510.131ZM514.725 20.75H515.725V19.75H514.725V20.75ZM514.725 89V90H515.725V89H514.725ZM500.663 89H499.663V90H500.663V89ZM500.663 20.75V19.75H499.663V20.75H500.663ZM541.725 48.5469H542.725V47.5469H541.725V48.5469ZM541.725 59.2344V60.2344H542.725V59.2344H541.725ZM510.131 59.2344H509.131V60.2344H510.131V59.2344ZM510.131 48.5469V47.5469H509.131V48.5469H510.131ZM546.413 20.75H547.413V19.75H546.413V20.75ZM546.413 31.7656V32.7656H547.413V31.7656H546.413ZM510.131 31.7656H509.131V32.7656H510.131V31.7656ZM510.131 20.75V19.75H509.131V20.75H510.131ZM545.459 78.0312V89H547.459V78.0312H545.459ZM546.459 88H510.131V90H546.459V88ZM511.131 89V78.0312H509.131V89H511.131ZM510.131 79.0312H546.459V77.0312H510.131V79.0312ZM513.725 20.75V89H515.725V20.75H513.725ZM514.725 88H500.663V90H514.725V88ZM501.663 89V20.75H499.663V89H501.663ZM500.663 21.75H514.725V19.75H500.663V21.75ZM540.725 48.5469V59.2344H542.725V48.5469H540.725ZM541.725 58.2344H510.131V60.2344H541.725V58.2344ZM511.131 59.2344V48.5469H509.131V59.2344H511.131ZM510.131 49.5469H541.725V47.5469H510.131V49.5469ZM545.413 20.75V31.7656H547.413V20.75H545.413ZM546.413 30.7656H510.131V32.7656H546.413V30.7656ZM511.131 31.7656V20.75H509.131V31.7656H511.131ZM510.131 21.75H546.413V19.75H510.131V21.75Z" fill="black"/>
<path d="M116.625 171.141C116.625 169.922 116.438 168.828 116.062 167.859C115.719 166.859 115.062 165.953 114.094 165.141C113.125 164.297 111.766 163.469 110.016 162.656C108.266 161.844 106 161 103.219 160.125C100.125 159.125 97.1875 158 94.4062 156.75C91.6562 155.5 89.2188 154.047 87.0938 152.391C85 150.703 83.3438 148.75 82.125 146.531C80.9375 144.312 80.3438 141.734 80.3438 138.797C80.3438 135.953 80.9688 133.375 82.2188 131.062C83.4688 128.719 85.2188 126.719 87.4688 125.062C89.7188 123.375 92.375 122.078 95.4375 121.172C98.5312 120.266 101.922 119.812 105.609 119.812C110.641 119.812 115.031 120.719 118.781 122.531C122.531 124.344 125.438 126.828 127.5 129.984C129.594 133.141 130.641 136.75 130.641 140.812H116.672C116.672 138.812 116.25 137.062 115.406 135.562C114.594 134.031 113.344 132.828 111.656 131.953C110 131.078 107.906 130.641 105.375 130.641C102.938 130.641 100.906 131.016 99.2812 131.766C97.6562 132.484 96.4375 133.469 95.625 134.719C94.8125 135.938 94.4062 137.312 94.4062 138.844C94.4062 140 94.6875 141.047 95.25 141.984C95.8438 142.922 96.7188 143.797 97.875 144.609C99.0312 145.422 100.453 146.188 102.141 146.906C103.828 147.625 105.781 148.328 108 149.016C111.719 150.141 114.984 151.406 117.797 152.812C120.641 154.219 123.016 155.797 124.922 157.547C126.828 159.297 128.266 161.281 129.234 163.5C130.203 165.719 130.688 168.234 130.688 171.047C130.688 174.016 130.109 176.672 128.953 179.016C127.797 181.359 126.125 183.344 123.938 184.969C121.75 186.594 119.141 187.828 116.109 188.672C113.078 189.516 109.688 189.938 105.938 189.938C102.562 189.938 99.2344 189.5 95.9531 188.625C92.6719 187.719 89.6875 186.359 87 184.547C84.3438 182.734 82.2188 180.422 80.625 177.609C79.0312 174.797 78.2344 171.469 78.2344 167.625H92.3438C92.3438 169.75 92.6719 171.547 93.3281 173.016C93.9844 174.484 94.9062 175.672 96.0938 176.578C97.3125 177.484 98.75 178.141 100.406 178.547C102.094 178.953 103.938 179.156 105.938 179.156C108.375 179.156 110.375 178.812 111.938 178.125C113.531 177.438 114.703 176.484 115.453 175.266C116.234 174.047 116.625 172.672 116.625 171.141ZM173.646 120.75V189H159.63V120.75H173.646ZM194.646 120.75V131.766H138.958V120.75H194.646ZM243.229 120.75H257.244V165.844C257.244 171.094 256.119 175.516 253.869 179.109C251.651 182.703 248.573 185.406 244.635 187.219C240.729 189.031 236.229 189.938 231.135 189.938C226.041 189.938 221.51 189.031 217.541 187.219C213.604 185.406 210.51 182.703 208.26 179.109C206.041 175.516 204.932 171.094 204.932 165.844V120.75H218.994V165.844C218.994 168.906 219.479 171.406 220.448 173.344C221.416 175.281 222.807 176.703 224.619 177.609C226.463 178.516 228.635 178.969 231.135 178.969C233.698 178.969 235.869 178.516 237.651 177.609C239.463 176.703 240.838 175.281 241.776 173.344C242.744 171.406 243.229 168.906 243.229 165.844V120.75ZM292.656 189H277.796L277.89 178.031H292.656C296.343 178.031 299.452 177.203 301.984 175.547C304.515 173.859 306.421 171.406 307.702 168.188C309.015 164.969 309.671 161.078 309.671 156.516V153.188C309.671 149.688 309.296 146.609 308.546 143.953C307.827 141.297 306.749 139.062 305.312 137.25C303.874 135.438 302.109 134.078 300.015 133.172C297.921 132.234 295.515 131.766 292.796 131.766H277.515V120.75H292.796C297.359 120.75 301.531 121.531 305.312 123.094C309.124 124.625 312.421 126.828 315.202 129.703C317.984 132.578 320.124 136.016 321.624 140.016C323.156 143.984 323.921 148.406 323.921 153.281V156.516C323.921 161.359 323.156 165.781 321.624 169.781C320.124 173.781 317.984 177.219 315.202 180.094C312.452 182.938 309.156 185.141 305.312 186.703C301.499 188.234 297.281 189 292.656 189ZM285.765 120.75V189H271.702V120.75H285.765ZM344.958 143.5V189H335.614V143.5H344.958ZM413.753 153.281V156.516C413.753 161.703 413.049 166.359 411.643 170.484C410.237 174.609 408.253 178.125 405.69 181.031C403.128 183.906 400.065 186.109 396.503 187.641C392.971 189.172 389.049 189.938 384.737 189.938C380.456 189.938 376.534 189.172 372.971 187.641C369.44 186.109 366.378 183.906 363.784 181.031C361.19 178.125 359.174 174.609 357.737 170.484C356.331 166.359 355.628 161.703 355.628 156.516V153.281C355.628 148.062 356.331 143.406 357.737 139.312C359.143 135.188 361.128 131.672 363.69 128.766C366.284 125.859 369.346 123.641 372.878 122.109C376.44 120.578 380.362 119.812 384.643 119.812C388.956 119.812 392.878 120.578 396.409 122.109C399.971 123.641 403.034 125.859 405.596 128.766C408.19 131.672 410.19 135.188 411.596 139.312C413.034 143.406 413.753 148.062 413.753 153.281ZM399.549 156.516V153.188C399.549 149.562 399.221 146.375 398.565 143.625C397.909 140.875 396.94 138.562 395.659 136.688C394.378 134.812 392.815 133.406 390.971 132.469C389.128 131.5 387.018 131.016 384.643 131.016C382.268 131.016 380.159 131.5 378.315 132.469C376.503 133.406 374.956 134.812 373.674 136.688C372.424 138.562 371.471 140.875 370.815 143.625C370.159 146.375 369.831 149.562 369.831 153.188V156.516C369.831 160.109 370.159 163.297 370.815 166.078C371.471 168.828 372.44 171.156 373.721 173.062C375.003 174.938 376.565 176.359 378.409 177.328C380.253 178.297 382.362 178.781 384.737 178.781C387.112 178.781 389.221 178.297 391.065 177.328C392.909 176.359 394.456 174.938 395.706 173.062C396.956 171.156 397.909 168.828 398.565 166.078C399.221 163.297 399.549 160.109 399.549 156.516ZM462.289 171.141C462.289 169.922 462.101 168.828 461.726 167.859C461.383 166.859 460.726 165.953 459.758 165.141C458.789 164.297 457.429 163.469 455.679 162.656C453.929 161.844 451.664 161 448.883 160.125C445.789 159.125 442.851 158 440.07 156.75C437.32 155.5 434.883 154.047 432.758 152.391C430.664 150.703 429.008 148.75 427.789 146.531C426.601 144.312 426.008 141.734 426.008 138.797C426.008 135.953 426.633 133.375 427.883 131.062C429.133 128.719 430.883 126.719 433.133 125.062C435.383 123.375 438.039 122.078 441.101 121.172C444.195 120.266 447.586 119.812 451.273 119.812C456.304 119.812 460.695 120.719 464.445 122.531C468.195 124.344 471.101 126.828 473.164 129.984C475.258 133.141 476.304 136.75 476.304 140.812H462.336C462.336 138.812 461.914 137.062 461.07 135.562C460.258 134.031 459.008 132.828 457.32 131.953C455.664 131.078 453.57 130.641 451.039 130.641C448.601 130.641 446.57 131.016 444.945 131.766C443.32 132.484 442.101 133.469 441.289 134.719C440.476 135.938 440.07 137.312 440.07 138.844C440.07 140 440.351 141.047 440.914 141.984C441.508 142.922 442.383 143.797 443.539 144.609C444.695 145.422 446.117 146.188 447.804 146.906C449.492 147.625 451.445 148.328 453.664 149.016C457.383 150.141 460.648 151.406 463.461 152.812C466.304 154.219 468.679 155.797 470.586 157.547C472.492 159.297 473.929 161.281 474.898 163.5C475.867 165.719 476.351 168.234 476.351 171.047C476.351 174.016 475.773 176.672 474.617 179.016C473.461 181.359 471.789 183.344 469.601 184.969C467.414 186.594 464.804 187.828 461.773 188.672C458.742 189.516 455.351 189.938 451.601 189.938C448.226 189.938 444.898 189.5 441.617 188.625C438.336 187.719 435.351 186.359 432.664 184.547C430.008 182.734 427.883 180.422 426.289 177.609C424.695 174.797 423.898 171.469 423.898 167.625H438.008C438.008 169.75 438.336 171.547 438.992 173.016C439.648 174.484 440.57 175.672 441.758 176.578C442.976 177.484 444.414 178.141 446.07 178.547C447.758 178.953 449.601 179.156 451.601 179.156C454.039 179.156 456.039 178.812 457.601 178.125C459.195 177.438 460.367 176.484 461.117 175.266C461.898 174.047 462.289 172.672 462.289 171.141Z" fill="black"/>
<path d="M116.062 167.859L115.117 168.184L115.123 168.203L115.13 168.22L116.062 167.859ZM114.094 165.141L113.437 165.895L113.444 165.901L113.451 165.907L114.094 165.141ZM103.219 160.125L102.911 161.077L102.919 161.079L103.219 160.125ZM94.4062 156.75L93.9924 157.66L93.9963 157.662L94.4062 156.75ZM87.0938 152.391L86.4662 153.169L86.4726 153.174L86.479 153.179L87.0938 152.391ZM82.125 146.531L81.2433 147.003L81.2485 147.013L82.125 146.531ZM82.2188 131.062L83.0985 131.538L83.1011 131.533L82.2188 131.062ZM87.4688 125.062L88.0616 125.868L88.0687 125.862L87.4688 125.062ZM95.4375 121.172L95.1564 120.212L95.1537 120.213L95.4375 121.172ZM127.5 129.984L126.663 130.531L126.667 130.537L127.5 129.984ZM130.641 140.812V141.812H131.641V140.812H130.641ZM116.672 140.812H115.672V141.812H116.672V140.812ZM115.406 135.562L114.523 136.031L114.529 136.042L114.535 136.053L115.406 135.562ZM111.656 131.953L111.189 132.837L111.196 132.841L111.656 131.953ZM99.2812 131.766L99.6858 132.68L99.6931 132.677L99.7003 132.674L99.2812 131.766ZM95.625 134.719L96.4571 135.273L96.4634 135.264L95.625 134.719ZM95.25 141.984L94.3925 142.499L94.3987 142.509L94.4052 142.519L95.25 141.984ZM108 149.016L107.704 149.971L107.71 149.973L108 149.016ZM117.797 152.812L117.35 153.707L117.354 153.709L117.797 152.812ZM95.9531 188.625L95.6869 189.589L95.6955 189.591L95.9531 188.625ZM87 184.547L86.4364 185.373L86.4409 185.376L87 184.547ZM78.2344 167.625V166.625H77.2344V167.625H78.2344ZM92.3438 167.625H93.3438V166.625H92.3438V167.625ZM96.0938 176.578L95.487 177.373L95.497 177.381L96.0938 176.578ZM100.406 178.547L100.168 179.518L100.172 179.519L100.406 178.547ZM111.938 178.125L111.541 177.207L111.535 177.21L111.938 178.125ZM115.453 175.266L114.611 174.726L114.606 174.734L114.601 174.742L115.453 175.266ZM117.625 171.141C117.625 169.819 117.422 168.6 116.995 167.498L115.13 168.22C115.453 169.056 115.625 170.024 115.625 171.141H117.625ZM117.008 167.534C116.595 166.332 115.817 165.281 114.736 164.374L113.451 165.907C114.308 166.626 114.843 167.387 115.117 168.184L117.008 167.534ZM114.751 164.387C113.685 163.458 112.234 162.584 110.437 161.749L109.595 163.563C111.297 164.354 112.565 165.135 113.437 165.895L114.751 164.387ZM110.437 161.749C108.633 160.912 106.323 160.053 103.519 159.171L102.919 161.079C105.677 161.947 107.898 162.776 109.595 163.563L110.437 161.749ZM103.526 159.173C100.465 158.184 97.5619 157.072 94.8162 155.838L93.9963 157.662C96.8131 158.928 99.7849 160.066 102.911 161.077L103.526 159.173ZM94.8201 155.84C92.1331 154.618 89.7646 153.204 87.7085 151.602L86.479 153.179C88.6729 154.889 91.1794 156.382 93.9924 157.66L94.8201 155.84ZM87.7213 151.612C85.7227 150.001 84.1536 148.147 83.0015 146.05L81.2485 147.013C82.5339 149.353 84.2773 151.405 86.4662 153.169L87.7213 151.612ZM83.0067 146.059C81.9089 144.008 81.3438 141.597 81.3438 138.797H79.3438C79.3438 141.871 79.9661 144.617 81.2433 147.003L83.0067 146.059ZM81.3438 138.797C81.3438 136.105 81.9338 133.693 83.0985 131.538L81.339 130.587C80.0037 133.057 79.3438 135.801 79.3438 138.797H81.3438ZM83.1011 131.533C84.2772 129.328 85.9255 127.44 88.0616 125.868L86.8759 124.257C84.512 125.997 82.6603 128.11 81.3364 130.592L83.1011 131.533ZM88.0687 125.862C90.2116 124.255 92.7575 123.008 95.7213 122.131L95.1537 120.213C91.9925 121.148 89.2259 122.495 86.8688 124.263L88.0687 125.862ZM95.7186 122.132C98.709 121.256 102.004 120.812 105.609 120.812V118.812C101.84 118.812 98.3535 119.276 95.1564 120.212L95.7186 122.132ZM105.609 120.812C110.521 120.812 114.757 121.697 118.346 123.432L119.216 121.631C115.305 119.741 110.76 118.812 105.609 118.812V120.812ZM118.346 123.432C121.95 125.174 124.71 127.543 126.663 130.531L128.337 129.437C126.165 126.113 123.112 123.514 119.216 121.631L118.346 123.432ZM126.667 130.537C128.644 133.518 129.641 136.932 129.641 140.812H131.641C131.641 136.568 130.544 132.764 128.333 129.432L126.667 130.537ZM130.641 139.812H116.672V141.812H130.641V139.812ZM117.672 140.812C117.672 138.669 117.219 136.745 116.278 135.072L114.535 136.053C115.281 137.38 115.672 138.956 115.672 140.812H117.672ZM116.29 135.094C115.373 133.366 113.966 132.024 112.117 131.065L111.196 132.841C112.721 133.632 113.815 134.697 114.523 136.031L116.29 135.094ZM112.123 131.069C110.282 130.096 108.014 129.641 105.375 129.641V131.641C107.798 131.641 109.718 132.06 111.189 132.837L112.123 131.069ZM105.375 129.641C102.842 129.641 100.657 130.029 98.8622 130.858L99.7003 132.674C101.155 132.002 103.033 131.641 105.375 131.641V129.641ZM98.8767 130.851C97.1089 131.633 95.7236 132.732 94.7866 134.174L96.4634 135.264C97.1514 134.205 98.2036 133.336 99.6858 132.68L98.8767 130.851ZM94.7929 134.164C93.8658 135.555 93.4062 137.125 93.4062 138.844H95.4062C95.4062 137.5 95.7592 136.32 96.4571 135.273L94.7929 134.164ZM93.4062 138.844C93.4062 140.17 93.7313 141.397 94.3925 142.499L96.1075 141.47C95.6437 140.697 95.4062 139.83 95.4062 138.844H93.4062ZM94.4052 142.519C95.0858 143.594 96.0644 144.559 97.3001 145.428L98.4499 143.791C97.3731 143.035 96.6017 142.25 96.0948 141.449L94.4052 142.519ZM97.3001 145.428C98.5276 146.29 100.015 147.088 101.749 147.826L102.532 145.986C100.891 145.287 99.5349 144.554 98.4499 143.791L97.3001 145.428ZM101.749 147.826C103.475 148.561 105.461 149.276 107.704 149.971L108.296 148.06C106.102 147.38 104.182 146.689 102.532 145.986L101.749 147.826ZM107.71 149.973C111.387 151.085 114.598 152.331 117.35 153.707L118.244 151.918C115.371 150.481 112.05 149.196 108.29 148.058L107.71 149.973ZM117.354 153.709C120.131 155.082 122.423 156.61 124.246 158.284L125.598 156.81C123.609 154.984 121.15 153.355 118.24 151.916L117.354 153.709ZM124.246 158.284C126.056 159.946 127.409 161.818 128.318 163.9L130.151 163.1C129.123 160.745 127.6 158.648 125.598 156.81L124.246 158.284ZM128.318 163.9C129.223 165.974 129.688 168.35 129.688 171.047H131.688C131.688 168.119 131.183 165.464 130.151 163.1L128.318 163.9ZM129.688 171.047C129.688 173.883 129.136 176.385 128.056 178.573L129.85 179.458C131.083 176.959 131.688 174.148 131.688 171.047H129.688ZM128.056 178.573C126.973 180.769 125.407 182.631 123.341 184.166L124.534 185.771C126.843 184.056 128.62 181.95 129.85 179.458L128.056 178.573ZM123.341 184.166C121.266 185.707 118.772 186.893 115.841 187.708L116.378 189.635C119.509 188.764 122.234 187.48 124.534 185.771L123.341 184.166ZM115.841 187.708C112.912 188.524 109.614 188.938 105.938 188.938V190.938C109.761 190.938 113.244 190.507 116.378 189.635L115.841 187.708ZM105.938 188.938C102.65 188.938 99.4085 188.511 96.2108 187.659L95.6955 189.591C99.0602 190.489 102.475 190.938 105.938 190.938V188.938ZM96.2193 187.661C93.0371 186.782 90.1525 185.467 87.5591 183.718L86.4409 185.376C89.2225 187.252 92.3066 188.655 95.6869 189.589L96.2193 187.661ZM87.5636 183.721C85.0343 181.995 83.0138 179.797 81.495 177.116L79.755 178.102C81.4237 181.047 83.6532 183.474 86.4364 185.373L87.5636 183.721ZM81.495 177.116C80.0013 174.48 79.2344 171.329 79.2344 167.625H77.2344C77.2344 171.609 78.0612 175.113 79.755 178.102L81.495 177.116ZM78.2344 168.625H92.3438V166.625H78.2344V168.625ZM91.3438 167.625C91.3438 169.848 91.6863 171.792 92.4151 173.424L94.2411 172.608C93.6575 171.301 93.3438 169.652 93.3438 167.625H91.3438ZM92.4151 173.424C93.1341 175.033 94.1566 176.358 95.4871 177.373L96.7004 175.783C95.6559 174.986 94.8346 173.936 94.2411 172.608L92.4151 173.424ZM95.497 177.381C96.8352 178.376 98.3981 179.084 100.168 179.518L100.644 177.576C99.1019 177.197 97.7898 176.593 96.6905 175.776L95.497 177.381ZM100.172 179.519C101.947 179.946 103.87 180.156 105.938 180.156V178.156C104.005 178.156 102.241 177.96 100.64 177.575L100.172 179.519ZM105.938 180.156C108.459 180.156 110.609 179.802 112.34 179.04L111.535 177.21C110.141 177.823 108.291 178.156 105.938 178.156V180.156ZM112.334 179.043C114.075 178.292 115.426 177.218 116.305 175.79L114.601 174.742C113.98 175.751 112.987 176.583 111.541 177.207L112.334 179.043ZM116.295 175.805C117.186 174.416 117.625 172.852 117.625 171.141H115.625C115.625 172.492 115.283 173.678 114.611 174.726L116.295 175.805ZM173.646 120.75H174.646V119.75H173.646V120.75ZM173.646 189V190H174.646V189H173.646ZM159.63 189H158.63V190H159.63V189ZM159.63 120.75V119.75H158.63V120.75H159.63ZM194.646 120.75H195.646V119.75H194.646V120.75ZM194.646 131.766V132.766H195.646V131.766H194.646ZM138.958 131.766H137.958V132.766H138.958V131.766ZM138.958 120.75V119.75H137.958V120.75H138.958ZM172.646 120.75V189H174.646V120.75H172.646ZM173.646 188H159.63V190H173.646V188ZM160.63 189V120.75H158.63V189H160.63ZM159.63 121.75H173.646V119.75H159.63V121.75ZM193.646 120.75V131.766H195.646V120.75H193.646ZM194.646 130.766H138.958V132.766H194.646V130.766ZM139.958 131.766V120.75H137.958V131.766H139.958ZM138.958 121.75H194.646V119.75H138.958V121.75ZM243.229 120.75V119.75H242.229V120.75H243.229ZM257.244 120.75H258.244V119.75H257.244V120.75ZM253.869 179.109L253.022 178.579L253.018 178.584L253.869 179.109ZM244.635 187.219L244.217 186.31L244.214 186.312L244.635 187.219ZM217.541 187.219L217.123 188.127L217.126 188.128L217.541 187.219ZM208.26 179.109L207.409 179.635L207.412 179.64L208.26 179.109ZM204.932 120.75V119.75H203.932V120.75H204.932ZM218.994 120.75H219.994V119.75H218.994V120.75ZM224.619 177.609L224.172 178.504L224.178 178.507L224.619 177.609ZM237.651 177.609L237.203 176.715L237.197 176.718L237.651 177.609ZM241.776 173.344L240.881 172.896L240.875 172.908L241.776 173.344ZM243.229 121.75H257.244V119.75H243.229V121.75ZM256.244 120.75V165.844H258.244V120.75H256.244ZM256.244 165.844C256.244 170.951 255.151 175.178 253.022 178.579L254.717 179.64C257.088 175.853 258.244 171.237 258.244 165.844H256.244ZM253.018 178.584C250.906 182.006 247.981 184.578 244.217 186.31L245.053 188.127C249.164 186.235 252.395 183.401 254.72 179.635L253.018 178.584ZM244.214 186.312C240.462 188.053 236.11 188.938 231.135 188.938V190.938C236.348 190.938 240.996 190.01 245.056 188.126L244.214 186.312ZM231.135 188.938C226.161 188.938 221.775 188.053 217.957 186.309L217.126 188.128C221.245 190.01 225.922 190.938 231.135 190.938V188.938ZM217.959 186.31C214.195 184.577 211.252 182.004 209.108 178.579L207.412 179.64C209.768 183.403 213.013 186.235 217.123 188.127L217.959 186.31ZM209.111 178.584C207.011 175.182 205.932 170.953 205.932 165.844H203.932C203.932 171.234 205.072 175.849 207.409 179.635L209.111 178.584ZM205.932 165.844V120.75H203.932V165.844H205.932ZM204.932 121.75H218.994V119.75H204.932V121.75ZM217.994 120.75V165.844H219.994V120.75H217.994ZM217.994 165.844C217.994 169.001 218.492 171.669 219.553 173.791L221.342 172.897C220.465 171.143 219.994 168.811 219.994 165.844H217.994ZM219.553 173.791C220.611 175.908 222.152 177.494 224.172 178.504L225.067 176.715C223.461 175.912 222.221 174.655 221.342 172.897L219.553 173.791ZM224.178 178.507C226.186 179.494 228.515 179.969 231.135 179.969V177.969C228.755 177.969 226.74 177.538 225.06 176.712L224.178 178.507ZM231.135 179.969C233.812 179.969 236.148 179.496 238.104 178.501L237.197 176.718C235.59 177.536 233.583 177.969 231.135 177.969V179.969ZM238.098 178.504C240.121 177.492 241.649 175.902 242.676 173.779L240.875 172.908C240.028 174.66 238.806 175.914 237.203 176.715L238.098 178.504ZM242.67 173.791C243.731 171.669 244.229 169.001 244.229 165.844H242.229C242.229 168.811 241.758 171.143 240.881 172.897L242.67 173.791ZM244.229 165.844V120.75H242.229V165.844H244.229ZM277.796 189L276.796 188.991L276.788 190H277.796V189ZM277.89 178.031V177.031H276.899L276.89 178.023L277.89 178.031ZM301.984 175.547L302.531 176.384L302.538 176.379L301.984 175.547ZM307.702 168.188L306.776 167.81L306.773 167.818L307.702 168.188ZM308.546 143.953L307.581 144.214L307.584 144.225L308.546 143.953ZM300.015 133.172L299.606 134.085L299.618 134.09L300.015 133.172ZM277.515 131.766H276.515V132.766H277.515V131.766ZM277.515 120.75V119.75H276.515V120.75H277.515ZM305.312 123.094L304.93 124.018L304.939 124.022L305.312 123.094ZM321.624 140.016L320.688 140.367L320.691 140.376L321.624 140.016ZM321.624 169.781L320.69 169.424L320.688 169.43L321.624 169.781ZM315.202 180.094L314.484 179.398L314.484 179.399L315.202 180.094ZM305.312 186.703L305.685 187.631L305.688 187.63L305.312 186.703ZM285.765 120.75H286.765V119.75H285.765V120.75ZM285.765 189V190H286.765V189H285.765ZM271.702 189H270.702V190H271.702V189ZM271.702 120.75V119.75H270.702V120.75H271.702ZM292.656 188H277.796V190H292.656V188ZM278.796 189.009L278.89 178.04L276.89 178.023L276.796 188.991L278.796 189.009ZM277.89 179.031H292.656V177.031H277.89V179.031ZM292.656 179.031C296.495 179.031 299.805 178.168 302.531 176.384L301.436 174.71C299.1 176.239 296.192 177.031 292.656 177.031V179.031ZM302.538 176.379C305.261 174.564 307.286 171.937 308.632 168.557L306.773 167.818C305.556 170.875 303.769 173.155 301.429 174.715L302.538 176.379ZM308.628 168.565C310.003 165.195 310.671 161.169 310.671 156.516H308.671C308.671 160.987 308.027 164.742 306.777 167.81L308.628 168.565ZM310.671 156.516V153.188H308.671V156.516H310.671ZM310.671 153.188C310.671 149.619 310.289 146.446 309.509 143.681L307.584 144.225C308.303 146.773 308.671 149.756 308.671 153.188H310.671ZM309.512 143.692C308.764 140.929 307.632 138.566 306.095 136.629L304.528 137.871C305.867 139.559 306.891 141.665 307.581 144.214L309.512 143.692ZM306.095 136.629C304.557 134.689 302.659 133.227 300.412 132.254L299.618 134.09C301.558 134.929 303.192 136.186 304.528 137.871L306.095 136.629ZM300.424 132.259C298.18 131.254 295.63 130.766 292.796 130.766V132.766C295.4 132.766 297.663 133.214 299.606 134.085L300.424 132.259ZM292.796 130.766H277.515V132.766H292.796V130.766ZM278.515 131.766V120.75H276.515V131.766H278.515ZM277.515 121.75H292.796V119.75H277.515V121.75ZM292.796 121.75C297.243 121.75 301.283 122.511 304.93 124.018L305.694 122.17C301.778 120.552 297.475 119.75 292.796 119.75V121.75ZM304.939 124.022C308.625 125.502 311.803 127.627 314.484 130.398L315.921 129.008C313.04 126.029 309.624 123.748 305.685 122.166L304.939 124.022ZM314.484 130.398C317.163 133.168 319.233 136.486 320.688 140.367L322.561 139.665C321.016 135.545 318.804 131.988 315.921 129.008L314.484 130.398ZM320.691 140.376C322.172 144.214 322.921 148.512 322.921 153.281H324.921C324.921 148.301 324.139 143.755 322.557 139.656L320.691 140.376ZM322.921 153.281V156.516H324.921V153.281H322.921ZM322.921 156.516C322.921 161.253 322.173 165.552 320.69 169.424L322.558 170.139C324.139 166.011 324.921 161.466 324.921 156.516H322.921ZM320.688 169.43C319.233 173.311 317.163 176.629 314.484 179.398L315.921 180.789C318.804 177.809 321.016 174.252 322.561 170.132L320.688 169.43ZM314.484 179.399C311.835 182.137 308.657 184.264 304.935 185.777L305.688 187.63C309.655 186.017 313.07 183.738 315.921 180.789L314.484 179.399ZM304.939 185.775C301.259 187.253 297.169 188 292.656 188V190C297.392 190 301.74 189.216 305.685 187.631L304.939 185.775ZM284.765 120.75V189H286.765V120.75H284.765ZM285.765 188H271.702V190H285.765V188ZM272.702 189V120.75H270.702V189H272.702ZM271.702 121.75H285.765V119.75H271.702V121.75ZM344.958 143.5H345.958V142.5H344.958V143.5ZM344.958 189V190H345.958V189H344.958ZM335.614 189H334.614V190H335.614V189ZM335.614 143.5V142.5H334.614V143.5H335.614ZM343.958 143.5V189H345.958V143.5H343.958ZM344.958 188H335.614V190H344.958V188ZM336.614 189V143.5H334.614V189H336.614ZM335.614 144.5H344.958V142.5H335.614V144.5ZM405.69 181.031L406.437 181.697L406.44 181.693L405.69 181.031ZM396.503 187.641L396.108 186.722L396.105 186.723L396.503 187.641ZM372.971 187.641L372.573 188.558L372.576 188.559L372.971 187.641ZM363.784 181.031L363.038 181.697L363.041 181.701L363.784 181.031ZM357.737 170.484L356.79 170.807L356.793 170.813L357.737 170.484ZM357.737 139.312L358.683 139.637L358.683 139.635L357.737 139.312ZM363.69 128.766L362.944 128.1L362.94 128.104L363.69 128.766ZM372.878 122.109L372.483 121.191L372.48 121.192L372.878 122.109ZM396.409 122.109L396.011 123.027L396.014 123.028L396.409 122.109ZM405.596 128.766L404.846 129.427L404.85 129.431L405.596 128.766ZM411.596 139.312L410.65 139.635L410.653 139.644L411.596 139.312ZM390.971 132.469L390.506 133.354L390.518 133.36L390.971 132.469ZM378.315 132.469L378.774 133.357L378.78 133.354L378.315 132.469ZM373.674 136.688L372.849 136.123L372.842 136.133L373.674 136.688ZM370.815 166.078L369.842 166.308L369.842 166.31L370.815 166.078ZM373.721 173.062L372.891 173.62L372.896 173.627L373.721 173.062ZM395.706 173.062L396.538 173.617L396.542 173.611L395.706 173.062ZM398.565 166.078L399.538 166.31L399.538 166.308L398.565 166.078ZM412.753 153.281V156.516H414.753V153.281H412.753ZM412.753 156.516C412.753 161.614 412.061 166.158 410.697 170.162L412.59 170.807C414.037 166.561 414.753 161.793 414.753 156.516H412.753ZM410.697 170.162C409.328 174.177 407.405 177.574 404.94 180.37L406.44 181.693C409.1 178.676 411.146 175.041 412.59 170.807L410.697 170.162ZM404.943 180.366C402.479 183.131 399.537 185.248 396.108 186.722L396.897 188.559C400.593 186.971 403.776 184.682 406.437 181.697L404.943 180.366ZM396.105 186.723C392.713 188.194 388.929 188.938 384.737 188.938V190.938C389.17 190.938 393.229 190.15 396.9 188.558L396.105 186.723ZM384.737 188.938C380.577 188.938 376.791 188.194 373.366 186.722L372.576 188.559C376.276 190.15 380.334 190.938 384.737 190.938V188.938ZM373.369 186.723C369.97 185.249 367.025 183.131 364.526 180.361L363.041 181.701C365.73 184.682 368.91 186.97 372.573 188.558L373.369 186.723ZM364.53 180.365C362.034 177.569 360.081 174.171 358.681 170.155L356.793 170.813C358.268 175.048 360.346 178.681 363.038 181.697L364.53 180.365ZM358.683 170.162C357.319 166.158 356.628 161.614 356.628 156.516H354.628C354.628 161.793 355.343 166.561 356.79 170.807L358.683 170.162ZM356.628 156.516V153.281H354.628V156.516H356.628ZM356.628 153.281C356.628 148.151 357.319 143.608 358.683 139.637L356.791 138.988C355.342 143.205 354.628 147.974 354.628 153.281H356.628ZM358.683 139.635C360.052 135.619 361.975 132.223 364.44 129.427L362.94 128.104C360.28 131.121 358.234 134.756 356.79 138.99L358.683 139.635ZM364.436 129.431C366.935 126.632 369.879 124.5 373.275 123.027L372.48 121.192C368.814 122.782 365.633 125.087 362.944 128.1L364.436 129.431ZM373.272 123.028C376.698 121.556 380.483 120.812 384.643 120.812V118.812C380.24 118.812 376.182 119.6 372.483 121.191L373.272 123.028ZM384.643 120.812C388.835 120.812 392.62 121.556 396.011 123.027L396.807 121.192C393.135 119.6 389.076 118.812 384.643 118.812V120.812ZM396.014 123.028C399.44 124.501 402.382 126.632 404.846 129.427L406.346 128.104C403.686 125.087 400.502 122.78 396.804 121.191L396.014 123.028ZM404.85 129.431C407.345 132.227 409.282 135.622 410.65 139.635L412.543 138.99C411.098 134.753 409.035 131.117 406.342 128.1L404.85 129.431ZM410.653 139.644C412.046 143.612 412.753 148.153 412.753 153.281H414.753C414.753 147.972 414.021 143.201 412.54 138.981L410.653 139.644ZM400.549 156.516V153.188H398.549V156.516H400.549ZM400.549 153.188C400.549 149.505 400.216 146.237 399.538 143.393L397.592 143.857C398.226 146.513 398.549 149.62 398.549 153.188H400.549ZM399.538 143.393C398.86 140.552 397.849 138.12 396.484 136.123L394.833 137.252C396.031 139.005 396.958 141.198 397.592 143.857L399.538 143.393ZM396.484 136.123C395.118 134.124 393.432 132.598 391.424 131.577L390.518 133.36C392.198 134.214 393.637 135.501 394.833 137.252L396.484 136.123ZM391.436 131.584C389.43 130.529 387.157 130.016 384.643 130.016V132.016C386.879 132.016 388.825 132.471 390.506 133.354L391.436 131.584ZM384.643 130.016C382.129 130.016 379.856 130.529 377.85 131.584L378.78 133.354C380.461 132.471 382.407 132.016 384.643 132.016V130.016ZM377.856 131.581C375.88 132.602 374.213 134.127 372.849 136.123L374.5 137.252C375.699 135.498 377.125 134.21 378.774 133.357L377.856 131.581ZM372.842 136.133C371.512 138.128 370.519 140.556 369.842 143.393L371.788 143.857C372.423 141.194 373.336 138.997 374.506 137.242L372.842 136.133ZM369.842 143.393C369.164 146.237 368.831 149.505 368.831 153.188H370.831C370.831 149.62 371.154 146.513 371.788 143.857L369.842 143.393ZM368.831 153.188V156.516H370.831V153.188H368.831ZM368.831 156.516C368.831 160.168 369.164 163.435 369.842 166.308L371.788 165.848C371.154 163.159 370.831 160.051 370.831 156.516H368.831ZM369.842 166.31C370.52 169.151 371.53 171.595 372.891 173.62L374.551 172.505C373.35 170.718 372.422 168.506 371.788 165.846L369.842 166.31ZM372.896 173.627C374.26 175.624 375.942 177.162 377.944 178.213L378.874 176.443C377.188 175.557 375.745 174.251 374.547 172.498L372.896 173.627ZM377.944 178.213C379.95 179.267 382.223 179.781 384.737 179.781V177.781C382.501 177.781 380.555 177.326 378.874 176.443L377.944 178.213ZM384.737 179.781C387.251 179.781 389.524 179.267 391.53 178.213L390.6 176.443C388.919 177.326 386.973 177.781 384.737 177.781V179.781ZM391.53 178.213C393.534 177.161 395.203 175.62 396.538 173.617L394.874 172.508C393.709 174.255 392.284 175.558 390.6 176.443L391.53 178.213ZM396.542 173.611C397.868 171.588 398.861 169.147 399.538 166.31L397.592 165.846C396.957 168.509 396.043 170.725 394.869 172.514L396.542 173.611ZM399.538 166.308C400.216 163.435 400.549 160.168 400.549 156.516H398.549C398.549 160.051 398.226 163.159 397.592 165.848L399.538 166.308ZM461.726 167.859L460.781 168.184L460.787 168.203L460.794 168.22L461.726 167.859ZM459.758 165.141L459.101 165.895L459.108 165.901L459.115 165.907L459.758 165.141ZM448.883 160.125L448.575 161.077L448.582 161.079L448.883 160.125ZM440.07 156.75L439.656 157.66L439.66 157.662L440.07 156.75ZM432.758 152.391L432.13 153.169L432.136 153.174L432.143 153.179L432.758 152.391ZM427.789 146.531L426.907 147.003L426.912 147.013L427.789 146.531ZM427.883 131.062L428.762 131.538L428.765 131.533L427.883 131.062ZM433.133 125.062L433.725 125.868L433.733 125.862L433.133 125.062ZM441.101 121.172L440.82 120.212L440.818 120.213L441.101 121.172ZM473.164 129.984L472.327 130.531L472.33 130.537L473.164 129.984ZM476.304 140.812V141.812H477.304V140.812H476.304ZM462.336 140.812H461.336V141.812H462.336V140.812ZM461.07 135.562L460.187 136.031L460.192 136.042L460.198 136.053L461.07 135.562ZM457.32 131.953L456.853 132.837L456.86 132.841L457.32 131.953ZM444.945 131.766L445.35 132.68L445.357 132.677L445.364 132.674L444.945 131.766ZM441.289 134.719L442.121 135.273L442.127 135.264L441.289 134.719ZM440.914 141.984L440.056 142.499L440.062 142.509L440.069 142.519L440.914 141.984ZM453.664 149.016L453.368 149.971L453.374 149.973L453.664 149.016ZM463.461 152.812L463.013 153.707L463.017 153.709L463.461 152.812ZM441.617 188.625L441.351 189.589L441.359 189.591L441.617 188.625ZM432.664 184.547L432.1 185.373L432.105 185.376L432.664 184.547ZM423.898 167.625V166.625H422.898V167.625H423.898ZM438.008 167.625H439.008V166.625H438.008V167.625ZM441.758 176.578L441.151 177.373L441.161 177.381L441.758 176.578ZM446.07 178.547L445.832 179.518L445.836 179.519L446.07 178.547ZM457.601 178.125L457.205 177.207L457.199 177.21L457.601 178.125ZM461.117 175.266L460.275 174.726L460.27 174.734L460.265 174.742L461.117 175.266ZM463.289 171.141C463.289 169.819 463.085 168.6 462.659 167.498L460.794 168.22C461.117 169.056 461.289 170.024 461.289 171.141H463.289ZM462.672 167.534C462.258 166.332 461.481 165.281 460.4 164.374L459.115 165.907C459.972 166.626 460.507 167.387 460.781 168.184L462.672 167.534ZM460.414 164.387C459.349 163.458 457.898 162.584 456.1 161.749L455.258 163.563C456.961 164.354 458.229 165.135 459.101 165.895L460.414 164.387ZM456.1 161.749C454.297 160.912 451.987 160.053 449.183 159.171L448.582 161.079C451.341 161.947 453.562 162.776 455.258 163.563L456.1 161.749ZM449.19 159.173C446.129 158.184 443.226 157.072 440.48 155.838L439.66 157.662C442.477 158.928 445.449 160.066 448.575 161.077L449.19 159.173ZM440.484 155.84C437.797 154.618 435.428 153.204 433.372 151.602L432.143 153.179C434.337 154.889 436.843 156.382 439.656 157.66L440.484 155.84ZM433.385 151.612C431.386 150.001 429.817 148.147 428.665 146.05L426.912 147.013C428.198 149.353 429.941 151.405 432.13 153.169L433.385 151.612ZM428.67 146.059C427.573 144.008 427.008 141.597 427.008 138.797H425.008C425.008 141.871 425.63 144.617 426.907 147.003L428.67 146.059ZM427.008 138.797C427.008 136.105 427.598 133.693 428.762 131.538L427.003 130.587C425.667 133.057 425.008 135.801 425.008 138.797H427.008ZM428.765 131.533C429.941 129.328 431.589 127.44 433.725 125.868L432.54 124.257C430.176 125.997 428.324 128.11 427 130.592L428.765 131.533ZM433.733 125.862C435.875 124.255 438.421 123.008 441.385 122.131L440.818 120.213C437.656 121.148 434.89 122.495 432.533 124.263L433.733 125.862ZM441.382 122.132C444.373 121.256 447.667 120.812 451.273 120.812V118.812C447.504 118.812 444.017 119.276 440.82 120.212L441.382 122.132ZM451.273 120.812C456.185 120.812 460.421 121.697 464.01 123.432L464.88 121.631C460.969 119.741 456.424 118.812 451.273 118.812V120.812ZM464.01 123.432C467.614 125.174 470.374 127.543 472.327 130.531L474.001 129.437C471.829 126.113 468.776 123.514 464.88 121.631L464.01 123.432ZM472.33 130.537C474.307 133.518 475.304 136.932 475.304 140.812H477.304C477.304 136.568 476.208 132.764 473.997 129.432L472.33 130.537ZM476.304 139.812H462.336V141.812H476.304V139.812ZM463.336 140.812C463.336 138.669 462.882 136.745 461.942 135.072L460.198 136.053C460.945 137.38 461.336 138.956 461.336 140.812H463.336ZM461.953 135.094C461.036 133.366 459.63 132.024 457.78 131.065L456.86 132.841C458.385 133.632 459.479 134.697 460.187 136.031L461.953 135.094ZM457.787 131.069C455.945 130.096 453.678 129.641 451.039 129.641V131.641C453.462 131.641 455.382 132.06 456.853 132.837L457.787 131.069ZM451.039 129.641C448.506 129.641 446.321 130.029 444.526 130.858L445.364 132.674C446.819 132.002 448.697 131.641 451.039 131.641V129.641ZM444.541 130.851C442.773 131.633 441.387 132.732 440.45 134.174L442.127 135.264C442.815 134.205 443.867 133.336 445.35 132.68L444.541 130.851ZM440.457 134.164C439.53 135.555 439.07 137.125 439.07 138.844H441.07C441.07 137.5 441.423 136.32 442.121 135.273L440.457 134.164ZM439.07 138.844C439.07 140.17 439.395 141.397 440.056 142.499L441.771 141.47C441.307 140.697 441.07 139.83 441.07 138.844H439.07ZM440.069 142.519C440.75 143.594 441.728 144.559 442.964 145.428L444.114 143.791C443.037 143.035 442.265 142.25 441.759 141.449L440.069 142.519ZM442.964 145.428C444.191 146.29 445.679 147.088 447.413 147.826L448.196 145.986C446.555 145.287 445.199 144.554 444.114 143.791L442.964 145.428ZM447.413 147.826C449.138 148.561 451.125 149.276 453.368 149.971L453.96 148.06C451.765 147.38 449.845 146.689 448.196 145.986L447.413 147.826ZM453.374 149.973C457.051 151.085 460.262 152.331 463.013 153.707L463.908 151.918C461.034 150.481 457.714 149.196 453.953 148.058L453.374 149.973ZM463.017 153.709C465.795 155.082 468.086 156.61 469.909 158.284L471.262 156.81C469.272 154.984 466.814 153.355 463.904 151.916L463.017 153.709ZM469.909 158.284C471.72 159.946 473.072 161.818 473.982 163.9L475.815 163.1C474.786 160.745 473.264 158.648 471.262 156.81L469.909 158.284ZM473.982 163.9C474.887 165.974 475.351 168.35 475.351 171.047H477.351C477.351 168.119 476.847 165.464 475.815 163.1L473.982 163.9ZM475.351 171.047C475.351 173.883 474.8 176.385 473.72 178.573L475.514 179.458C476.747 176.959 477.351 174.148 477.351 171.047H475.351ZM473.72 178.573C472.637 180.769 471.071 182.631 469.005 184.166L470.198 185.771C472.507 184.056 474.284 181.95 475.514 179.458L473.72 178.573ZM469.005 184.166C466.93 185.707 464.436 186.893 461.505 187.708L462.041 189.635C465.173 188.764 467.897 187.48 470.198 185.771L469.005 184.166ZM461.505 187.708C458.576 188.524 455.277 188.938 451.601 188.938V190.938C455.425 190.938 458.908 190.507 462.041 189.635L461.505 187.708ZM451.601 188.938C448.314 188.938 445.072 188.511 441.875 187.659L441.359 189.591C444.724 190.489 448.139 190.938 451.601 190.938V188.938ZM441.883 187.661C438.701 186.782 435.816 185.467 433.223 183.718L432.105 185.376C434.886 187.252 437.97 188.655 441.351 189.589L441.883 187.661ZM433.227 183.721C430.698 181.995 428.678 179.797 427.159 177.116L425.419 178.102C427.087 181.047 429.317 183.474 432.1 185.373L433.227 183.721ZM427.159 177.116C425.665 174.48 424.898 171.329 424.898 167.625H422.898C422.898 171.609 423.725 175.113 425.419 178.102L427.159 177.116ZM423.898 168.625H438.008V166.625H423.898V168.625ZM437.008 167.625C437.008 169.848 437.35 171.792 438.079 173.424L439.905 172.608C439.321 171.301 439.008 169.652 439.008 167.625H437.008ZM438.079 173.424C438.798 175.033 439.82 176.358 441.151 177.373L442.364 175.783C441.32 174.986 440.498 173.936 439.905 172.608L438.079 173.424ZM441.161 177.381C442.499 178.376 444.062 179.084 445.832 179.518L446.308 177.576C444.766 177.197 443.454 176.593 442.354 175.776L441.161 177.381ZM445.836 179.519C447.611 179.946 449.534 180.156 451.601 180.156V178.156C449.668 178.156 447.904 177.96 446.304 177.575L445.836 179.519ZM451.601 180.156C454.123 180.156 456.272 179.802 458.004 179.04L457.199 177.21C455.805 177.823 453.955 178.156 451.601 178.156V180.156ZM457.997 179.043C459.739 178.292 461.09 177.218 461.969 175.79L460.265 174.742C459.644 175.751 458.651 176.583 457.205 177.207L457.997 179.043ZM461.959 175.805C462.849 174.416 463.289 172.852 463.289 171.141H461.289C461.289 172.492 460.947 173.678 460.275 174.726L461.959 175.805Z" fill="black"/>
<path d="M327.784 114.014C322.893 120.746 324.371 130.074 331.103 134.965C337.836 139.857 347.224 138.297 352.055 131.647C356.946 124.915 355.468 115.587 348.736 110.696C342.065 105.721 332.676 107.281 327.784 114.014Z" fill="#00B0FF"/>
</svg>
